<svg xmlns="http://www.w3.org/2000/svg" width="150" height="150">
  <path fill="#d0d0d0" d="M72.176 132.366c.13-.191-.247-.212-2.522-.137-1.472.049-2.474.038-2.227-.024.277-.07-.41-.157-1.794-.228-3.609-.185-10.285-.935-13.74-1.545-.502-.088-1.06-.11-1.241-.048-.228.077-.29.054-.2-.074.082-.118.003-.187-.215-.187-.633 0-7.267-1.558-9.73-2.285-5.647-1.667-10.75-3.947-14.075-6.289-4.105-2.89-6.114-6.338-5.467-9.38.254-1.196 1.025-2.966 1.63-3.743 1.55-1.992 4.57-4.258 7.765-5.829 3.053-1.5 7.953-3.22 12.62-4.43 1.21-.314 2.198-.641 2.198-.727 0-.143-.602-1.356-3.057-6.162l-1.3-2.547a1989.214 1764.97 0 0 1-2.015-3.98 1326.726 1177.165 0 0 0-2.959-5.81 2088.93 1853.446 0 0 1-3.048-5.97 2281.769 2024.546 0 0 0-2.966-5.811c-.719-1.401-1.99-3.909-2.825-5.572s-1.685-3.348-1.888-3.742l-1.348-2.626c-.538-1.051-1.587-3.093-2.331-4.538-.745-1.444-2.48-4.847-3.856-7.562a2279 2279 0 0 0-4.63-9.074c-1.923-3.744-2.125-4.223-2.112-5.015.018-1.11.377-1.86 1.336-2.782 2.401-2.311 7.107-4.247 13.352-5.494.987-.197 2.279-.46 2.87-.586 1.16-.246 4.412-.723 7.447-1.091a66 66 0 0 0 2.333-.313c1.164-.218 12.236-1.152 15.29-1.29 1.354-.061 2.432-.155 2.395-.208s1.318-.115 3.01-.138 4.613-.104 6.488-.18c3.354-.138 18.77-.096 19.647.053.247.042 2.083.097 4.081.123s3.633.1 3.633.165.466.12 1.033.12c.567.001 2.606.11 4.53.241 10.987.751 18.367 1.674 27.184 3.4 2.154.421 5.732 1.481 7.545 2.235 3.118 1.296 5.398 3.12 5.93 4.74.18.554.251 1.143.185 1.547-.059.359-1.927 4.197-4.15 8.529-2.225 4.332-4.004 7.972-3.954 8.088s.022.172-.063.126c-.154-.084-1.29 2.126-13.342 25.938-3.456 6.83-7.756 15.319-9.555 18.865l-3.27 6.448.5.194a6 6 0 0 0 1.025.277c.725.114 4.37 1.136 5.762 1.617.63.218 1.26.357 1.4.31s.21-.025.157.05.287.266.754.422c5.53 1.853 10.726 5.097 12.87 8.035 1.153 1.578 1.557 2.684 1.66 4.538.078 1.42.037 1.72-.375 2.772-.254.65-.412 1.258-.352 1.353.061.095.044.119-.038.053-.082-.067-.438.26-.791.726-2.58 3.4-7.276 6.244-14.458 8.75-3.73 1.303-9.497 2.851-12.291 3.3-.444.072-1.332.235-1.974.362a87 87 0 0 1-3.083.525c-1.054.161-1.89.332-1.857.38s-.356.092-.864.098-1.853.103-2.987.213-3.235.288-4.666.396-2.44.232-2.242.277-1.014.075-2.692.069-3.858.01-4.844.036-2.025.005-2.306-.046c-.301-.055-.63-.009-.797.112-.238.17-.26.167-.133-.02m10.861-11.072c9.285-1.06 16.068-3.767 17.953-7.164.766-1.381.842-2.059.344-3.086-1.22-2.517-5.887-4.263-13.871-5.192-3.025-.352-10.817-.61-14.832-.492-12.607.37-19.588 1.665-22.657 4.199-1.643 1.357-1.942 2.586-1.04 4.278 2.118 3.972 9.741 6.873 20.198 7.687 2.723.211 11.275.07 13.905-.23m-27.72-35.498c.726-.27 1.343-1.082 1.344-1.769 0-.526-.843-3.99-5.095-20.927-3.789-15.092-3.468-13.95-4.089-14.576-.673-.68-1.485-.838-2.38-.462-.725.306-1.175.932-1.175 1.635 0 .255.771 3.5 1.714 7.212 1.395 5.494 4.512 17.96 6.578 26.307.416 1.682.776 2.244 1.651 2.582.702.272.713.272 1.453-.002m41.137-.184c.235-.137.54-.488.678-.78s1.297-4.71 2.576-9.818a2144 2144 0 0 1 3.943-15.496c2.571-9.873 2.6-10.007 2.292-10.536-.411-.706-.938-1.037-1.78-1.121-.66-.066-.868-.011-1.369.362-.324.243-.66.606-.747.807-.181.424-5.004 19.227-7.252 28.274-.842 3.39-1.531 6.438-1.531 6.77 0 1.494 1.785 2.355 3.19 1.538m-9.667-.315c.302-.226.633-.673.736-.995.2-.626.962-6.45 3.137-23.979 1.092-8.798 1.323-11.06 1.161-11.407-.725-1.553-3.135-1.616-3.843-.1-.133.282-.582 3.307-.999 6.722s-1.383 11.224-2.147 17.353c-1.296 10.4-1.371 11.184-1.122 11.746.484 1.092 2.049 1.428 3.077.66m-20.868-.291c.382-.34.61-.697.61-.957 0-.228-.367-3.226-.815-6.662s-1.416-11.047-2.15-16.914-1.38-10.897-1.435-11.179c-.14-.714-.885-1.447-1.593-1.564-.81-.135-1.81.268-2.27.913-.511.72-.725-1.311 2.417 22.895.54 4.159 1.11 8.6 1.269 9.87s.37 2.539.47 2.82c.285.796 1.108 1.32 2.075 1.32.684 0 .908-.086 1.422-.542m10.436-.004.67-.545.048-17.657.047-17.656-.413-.544c-.802-1.058-2.497-1.122-3.438-.13l-.46.486.001 17.619c.001 17.148.01 17.632.348 18.086.781 1.051 2.145 1.197 3.197.341m12.692-48.008c8.334-.333 12.943-.648 20.006-1.368 11.84-1.205 20.417-3.173 22.901-5.252.332-.278.604-.654.604-.836 0-.92-3.512-2.272-9.15-3.524-7.886-1.75-17.416-2.79-32.387-3.54-5.277-.263-26.499-.263-31.849 0-13.085.645-21.042 1.395-28.26 2.662-6.453 1.133-13.546 3.416-13.546 4.36 0 .453 1.176 1.274 2.778 1.94 1.714.71 5.454 1.753 6.462 1.8.395.018.92.149 1.167.29 1.277.73 13.236 2.266 22.608 2.902 12.303.835 26.659 1.045 38.666.566"/>
  <path fill="#aeadad" d="M69.58 132.086c-3.79-.185-7.071-.406-9.15-.616-20.315-2.052-35.799-8.225-38.917-15.513-.629-1.47-.648-3.758-.045-5.308 2.002-5.143 10.006-9.611 22.858-12.759.567-.139 1.032-.287 1.032-.33s-.718-1.492-1.595-3.22a20060 20060 0 0 0-28.66-56.243c-3.845-7.522-4.195-8.279-4.191-9.074.006-1.477.793-2.525 3.129-4.171 2.49-1.755 7.64-3.413 14.181-4.567C50.59 16.34 87.358 15.86 113.45 19.17c14.295 1.813 22.255 4.285 24.807 7.703.618.828 1.002 2.107.83 2.765-.06.236-2.072 4.26-4.468 8.945a3919 3919 0 0 0-9.28 18.229c-2.334 4.607-3 5.926-4.347 8.596a502 502 0 0 1-1.657 3.264c-.533 1.03-11.059 21.83-12.165 24.04-.416.831-1.131 2.246-1.59 3.144s-.832 1.69-.832 1.761.424.223.942.338c1.843.41 6.941 1.933 9.128 2.727 4.463 1.621 7.986 3.575 10.508 5.828 1.372 1.226 1.786 1.72 2.47 2.951 1.365 2.458 1.496 4.405.455 6.783-1.935 4.421-8.883 8.626-19.197 11.618-8 2.32-16.331 3.615-26.824 4.167-2.756.145-10.156.178-12.65.057m10.874-10.565c5.683-.404 10.67-1.405 14.422-2.896 2.703-1.073 5.563-3.18 6.285-4.627 1.036-2.08.368-3.722-2.135-5.25-2.363-1.443-8.002-2.692-14.284-3.164-3.272-.245-14.903-.248-18.122-.004-7.25.55-11.982 1.433-14.85 2.774-1.355.633-2.708 1.829-3.1 2.74-1.225 2.845 2.493 6.38 8.778 8.348 3.382 1.058 7.329 1.772 11.414 2.064 2.748.197 8.922.205 11.592.015M56.101 85.294c.582-.559.602-.621.513-1.558-.05-.536-.784-3.733-1.628-7.104a10636.547 9437.495 0 0 1-2.902-11.622c-3.16-12.704-3.87-15.395-4.218-16.008-.615-1.08-1.755-1.457-2.865-.947-1.17.536-1.327 1.358-.71 3.696.584 2.21 5.27 20.842 6.459 25.677 1.85 7.526 1.782 7.296 2.28 7.82.923.974 2.088.991 3.071.046m40.16.419c.316-.171.695-.518.842-.77.148-.253 1.398-4.967 2.78-10.475a2334 2334 0 0 1 3.857-15.189c2.21-8.487 2.465-9.58 2.348-10.05-.165-.667-1.216-1.412-1.992-1.412-.773 0-1.535.374-1.908.937-.151.229-.492 1.276-.756 2.326s-1.356 5.314-2.427 9.473-2.72 10.678-3.664 14.487-1.8 7.226-1.898 7.593c-.325 1.213-.23 2.04.3 2.599.795.837 1.581.988 2.518.48m-9.385-.49c.342-.266.668-.678.724-.915.2-.844 4.407-34.285 4.408-35.036 0-.226-.278-.625-.696-.996-.919-.815-1.85-.861-2.777-.138-.338.263-.66.64-.715.836s-.432 3.078-.839 6.406-1.376 11.163-2.155 17.413c-1.26 10.119-1.389 11.42-1.172 11.88.537 1.14 2.117 1.41 3.222.55m-20.956-.216c.428-.38.61-.687.61-1.029 0-.268-.485-4.233-1.078-8.811s-1.59-12.402-2.216-17.386l-1.137-9.061-.676-.55c-.615-.5-.749-.541-1.501-.466-.662.066-.947.2-1.44.676l-.612.594.1 1.292c.056.711.432 3.836.836 6.945s1.256 9.699 1.894 14.646c1.802 13.957 1.555 12.554 2.31 13.167.533.434.786.524 1.472.524.702 0 .92-.082 1.438-.541m10.225.279c1.02-.593.971.35.971-18.742V48.956l-.454-.48a2.9 2.9 0 0 0-1.077-.661c-.816-.239-1.708.015-2.32.661l-.455.48v17.587c0 19.033-.044 18.147.936 18.756.523.325 1.828.318 2.399-.014m13.082-48.29c8.357-.336 12.949-.65 20.006-1.368 11.72-1.194 20.219-3.128 22.607-5.144.396-.333.719-.754.719-.935 0-.976-3.295-2.274-8.971-3.533-7.884-1.75-17.364-2.786-32.387-3.541-5.27-.265-26.826-.265-32.207 0-12.808.631-20.655 1.36-27.811 2.58-2.948.504-3.193.558-7.023 1.568-3.708.978-6.972 2.33-6.972 2.887 0 .08.286.39.636.692 2.028 1.748 9.609 3.748 18.431 4.862 8.892 1.123 17.761 1.759 29.109 2.087 5.413.156 18.149.073 23.863-.156"/>
  <path fill="#959594" d="M68.055 132.027c-8.004-.402-15.935-1.459-22.608-3.014-5.137-1.198-8.693-2.362-12.918-4.23-5.947-2.627-9.53-5.494-10.99-8.793-.656-1.482-.685-3.742-.068-5.341 1.499-3.88 6.848-7.648 14.728-10.373 2.019-.698 6.55-2.029 7.814-2.295.495-.104 1.009-.249 1.143-.323.256-.14-.552-1.772-11.598-23.414-2.614-5.122-5.46-10.71-6.323-12.418-1.64-3.242-11.725-22.994-14.642-28.676-1.43-2.788-1.685-3.408-1.685-4.104 0-1.105.341-1.76 1.472-2.822 2.71-2.547 6.713-4.128 14.227-5.617 13.38-2.653 36.81-4.107 56.61-3.514 26.887.805 45.585 3.487 52.232 7.492 2.413 1.454 3.57 2.913 3.57 4.502 0 .848-.279 1.453-4.017 8.746a7735 7735 0 0 0-22.092 43.495c-3.708 7.357-7.493 14.818-7.87 15.512-.242.443-.385.835-.319.871s.644.186 1.285.332 2.173.555 3.407.91c9.973 2.862 16.047 6.367 18.471 10.657 2.482 4.39.473 8.877-5.692 12.712-8.086 5.03-21.164 8.39-37.181 9.553-3.168.23-13.54.323-16.956.152m15.43-10.735c9.75-1.19 16.472-4.138 17.939-7.865.394-1.002.34-1.751-.198-2.708-.808-1.438-2.494-2.427-5.822-3.415-3.417-1.014-7.55-1.597-13.174-1.857-13.085-.605-25.22.54-30.42 2.869-1.275.57-2.762 1.81-3.143 2.62-.847 1.799.385 4.133 3.119 5.908 3.976 2.583 9.784 4.132 17.794 4.745 2.113.162 11.85-.047 13.906-.297m-28.01-35.509a1.91 1.91 0 0 0 1.186-1.78c0-.576-.908-4.462-2.67-11.43-.4-1.577-1.583-6.305-2.63-10.508-3.45-13.845-3.353-13.534-4.407-14.018-.644-.295-1.3-.292-1.954.008-1.28.587-1.344 1.302-.44 4.83 1.68 6.547 6.66 26.41 7.42 29.594.587 2.464.814 2.907 1.684 3.287.724.317 1.091.32 1.811.017m40.753-.01c.346-.145.719-.478.887-.793.16-.299 1.372-4.86 2.694-10.137s3.01-11.922 3.75-14.768c1.988-7.641 2.623-10.203 2.622-10.573-.002-.436-.588-1.213-1.11-1.47-.227-.112-.748-.206-1.157-.21-1.015-.007-1.74.6-2.097 1.759-.423 1.367-5.758 22.336-7.664 30.126-1.166 4.762-1.154 5.268.14 6.025.61.358 1.157.37 1.935.042m-31.014-.225c.116-.001.46-.222.763-.492.446-.395.552-.622.552-1.177 0-.378-.4-3.758-.889-7.51s-1.464-11.407-2.168-17.011c-.85-6.762-1.374-10.365-1.558-10.713-.484-.913-1.67-1.228-2.812-.747-.752.317-1.186.996-1.186 1.858 0 .68.598 5.508 2.252 18.199.445 3.414 1.092 8.424 1.438 11.132.388 3.032.736 5.122.908 5.443.406.76 1.32 1.224 2.131 1.083.197-.034.453-.063.57-.065m21.654-.234c.262-.216.555-.574.65-.796s.502-2.93.903-6.016c1.241-9.54 3.584-28.511 3.584-29.015-.001-.563-.526-1.328-1.11-1.615-1.002-.494-2.428-.089-2.919.83-.165.309-.545 2.749-.992 6.374a30530.972 27089.233 0 0 1-2.163 17.448c-1.314 10.566-1.416 11.622-1.183 12.119.35.743.928 1.063 1.923 1.063.634 0 .944-.093 1.307-.392m-10.69-.016c.98-.61.936.273.936-18.704 0-19.49.084-18.161-1.186-18.696-.987-.416-1.903-.246-2.679.497l-.441.423v35.646l.61.541c.527.468.729.541 1.485.541.503 0 1.045-.105 1.275-.248m13.406-48.304c14.525-.587 26.289-1.79 33.733-3.45 5.658-1.26 9.24-2.79 9.24-3.946 0-1.622-8.149-3.904-19.02-5.326-9.861-1.291-19.934-1.889-34.27-2.035-15.253-.156-28.825.402-39.653 1.629-5.454.618-10.973 1.51-13.187 2.13a8695.644 7715.39 0 0 1-3.41.954c-2.184.611-4.763 1.613-5.548 2.155-1.143.791 2 2.485 6.833 3.68 1.267.315 2.828.707 3.47.874 4.837 1.255 16.835 2.568 29.067 3.18 9.229.462 23.489.529 32.745.155"/>
  <path fill="#717171" d="M68.324 132.018c-22.56-1.015-41.583-7.172-46.188-14.947-3.009-5.08-.046-10.207 8.33-14.415 2.912-1.463 8.53-3.402 13.59-4.692.716-.182 1.302-.387 1.302-.454 0-.12-.67-1.447-7.811-15.465a38092.864 33798.677 0 0 1-4.661-9.154 26870 26870 0 0 0-11.394-22.368l-6.207-12.148c-4.842-9.477-4.777-9.298-3.952-10.856.449-.847 1.947-2.208 3.404-3.09 5.562-3.373 20.388-5.901 40.668-6.935 13.72-.7 22.037-.718 36.155-.081 17.688.797 32.71 2.853 40.099 5.488 2.555.911 3.862 1.614 5.405 2.905 1.47 1.23 1.954 2.04 1.954 3.266 0 .819-.249 1.38-2.89 6.517-3.245 6.311-9.146 17.902-15.466 30.377-13.241 26.135-15.93 31.455-15.965 31.579-.022.075 1.374.516 3.101.98 5.956 1.598 10.322 3.296 13.92 5.413 6.833 4.02 8.892 8.912 5.75 13.667-2.687 4.069-10.165 8.043-20.208 10.74-11.016 2.957-25.17 4.292-38.936 3.673m14.16-10.567c9.94-1.13 16.765-3.85 18.682-7.445.657-1.233.686-2.128.106-3.234-1.255-2.391-6.149-4.126-14.32-5.076-2.942-.342-10.644-.61-14.142-.493-13.063.44-20.537 1.912-23.237 4.577-1.018 1.005-1.432 2.11-1.145 3.055.48 1.582 1.534 2.856 3.34 4.038 3.848 2.52 10.098 4.205 17.812 4.804 2.687.209 10.243.076 12.903-.226M55.61 85.775c.344-.158.676-.514.901-.965l.357-.715-.566-2.339c-.311-1.286-1.202-4.881-1.979-7.99s-2.018-8.087-2.759-11.064c-2.224-8.944-3.324-13.189-3.538-13.654-.774-1.683-3.458-1.614-4.098.106-.217.584-.247.445 1.79 8.454 1.717 6.748 5.674 22.558 6.196 24.754.587 2.47.804 2.936 1.552 3.34.714.387 1.408.41 2.144.073m40.71.008c.29-.132.654-.46.81-.726.155-.266 1.362-4.796 2.683-10.066s3.006-11.91 3.747-14.757c2.075-7.977 2.623-10.205 2.623-10.669 0-.665-.722-1.48-1.515-1.712-1.353-.396-2.57.357-2.947 1.825-3.485 13.525-7.338 28.799-8.286 32.844-.365 1.554-.373 1.714-.113 2.265.5 1.061 1.867 1.515 2.999.996m-9.574-.32c.754-.438.97-1.123 1.423-4.51 1.012-7.57 3.839-30.526 3.839-31.175 0-1.293-.79-2.12-2.023-2.12-.915 0-1.673.37-2.037.992-.208.359-.525 2.357-1.065 6.724L84.72 72.865l-1.4 11.278.352.583c.63 1.046 1.985 1.37 3.074.738m-20.99-.16c1.011-.59 1.014-.724.13-7.497a4888 4888 0 0 1-2.223-17.44c-.982-7.808-1.501-11.397-1.696-11.73-.386-.664-.956-.98-1.767-.98-1.031 0-1.723.393-2.13 1.21-.352.706-.352.719.013 3.45.201 1.51.571 4.355.822 6.325a9667 9667 0 0 0 3.04 23.535c.166 1.246.381 2.147.59 2.467.648.998 2.12 1.299 3.22.66m10.406 0c.226-.132.553-.432.727-.668.297-.401.32-1.512.365-17.788l.048-17.36-.407-.717c-.328-.577-.555-.76-1.17-.95-.67-.205-.852-.205-1.508 0-.41.13-.915.437-1.122.684l-.375.45v17.647c0 17.6.001 17.65.372 18.098.784.948 2.05 1.197 3.07.604m12.258-48.15c4.851-.191 11.76-.58 14.354-.81 13.59-1.2 22.486-2.742 27.018-4.685 2.595-1.112 3.327-1.972 2.387-2.806-.833-.739-4.795-2.095-8.502-2.91-7.87-1.73-18.605-2.902-33.194-3.626-5.263-.261-25.475-.262-30.771-.002-13.045.642-20.486 1.34-28.35 2.662-3.166.532-5.096.997-9.355 2.254-2.176.643-4.702 1.776-4.782 2.146-.22 1.008 3.383 2.619 8.485 3.793 1.086.25 2.191.527 2.457.617 1.386.47 8.72 1.511 15.217 2.16 13.362 1.334 30.274 1.787 45.036 1.207"/>
  <path fill="#525252" d="M70.836 132.085c-9.414-.31-17.562-1.301-25.21-3.067-12.255-2.83-20.916-7.292-23.58-12.15-1.37-2.5-1.405-4.582-.114-7.043 2.544-4.852 10.134-8.868 22.573-11.946.87-.215 1.006-.297.872-.522-.088-.147-1.632-3.17-3.43-6.715s-5.613-11.033-8.474-16.637a3234 3234 0 0 1-5.889-11.566c-.773-1.554-9.746-19.125-13.85-27.12-3.086-6.013-3.188-6.345-2.393-7.787.526-.953 1.949-2.216 3.584-3.178 3.09-1.82 8.604-3.345 16.437-4.546 19.216-2.945 46.627-3.625 70.515-1.749 15.37 1.207 26.03 3.109 31.804 5.673 1.673.743 2.232 1.094 3.467 2.177 1.083.95 1.525 1.46 1.67 1.928.478 1.537.514 1.446-4.446 11.14-6.271 12.253-10.784 21.143-23.076 45.456a4564 4564 0 0 1-6.083 12.004c-.357.692-.628 1.27-.602 1.285s.693.187 1.483.382c12.16 3.006 19.882 7.254 22.12 12.168 1.69 3.713.127 7.675-4.267 10.822-3.893 2.788-8.517 4.862-15.12 6.783-10.691 3.11-24.585 4.65-37.99 4.208m8.97-10.404c11.768-.791 20.198-4.045 21.707-8.378.353-1.014.357-1.108.083-1.953-.725-2.235-4.196-3.953-10.127-5.013-3.478-.621-6.033-.868-10.969-1.059-12.249-.473-24.073.782-28.907 3.068-1.463.692-2.904 2.107-3.178 3.12-.594 2.198 1.56 4.785 5.586 6.709 5.86 2.801 15.935 4.17 25.806 3.506M55.73 85.702c.333-.18.719-.582.877-.914.334-.704.448-.118-1.652-8.554l-2.871-11.542c-2.485-9.99-3.871-15.33-4.066-15.667-.338-.583-.901-1.035-1.513-1.214-.888-.26-2.049.233-2.493 1.059-.384.714-.46.313 1.525 8.1 1.358 5.331 5.924 23.604 6.465 25.87.472 1.983.718 2.459 1.483 2.873.736.398 1.496.395 2.245-.01m40.61.072c.334-.154.67-.507.871-.916.18-.366 1.31-4.605 2.51-9.421 1.202-4.816 2.9-11.514 3.775-14.885 2.338-9.011 2.687-10.448 2.687-11.051 0-1.147-1.666-2.128-2.865-1.687-.845.31-1.367.986-1.686 2.18-1.312 4.92-7.173 28.1-8.29 32.785-.364 1.527-.27 1.99.543 2.713.686.609 1.53.706 2.454.282m-9.746-.233c.876-.474 1.203-1.33 1.545-4.054 4.058-32.297 4.037-32.117 3.793-32.635-.51-1.084-1.818-1.57-2.929-1.089-1.237.537-1.353.955-2.193 7.933-.41 3.415-1.347 11.032-2.08 16.927s-1.333 10.934-1.333 11.2c0 1.093.989 2.03 2.153 2.037.247.002.716-.142 1.044-.319m-21.014-.148c.316-.17.703-.531.86-.801.27-.463.224-.974-.8-8.883a5278 5278 0 0 1-2.23-17.497c-1.255-10.01-1.228-9.898-2.512-10.458-.675-.294-.705-.294-1.502 0-.447.165-.983.503-1.19.75-.497.593-.478 1.409.14 6.078.74 5.591 3.297 25.404 3.533 27.382.115.963.355 2.054.534 2.424.578 1.194 1.99 1.642 3.167 1.005m10.77-.192c.986-.806.946-.023.946-18.6 0-18.942.057-17.99-1.11-18.622a2.58 2.58 0 0 0-2.425-.01c-1.202.65-1.13-.544-1.13 18.63 0 16.882.01 17.385.349 17.974.649 1.129 2.367 1.449 3.37.628M88.6 37.154c4.858-.192 11.765-.581 14.355-.81 12.658-1.115 21.419-2.57 26.16-4.345 3.222-1.206 4.256-2.412 2.862-3.34-2.943-1.958-12.998-4.026-25.613-5.268-9.63-.948-17.576-1.272-31.22-1.273-13.227-.001-21.065.3-30.862 1.19-6.776.614-15.018 1.831-17.674 2.61-.69.203-2.103.599-3.14.88-3.467.941-6.28 2.12-6.28 2.63 0 .718 2.303 2.016 5.052 2.848 7.964 2.41 19.257 3.912 35.5 4.723 9.245.462 21.518.524 30.86.155"/>
  <path fill="#2d2d2d" d="M71.016 132.086c-14.275-.465-26.41-2.592-36.186-6.344-9.397-3.607-14.615-8.75-13.725-13.529 1.103-5.924 8.867-10.674 23.407-14.319.57-.143 1.003-.31.96-.373s-2.296-4.484-5.01-9.825-6.526-12.827-8.473-16.636a1814 1814 0 0 1-4.224-8.302c-1.077-2.162-8.059-15.811-12.611-24.652-4.024-7.816-4.14-8.069-4.147-9.075-.007-.848.08-1.168.483-1.777 1.005-1.52 3.842-3.344 6.998-4.5 4.224-1.548 11.69-2.967 20.948-3.982 3.18-.348 5.098-.518 10.856-.964 2.951-.229 10.769-.57 16.866-.735 11.64-.315 27.918.28 40.102 1.465 11.717 1.14 20.914 2.894 25.772 4.914 2.708 1.125 4.902 2.759 5.637 4.196.751 1.468.797 1.35-4.39 11.475-5.082 9.923-17.776 34.942-27.472 54.145a1237.775 1098.241 0 0 1-1.686 3.327c-.308.603-.539 1.115-.512 1.136s.824.226 1.77.453c7.978 1.918 14.649 4.799 18.394 7.943 2.81 2.36 4.044 4.533 4.044 7.121 0 2.596-1.194 4.711-3.99 7.073-5.636 4.758-16.56 8.578-30.037 10.502-6.928.988-16.528 1.499-23.774 1.263m11.842-10.634c9.605-1.093 16.361-3.807 18.337-7.368 2.285-4.119-2.63-7.09-13.88-8.389-6.316-.73-17.734-.655-25.091.164-6.503.724-10.575 1.967-12.59 3.844-1.555 1.448-1.759 2.623-.758 4.375 2.217 3.883 10.018 6.796 20.345 7.599 2.763.214 10.965.08 13.637-.225m-26.694-36.06c.954-.933 1.037-.293-1.209-9.317l-2.871-11.542c-.751-3.021-1.926-7.69-2.61-10.378-.685-2.687-1.246-4.925-1.246-4.974 0-.311-1.369-1.369-1.882-1.454-1.205-.2-2.6.816-2.603 1.895 0 .248.288 1.574.64 2.945 1.656 6.458 6.948 27.596 7.635 30.506.329 1.387.519 1.85.932 2.268.931.941 2.283.963 3.214.051m40.283.381c.22-.126.53-.404.686-.616s1.441-4.993 2.855-10.624 3.028-11.994 3.588-14.14c2.684-10.29 2.8-10.809 2.537-11.355-.374-.78-1.06-1.248-1.959-1.338-.72-.072-.862-.025-1.518.5-.602.483-.77.758-1.007 1.65-.545 2.047-4.09 15.908-5.423 21.21-2.354 9.358-3.12 12.584-3.12 13.132 0 .98 1.482 2.1 2.511 1.9.247-.05.63-.192.85-.319m-9.56-.4c.355-.276.711-.747.813-1.074.182-.583 1.106-7.698 3.317-25.538 1.058-8.534 1.153-9.558.923-9.95-.706-1.205-2.064-1.62-3.161-.966-.345.206-.761.624-.923.93-.203.379-.532 2.513-1.045 6.763-.412 3.415-1.349 11.032-2.082 16.927s-1.333 11.002-1.333 11.35c0 1.793 2.027 2.698 3.49 1.558m-20.873-.285c.383-.34.696-.767.696-.95s-.48-4.042-1.068-8.576-1.558-12.183-2.155-17-1.13-8.99-1.183-9.276c-.135-.723-1.042-1.595-1.79-1.72-.803-.133-1.832.318-2.387 1.047-.547.719-.847-2.15 2.398 22.925.64 4.947 1.25 9.71 1.355 10.586.248 2.066.416 2.51 1.17 3.097.5.39.784.485 1.445.485.716 0 .912-.08 1.519-.618m10.12.297c1.234-.676 1.163.479 1.163-18.775 0-18.942.057-17.877-1.008-18.62-.338-.236-.735-.332-1.37-.332-.8 0-.968.065-1.59.618l-.698.618v17.631c0 17.61 0 17.632.376 18.17.698 1.003 2.025 1.295 3.128.69m12.735-48.233c8.312-.33 12.938-.646 20.006-1.366 13.573-1.383 22.986-3.781 23.757-6.053.358-1.057-2.985-2.49-8.865-3.8-7.91-1.763-18.003-2.872-32.925-3.617-5.267-.263-26.15-.264-31.49 0-10.114.497-16.273.987-22.427 1.783-4.212.545-9.656 1.49-10.478 1.819-.306.122-1.324.413-2.262.646-3.658.908-6.997 2.305-6.997 2.929 0 .88 3.254 2.388 7.285 3.375 1.47.36 2.955.754 3.3.875 1.513.529 8.304 1.51 15.252 2.204 13.393 1.337 30.94 1.798 45.844 1.205"/>
  <path d="M74.217 132.118c-.034-.028-1.918-.099-4.188-.158-2.27-.06-5.257-.212-6.639-.339l-4.161-.382a59 59 0 0 1-2.781-.322 163.099 144.713 0 0 0-2.209-.32 54 54 0 0 1-1.973-.311 86.125 76.416 0 0 0-1.839-.314c-1.994-.318-6.83-1.485-9.734-2.35-9.208-2.74-15.602-6.286-18.118-10.048-1.1-1.647-1.44-2.666-1.44-4.326 0-2.485 1.035-4.416 3.589-6.696 3.756-3.354 9.651-5.99 18.163-8.123 1.112-.278 2.159-.569 2.326-.645.372-.17.74.641-3.543-7.786-1.846-3.63-3.697-7.28-4.115-8.112a6069 6069 0 0 0-8.03-15.761 982 982 0 0 1-3.723-7.323 1807 1807 0 0 0-4.212-8.279 7694.309 6826.934 0 0 1-4.4-8.597 34051.19 30212.618 0 0 0-4.292-8.396c-1.655-3.237-1.81-3.624-1.81-4.504 0-1.272.383-1.905 1.945-3.213 2.664-2.23 6.654-3.744 13.305-5.049 2.469-.484 7.596-1.287 10.228-1.602 6.87-.823 11.567-1.207 19.39-1.587 1.734-.084 3.47-.188 3.858-.232 1.003-.114 10.36-.332 13.983-.327 3.902.007 13.13.217 14.533.331.592.049 2.57.154 4.396.235 3.734.166 7.04.37 9.958.613 1.086.091 2.459.205 3.05.253 6.251.51 16.203 2.003 21.167 3.175 2.247.53 5.305 1.513 6.826 2.194 1.724.772 3.659 2.151 4.455 3.177.602.776.665.955.679 1.963.014 1.065-.045 1.226-1.502 4.054-.834 1.62-3.35 6.527-5.592 10.905-2.24 4.378-4.241 8.283-4.445 8.677s-.834 1.647-1.402 2.786-1.8 3.574-2.74 5.413a1694 1694 0 0 0-2.872 5.651c-2.54 5.03-3.603 7.13-4.116 8.12-.295.569-.603 1.187-.684 1.373s-.89 1.798-1.796 3.582c-1.59 3.13-2.669 5.261-5.146 10.168a2150.563 1908.131 0 0 1-2.608 5.138c-.793 1.556-1.397 2.869-1.343 2.917s1.453.448 3.107.888c8.153 2.169 13.839 4.734 17.368 7.837 4.598 4.044 4.945 8.461.994 12.674-1.524 1.624-4.765 3.758-8.109 5.336-3.336 1.574-9.597 3.648-13.676 4.528-.888.192-2.018.448-2.512.569-.493.12-1.22.263-1.615.316s-1.202.198-1.794.321-1.601.294-2.243.38a90.566 80.356 0 0 0-2.243.327c-.592.095-1.843.24-2.78.32-.938.08-2.795.252-4.127.38s-3.997.28-5.921.335-4.239.127-5.143.16c-.903.03-1.67.034-1.704.006m8.82-10.665c6.215-.71 11.029-2.01 14.226-3.845 1.933-1.11 2.742-1.75 3.524-2.788 2.35-3.121.642-5.766-4.824-7.474-3.853-1.204-8.258-1.804-15.197-2.07a140 140 0 0 0-14.146.187c-8.647.55-14.488 1.934-16.914 4.008-.776.663-1.478 1.942-1.478 2.692 0 1.516 1.336 3.373 3.406 4.735 3.94 2.591 9.737 4.183 17.408 4.778 2.8.218 11.327.081 13.995-.223m-27.47-35.58c.749-.338 1.274-1.11 1.274-1.87 0-.435-1.04-4.825-2.67-11.271-.4-1.576-1.581-6.298-2.628-10.493-3.558-14.262-3.38-13.694-4.445-14.27-.76-.41-1.55-.393-2.294.052-1.257.751-1.304 1.267-.422 4.705 1.68 6.547 6.66 26.41 7.419 29.593.631 2.646.865 3.114 1.769 3.537.85.398 1.15.4 1.997.017m40.722.004c.449-.203.78-.511.981-.915.168-.335 1.39-4.943 2.714-10.24s3.134-12.426 4.018-15.84c2.64-10.19 2.46-9.32 2.084-10.022-.601-1.124-2.08-1.528-3.258-.89-.756.408-1.018.894-1.462 2.712-.203.832-1.145 4.522-2.094 8.2-3.964 15.367-6.187 24.426-6.186 25.203 0 .76.514 1.493 1.277 1.827.786.343 1.103.338 1.926-.035m-9.568-.307c1.109-.6.93.516 4.404-27.516 1.064-8.591 1.082-8.8.776-9.372-.575-1.076-1.814-1.447-3.066-.92-1.106.466-1.224.91-2.038 7.696-.405 3.371-1.34 10.965-2.08 16.876S83.36 83.42 83.348 83.837c-.046 1.619 1.815 2.576 3.372 1.733m-20.984-.164c1.14-.617 1.142-.413-.09-9.939a7968.428 7070.152 0 0 1-2.236-17.541c-.826-6.559-1.203-9.051-1.427-9.43-.34-.573-1.115-.998-1.822-.998-.798 0-1.81.57-2.154 1.214-.411.77-.686-1.741 2.507 22.905.635 4.904 1.25 9.703 1.367 10.667.235 1.942.609 2.804 1.374 3.173.684.329 1.822.306 2.48-.05m10.32.053c.296-.136.695-.476.888-.756.342-.498.35-.934.35-18.024.001-16.78-.013-17.538-.333-18.07-.233-.386-.583-.647-1.155-.858-.793-.294-.85-.295-1.655-.022-.54.183-.954.458-1.176.782-.333.483-.343 1.051-.344 18.107v17.608l.408.538c.705.927 1.907 1.204 3.017.695m12.992-48.307a569 569 0 0 0 8.164-.4c13.988-.803 26.645-2.659 32.027-4.695 2.048-.775 3.5-1.859 3.5-2.615 0-.923-3.557-2.343-8.793-3.51-7.907-1.763-17.952-2.866-32.924-3.618-5.26-.264-26.477-.264-31.849 0-10.11.498-16.273.988-22.428 1.785-4.39.567-9.81 1.518-10.314 1.809-.2.115-.806.301-1.349.414-2.533.53-6.754 2.015-7.58 2.669-1.38 1.091 2.502 3.055 8.554 4.327.88.185 1.688.398 1.794.473.526.371 8.26 1.483 14.996 2.155 13.404 1.338 31.237 1.803 46.202 1.206"/>
</svg>
