<svg xmlns="http://www.w3.org/2000/svg" width="150" height="150">
  <path fill="#cfcfcf" d="M60.207 128.367c-.948-.16-1.44-.457-2.488-1.5-1.047-1.042-.844-.977-4.096-1.302-6-.6-12.063-1.816-16.23-3.257-2.137-.738-5.026-2.146-6.748-3.287-1.898-1.258-4.29-3.681-5.257-5.327-1.462-2.486-2.23-5.744-1.928-8.177.37-2.974 1.37-4.815 3.937-7.245 1.879-1.78 1.919-1.164-.582-9.027-2.162-6.795-5.902-17.457-10.577-30.15-1.556-4.224-5.286-14.115-5.626-14.919-.081-.192.117-.1.662.305 5.574 4.147 17.844 7.723 31.426 9.159 6.796.718 11.568.93 18.956.843 7.444-.088 13.13-.49 19.108-1.347 11.162-1.603 18.232-4.293 22.78-8.67.73-.703 1.328-1.335 1.328-1.405 0-.334-.469-.22-1.375.332-9.543 5.813-34.665 8.973-57.418 7.222-10.9-.838-19.536-2.386-26.777-4.798-10.234-3.41-12.965-8.014-7.263-12.242 7.915-5.868 30.707-9.433 53.925-8.433 10.77.464 20.134 1.751 30.35 4.173 5.132 1.217 7.639 1.568 11.194 1.568 3.52 0 6.061-.383 11.434-1.724 4.344-1.084 5.507-1.284 8.04-1.388 2.442-.1 4.447.156 6.516.833 3.563 1.164 6.661 3.713 8.168 6.719.572 1.14.607 1.28.607 2.44 0 1.419-.17 1.857-.968 2.499-.407.327-.725.447-1.315.496-1.162.097-1.715-.281-3.272-2.236-1.823-2.289-3.023-3.163-5.064-3.687-1.232-.316-3.64-.288-4.993.058-3.998 1.023-8.13 5.03-13.559 13.147-6.757 10.105-13.236 23.46-19.57 40.344-1.847 4.922-4.018 11.536-4.02 12.245-.002.56.08.704.913 1.59 2.671 2.845 4.014 5.93 4.008 9.208-.006 3.753-1.67 6.424-5.607 9.006-3.575 2.344-9.535 4.084-17.335 5.06-1.342.168-2.716.405-3.053.527s-.951.53-1.364.906c-.413.377-1.027.825-1.364.996-1.006.512-3.783.736-5.503.445m4.106-14.358c4.593-.228 8.442-.817 12.216-1.872 3.142-.878 5.085-2.177 5.083-3.399 0-1.001-.71-1.778-2.368-2.596-3.484-1.72-11.952-3.042-19.454-3.038-6.613.003-14.993 1.235-18.594 2.734-1.807.752-2.82 1.923-2.587 2.989.73 3.322 13.061 5.808 25.704 5.182M35.069 95.202c.105-.513.45-1.998.767-3.3 3.282-13.504 8.631-21.231 17.002-24.556 3.638-1.445 8.627-1.942 12.197-1.214 3.496.713 7.042 2.481 9.942 4.958 2.642 2.255 5.699 6.777 7.208 10.66.544 1.4.733 1.652 1 1.33.509-.613-1.561-6.804-3.204-9.581a21.69 21.69 0 0 0-14.965-10.32c-2.176-.38-5.843-.415-8.241-.08-9.394 1.317-16.27 7.282-19.581 16.988-1.466 4.298-2.32 8.48-2.825 13.852-.183 1.942-.14 2.32.258 2.242.182-.035.303-.303.442-.98m12.856.504a1.5 1.5 0 0 0 .304-.49c.134-.425-2.456-12.503-2.775-12.933-.146-.198-.432-.38-.637-.404-.45-.054-.964.41-.963.87 0 .379 2.376 11.732 2.598 12.419.234.72 1.008 1.004 1.473.538m6.553-.07c.158-.159.285-.433.282-.611s-.416-4.389-.917-9.358c-.81-8.024-.942-9.057-1.18-9.231-.396-.29-1.059-.169-1.358.247-.25.348-.241.516.238 5.24.273 2.686.686 6.811.917 9.168.456 4.649.506 4.831 1.322 4.831.225 0 .538-.129.696-.287m6.125-.056.4-.343.056-9.7c.032-5.336.017-9.864-.033-10.063-.11-.435-.625-.943-.957-.943-.132 0-.41.134-.619.298l-.378.297.014 9.86c.008 5.423.06 10.022.114 10.218.086.309.593.71.905.717.055.001.279-.152.498-.34m12.625.233c.29-.194.477-.704.784-2.134.166-.78.75-3.397 1.296-5.815.546-2.42.993-4.627.993-4.908 0-.28-.102-.61-.226-.735-.282-.282-1.118-.294-1.346-.019-.094.114-.78 2.94-1.523 6.282s-1.384 6.212-1.424 6.38c-.157.667.865 1.337 1.446.949m-6.365-.285c.125-.139.265-.413.31-.61s.472-4.074.945-8.615.898-8.546.944-8.902c.07-.532.03-.702-.22-.969-.538-.57-1.319-.355-1.568.43-.16.506-.382 2.411-.954 8.22a587 587 0 0 1-.723 6.879c-.322 2.854-.335 3.176-.134 3.481.27.415 1.06.463 1.4.086"/>
  <path fill="#b2b2b2" d="M60.207 128.367c-.947-.16-1.44-.457-2.481-1.493-1.026-1.02-.999-1.011-3.464-1.239-6.012-.555-12.665-1.869-16.87-3.33-5.538-1.926-9.861-5.033-12.005-8.63-1.457-2.443-2.23-5.718-1.927-8.158.371-2.99 1.39-4.846 4.02-7.326 1.792-1.69 1.846-1.068-.804-9.37-2.005-6.282-4.905-14.572-9.82-28.075-.77-2.115-6.026-16.068-6.242-16.57-.081-.188.125-.091.66.312 5.297 3.992 17.405 7.584 30.57 9.07 14.694 1.658 31.99 1.15 44.067-1.293 8.287-1.677 13.81-4.12 17.633-7.8.73-.702 1.328-1.334 1.328-1.404 0-.343-.481-.206-1.586.452-9.63 5.73-34.645 8.836-57.197 7.101-9.78-.752-17.314-1.996-24.25-4.005-5.558-1.61-9.058-3.286-11.088-5.311-1.174-1.171-1.571-2.01-1.566-3.309.006-1.626.846-2.925 2.853-4.413 5.551-4.116 18.5-7.172 35.261-8.322 3.518-.241 17.813-.242 21.392 0 10.471.705 18.416 1.881 27.926 4.134 4.362 1.034 6.46 1.348 9.69 1.45 4.184.133 6.77-.21 12.635-1.677 4.338-1.085 5.503-1.286 8.04-1.39 2.442-.1 4.447.156 6.516.833 3.563 1.164 6.661 3.713 8.168 6.719.572 1.14.607 1.28.607 2.44 0 1.42-.17 1.857-.968 2.499-.407.327-.725.447-1.315.496-1.162.097-1.715-.281-3.272-2.236-1.823-2.289-3.023-3.163-5.064-3.687-1.232-.316-3.64-.288-4.993.058-3.998 1.023-8.13 5.03-13.559 13.147-6.756 10.104-13.264 23.518-19.571 40.344-1.857 4.953-4.017 11.537-4.02 12.25-.001.554.081.708.766 1.436 2.014 2.138 3.23 4.236 3.846 6.63.396 1.543.423 3.8.06 5.168-1.007 3.801-4.685 6.963-10.445 8.98-3.115 1.09-7.639 2.067-12.247 2.645-1.342.168-2.716.405-3.053.527s-.951.53-1.364.906c-.413.377-1.027.825-1.364.996-1.006.512-3.783.736-5.503.445m4.177-14.358c4.557-.234 8.405-.827 12.145-1.872 3.159-.883 5.084-2.175 5.084-3.413 0-2.07-3.993-3.812-11.055-4.821-3.404-.486-5.262-.643-8.902-.75-7.41-.217-16.895 1.062-20.711 2.792-2.413 1.094-3.038 2.75-1.547 4.097 1.057.955 2.61 1.61 5.676 2.393 5.362 1.369 12.29 1.934 19.31 1.574M35.393 93.767c3.286-14.743 8.704-22.949 17.445-26.421 3.638-1.445 8.627-1.942 12.197-1.214 3.496.713 7.042 2.481 9.942 4.958 2.642 2.255 5.699 6.777 7.208 10.66.544 1.4.733 1.652 1 1.33.504-.607-1.586-6.893-3.173-9.542-3.336-5.57-8.685-9.257-15.038-10.367-2.143-.375-5.832-.407-8.2-.073-7.527 1.063-13.423 5.077-17.263 11.754-1.918 3.334-3.529 8.272-4.415 13.532-.47 2.787-.946 7.255-.81 7.608.05.13.2.217.335.19.19-.036.359-.562.772-2.415m12.532 1.938c.12-.119.256-.34.303-.49.136-.426-2.453-12.504-2.773-12.933-.146-.198-.433-.38-.638-.404-.45-.054-.964.41-.963.87 0 .379 2.376 11.732 2.598 12.419.234.72 1.008 1.004 1.473.538m6.553-.07c.158-.159.285-.433.282-.611s-.416-4.389-.917-9.358c-.797-7.899-.945-9.06-1.171-9.225-.282-.206-.9-.248-1.152-.08-.464.31-.462.665.03 5.563.269 2.684.679 6.81.91 9.166.456 4.649.506 4.831 1.322 4.831.225 0 .538-.129.696-.287m6.125-.056.399-.343.057-9.7c.032-5.336.016-9.864-.033-10.063-.11-.435-.625-.943-.957-.943-.132 0-.41.134-.619.298l-.378.297.014 9.86c.008 5.423.06 10.022.114 10.218.086.309.593.71.905.717.055.001.279-.152.498-.34m12.74.12c.122-.121.289-.46.37-.753.412-1.482 2.588-11.576 2.588-12.004 0-.273-.102-.597-.226-.722-.282-.282-1.118-.294-1.346-.019-.094.114-.78 2.94-1.523 6.282s-1.384 6.212-1.424 6.38c-.178.755 1.008 1.39 1.562.837m-6.48-.173c.124-.139.264-.413.31-.61.046-.198.471-4.074.944-8.615s.898-8.546.944-8.902c.07-.532.03-.702-.22-.969-.538-.57-1.319-.355-1.568.43-.165.518-.378 2.363-1.026 8.867-.24 2.408-.565 5.503-.722 6.877-.258 2.262-.264 2.53-.064 2.835.272.415 1.061.464 1.401.087"/>
  <path fill="#8e8e8e" d="M60.207 128.367c-.947-.16-1.44-.457-2.481-1.493-1.026-1.02-.999-1.011-3.464-1.239-6.012-.555-12.665-1.869-16.87-3.33-5.538-1.926-9.861-5.033-12.005-8.63-1.457-2.443-2.23-5.718-1.927-8.158.371-2.99 1.39-4.846 4.02-7.326 1.788-1.686 1.835-1.104-.735-9.161-2.334-7.321-6.513-19.18-11.51-32.663-1.13-3.049-4.361-11.569-4.62-12.183-.079-.185.094-.109.565.25 5.232 3.994 17.47 7.635 30.663 9.124 13.342 1.505 29.159 1.228 40.888-.716 10.068-1.668 16.587-4.29 20.813-8.372.73-.705 1.328-1.34 1.328-1.41 0-.35-.504-.199-1.718.518-9.593 5.67-34.74 8.775-57.004 7.04-9.69-.755-17.091-1.96-23.905-3.893-5.75-1.632-9.42-3.365-11.494-5.429-1.174-1.168-1.571-2.007-1.566-3.307.006-1.626.846-2.925 2.853-4.413 5.516-4.09 18.654-7.195 35.19-8.318 3.596-.245 17.857-.247 21.463-.004 10.471.705 18.416 1.881 27.926 4.134 4.362 1.034 6.46 1.348 9.69 1.45 4.184.133 6.77-.21 12.635-1.677 4.338-1.085 5.503-1.286 8.04-1.39 4.45-.182 8.173.94 11.226 3.383 2.325 1.86 3.963 4.378 4.101 6.303.112 1.559-.32 2.494-1.408 3.05a2.46 2.46 0 0 1-2.318-.038c-.353-.199-1.06-.938-1.865-1.947-1.39-1.744-2.253-2.52-3.453-3.101-1.194-.579-2.319-.805-3.993-.805-2.544 0-4.191.56-6.525 2.222-6.34 4.512-15.34 18.746-23.287 36.83-4.148 9.438-9.944 25.19-9.949 27.038-.001.467.113.67.766 1.364 1.401 1.488 2.098 2.463 2.816 3.944.954 1.964 1.34 3.508 1.34 5.342 0 3.806-1.656 6.486-5.607 9.077-3.636 2.384-9.945 4.19-17.981 5.148-2.317.277-2.773.444-3.876 1.424-.4.354-.983.776-1.299.936-.967.494-3.772.712-5.463.426m4.177-14.358c4.559-.234 8.117-.774 11.862-1.8 4.169-1.14 6.023-2.7 5.164-4.342-.868-1.663-4.8-3.099-10.852-3.964-7.862-1.124-15.385-1.032-22.972.28-6.603 1.143-9.54 2.726-8.918 4.806.97 3.24 13.343 5.654 25.716 5.02m-28.98-20.3c3.538-15.906 9.872-24.549 19.898-27.154 7.263-1.887 14.148-.25 19.904 4.732 2.461 2.13 5.527 6.726 6.979 10.463.544 1.4.733 1.652 1 1.33.504-.607-1.586-6.893-3.173-9.542-3.336-5.57-8.681-9.255-15.038-10.368-3.014-.527-7.747-.36-10.68.38-5.747 1.448-10.313 4.606-13.588 9.397-2.655 3.885-4.534 9.056-5.61 15.437-.47 2.786-.946 7.255-.81 7.608.05.13.2.217.335.19.191-.036.36-.572.784-2.474m12.52 1.997c.12-.119.256-.34.303-.49s-.502-3.073-1.222-6.495c-1.386-6.582-1.48-6.869-2.245-6.869-.414 0-.908.474-.908.872 0 .458 2.327 11.594 2.6 12.444.232.72 1.007 1.004 1.472.538m6.553-.07c.158-.159.285-.433.282-.611s-.415-4.389-.916-9.358c-.798-7.912-.944-9.058-1.171-9.224-.282-.206-.9-.25-1.153-.08-.464.31-.462.664.03 5.562.269 2.684.679 6.81.91 9.166.456 4.649.506 4.831 1.322 4.831.225 0 .538-.129.696-.287m6.127-.057.4-.344.055-9.702c.03-5.336.015-9.863-.035-10.06-.109-.434-.624-.942-.956-.942-.132 0-.41.134-.619.298l-.378.297.014 9.86c.008 5.423.06 10.022.114 10.218.086.309.593.71.905.717.055.001.28-.153.5-.342m12.739.123c.121-.122.288-.462.37-.754.41-1.482 2.587-11.576 2.587-12.004 0-.665-.332-.974-.986-.919-.39.033-.561.133-.686.402-.092.198-.76 3.04-1.484 6.318a853 853 0 0 1-1.38 6.187c-.035.125.072.4.237.61.343.436.988.513 1.342.16m-6.48-.173c.124-.139.263-.413.31-.61.046-.198.471-4.074.946-8.615.474-4.54.899-8.546.944-8.902.067-.531.028-.703-.223-.969-.537-.57-1.318-.355-1.567.43-.165.518-.378 2.363-1.026 8.867-.24 2.408-.565 5.503-.722 6.877-.258 2.262-.264 2.53-.064 2.835.272.415 1.061.464 1.401.087"/>
  <path fill="#6e6e6e" d="M60.287 128.37c-1.002-.147-1.495-.435-2.568-1.503-1.043-1.038-.84-.972-4.031-1.303-9.907-1.028-17.374-3.037-22.107-5.948-2.644-1.626-4.928-3.817-6.194-5.94-1.457-2.444-2.23-5.72-1.927-8.159.371-2.99 1.39-4.846 4.02-7.326 1.788-1.686 1.835-1.103-.734-9.161-2.038-6.395-4.947-14.726-9.5-27.207-2.203-6.042-5.964-16.042-6.633-17.64-.078-.187.083-.117.548.238 5.257 4.012 17.415 7.634 30.682 9.14 14.659 1.662 31.944 1.154 44.068-1.296 6.794-1.374 11.676-3.253 15.435-5.944 1.22-.873 3.526-3.01 3.526-3.267 0-.332-.493-.213-1.383.334-9.383 5.774-35.012 9.008-57.31 7.23-10.07-.802-17.273-1.982-24.133-3.953-5.68-1.633-9.242-3.326-11.295-5.369-1.174-1.168-1.571-2.007-1.566-3.306.006-1.627.846-2.926 2.853-4.414 5.537-4.105 18.443-7.15 35.261-8.32 3.489-.244 17.771-.244 21.392-.001 10.387.695 17.787 1.783 27.566 4.051 5.212 1.209 6.79 1.445 10.266 1.537 4.269.113 6.397-.184 12.993-1.813 3.852-.951 6.127-1.306 8.37-1.305 6.031.002 11.416 2.96 13.756 7.556.904 1.775.944 3.505.107 4.57-.412.523-1.297.938-2 .938-.965 0-1.608-.48-3.031-2.267-1.848-2.32-2.966-3.134-5.07-3.69-1.225-.323-3.592-.295-4.978.059-4.655 1.19-9.852 6.776-16.44 17.671-3.714 6.141-7.81 14.222-11.243 22.182-4.236 9.82-9.471 24.164-9.476 25.962-.001.467.113.67.766 1.364 1.278 1.357 2.006 2.337 2.636 3.549 2.109 4.056 2.067 8.027-.118 11.215-1.15 1.677-3.857 3.773-6.372 4.933-3.642 1.68-9.226 3.047-15.578 3.812-2.316.279-2.774.447-3.876 1.426-.4.354-.983.776-1.299.936-.964.492-3.552.699-5.383.43zm4.097-14.362c4.646-.24 8.065-.758 11.862-1.798 4.169-1.142 6.023-2.7 5.164-4.343-.872-1.67-4.776-3.095-10.852-3.964-7.715-1.103-15.18-1.031-22.685.217-6.675 1.11-9.83 2.78-9.205 4.87.971 3.24 13.355 5.656 25.716 5.018m-28.98-20.3c3.538-15.904 9.872-24.548 19.898-27.153 7.263-1.887 14.148-.25 19.904 4.732 2.474 2.141 5.55 6.779 7.053 10.636.498 1.278.626 1.446.895 1.177.166-.166.173-.36.041-1.088-.396-2.188-2.042-6.57-3.183-8.474-3.336-5.57-8.681-9.255-15.038-10.368-3.014-.527-7.747-.36-10.68.38-5.747 1.448-10.313 4.606-13.588 9.397-2.66 3.892-4.534 9.047-5.61 15.437-.47 2.788-.946 7.256-.81 7.609.05.13.2.216.335.19.191-.037.36-.573.784-2.475m12.606 1.9c.161-.174.293-.395.293-.493 0-.19-1.065-5.379-2.03-9.89-.615-2.88-.837-3.374-1.513-3.374-.414 0-.908.475-.908.872 0 .458 2.327 11.594 2.6 12.444.252.784 1.032 1.005 1.558.44m6.55-.04c.217-.333.176-.931-.647-9.297-.483-4.918-.928-9.134-.988-9.37-.193-.758-1.39-.88-1.711-.175-.115.253-.032 1.548.335 5.208.268 2.68.677 6.8.908 9.157.463 4.716.497 4.831 1.393 4.831.349 0 .539-.095.71-.355m6.044.01.4-.344.055-9.78c.041-7.3.012-9.883-.114-10.188-.308-.743-1.1-.913-1.658-.356-.188.188-.214 1.473-.202 10.076.008 5.423.06 10.022.114 10.218.086.309.593.71.905.717.055.001.28-.153.5-.342m12.733.128c.29-.29.219-.019 1.616-6.184 1.379-6.09 1.507-6.915 1.13-7.293-.38-.379-1.242-.262-1.456.198-.091.197-.76 3.04-1.484 6.317s-1.345 6.061-1.38 6.187.073.4.238.61c.34.434.987.514 1.336.165m-6.454-.2c.31-.343.339-.556 1.305-9.849.435-4.185.829-7.9.874-8.256.068-.531.029-.703-.222-.969-.537-.57-1.318-.355-1.567.43-.165.518-.378 2.362-1.027 8.867-.24 2.408-.565 5.503-.722 6.877-.257 2.262-.263 2.53-.063 2.835.28.428 1.061.464 1.422.064"/>
  <path fill="#4f4f4f" d="M60.258 128.367c-.894-.13-1.954-.768-2.587-1.555-.586-.73-1.158-.975-2.547-1.094-8.245-.704-16.325-2.528-20.997-4.741-3.891-1.844-7.073-4.5-8.74-7.299-1.436-2.412-2.207-5.62-1.932-8.041.346-3.047 1.373-4.945 4.025-7.446 1.788-1.685 1.835-1.103-.734-9.161-2.17-6.806-5.684-16.834-10.29-29.36-2.284-6.213-5.356-14.353-5.871-15.558-.046-.107.214.032.576.309 2.439 1.861 6.774 3.846 11.515 5.273 8.694 2.615 17.56 4.035 29.29 4.692 3.515.197 14.306.102 18.161-.16 17.47-1.186 27.906-4.27 33.632-9.937.612-.606 1.113-1.158 1.113-1.228 0-.34-.487-.224-1.383.327-7.025 4.323-23.06 7.304-41.33 7.682-8.467.175-18.565-.43-26.738-1.601-10.064-1.443-18.77-4.008-22.982-6.77-1.144-.751-2.493-2.136-2.908-2.987-.519-1.063-.494-2.464.06-3.466.617-1.116 1.181-1.731 2.45-2.672 5.524-4.096 18.528-7.165 35.258-8.32 3.494-.242 17.786-.241 21.392 0 10.443.7 18.531 1.9 27.926 4.141 4.418 1.055 6.427 1.35 9.834 1.444 4.34.12 6.525-.184 13.137-1.824 3.775-.937 6.056-1.291 8.299-1.29 6.097.002 11.518 3.012 13.822 7.673.833 1.686.848 3.425.04 4.453-.412.523-1.297.938-2 .938-.965 0-1.608-.48-3.031-2.267-1.392-1.747-2.35-2.606-3.49-3.132-2.47-1.137-6.011-1.05-8.492.207-4.776 2.42-10.65 9.819-17.346 21.847-2.353 4.227-6.35 12.483-8.707 17.985-4.032 9.411-9.173 23.576-9.173 25.273 0 .533.122.717 1.368 2.04 2.485 2.638 3.955 6.752 3.515 9.834-.208 1.452-.385 2.068-.876 3.04-.847 1.678-2.302 3.197-4.438 4.637-3.758 2.53-9.892 4.316-18.306 5.33-2.238.27-2.703.444-3.805 1.422-.398.354-.982.776-1.298.936-.97.495-3.547.698-5.412.426m4.126-14.36c4.646-.239 8.065-.757 11.862-1.797 4.169-1.142 6.023-2.7 5.164-4.343-.463-.888-1.601-1.622-3.602-2.324-3.858-1.355-9.68-2.21-16.295-2.394-5.763-.16-12.41.508-17.3 1.74-4.23 1.064-6.05 2.41-5.545 4.1.971 3.24 13.355 5.657 25.716 5.019m-28.98-20.3c3.883-17.453 11.104-26.16 23.006-27.74 6.017-.797 11.87 1.056 16.796 5.318 2.474 2.142 5.55 6.78 7.053 10.637.498 1.278.626 1.446.895 1.176.273-.272.065-1.398-.702-3.797-.812-2.54-1.833-4.85-2.792-6.323-4.69-7.194-12.064-10.731-20.991-10.068-3.604.267-6.332.986-9.288 2.445-8.776 4.335-13.592 13.495-15.02 28.574-.181 1.92-.134 2.328.26 2.253.191-.037.36-.573.784-2.475m12.628 1.91c.374-.374.444.087-1.109-7.306-1.293-6.156-1.396-6.46-2.163-6.46-.441 0-.908.483-.908.94 0 .203.064.639.143.97s.629 2.928 1.223 5.77 1.149 5.378 1.232 5.635c.254.78 1.03 1.002 1.582.451m6.527-.052c.218-.332.177-.93-.646-9.296-.483-4.918-.928-9.134-.988-9.37-.123-.485-.638-.742-1.203-.6-.699.175-.706.418-.177 5.642.27 2.674.682 6.79.913 9.148.462 4.716.496 4.831 1.392 4.831.349 0 .54-.095.71-.355m6.046.01.402-.347.053-9.779c.039-7.278.009-9.884-.117-10.188-.307-.741-1.1-.91-1.657-.354-.188.188-.214 1.473-.202 10.076.008 5.423.06 10.022.114 10.218.086.309.593.71.905.717.055.001.28-.153.502-.344m12.737.125c.29-.29.332-.456 1.586-6.096.588-2.645 1.158-5.197 1.267-5.671.248-1.07.107-1.752-.388-1.877-.573-.143-1.004-.009-1.18.37-.093.197-.755 3.007-1.473 6.245s-1.337 6.024-1.376 6.192c-.174.756 1.01 1.39 1.564.837m-6.46-.196c.31-.342.339-.555 1.305-9.848.435-4.185.829-7.9.874-8.256.068-.531.029-.703-.222-.969-.413-.438-1.078-.43-1.372.019-.307.468-.403 1.17-1.075 7.842a907 907 0 0 1-.87 8.313c-.256 2.262-.262 2.53-.062 2.835.28.428 1.061.463 1.422.064"/>
  <path fill="#2f2f2f" d="M60.258 128.367c-.907-.133-1.956-.77-2.616-1.592-.59-.733-1.059-.93-2.518-1.056-2.14-.184-6.738-.795-8.758-1.163-8.884-1.617-14.55-4.008-18.498-7.805-1.808-1.74-2.958-3.553-3.744-5.906-.637-1.91-.859-3.628-.666-5.162.401-3.202 1.353-4.976 4.022-7.492 1.254-1.182 1.298-1.245 1.298-1.857 0-1.713-3.925-13.56-10.411-31.425-2.959-8.148-7.056-19.099-7.782-20.797-.046-.107.214.032.576.309 5.264 4.017 17.406 7.634 30.682 9.139 18.324 2.076 39.832.738 51.328-3.194 3.132-1.07 5.386-2.155 7.68-3.696 1.897-1.273 4.153-3.397 3.953-3.722-.146-.236-.255-.194-1.66.636-8.325 4.92-29.004 8.059-48.918 7.426-13.015-.413-23.313-1.805-32.186-4.35-6.962-1.996-11.245-4.385-12.525-6.986-.43-.875-.461-2.434-.063-3.192.964-1.833 2.66-3.233 5.755-4.749 6.467-3.167 18.05-5.517 31.805-6.454 3.715-.252 13.894-.338 18.377-.154 11.314.465 20.63 1.744 31.443 4.32 4.329 1.03 6.153 1.296 9.547 1.391 4.366.123 6.856-.22 13.137-1.805 3.657-.922 5.102-1.164 7.538-1.263 5.535-.224 10.296 1.752 13.297 5.518 1.196 1.501 1.87 2.938 1.958 4.174.112 1.555-.322 2.492-1.408 3.046a2.46 2.46 0 0 1-2.318-.037c-.353-.199-1.06-.938-1.865-1.947-1.392-1.747-2.35-2.607-3.49-3.132-2.47-1.136-6.008-1.05-8.492.206-4.272 2.161-9.353 8.225-15.299 18.258-3.914 6.606-8.777 16.613-12.4 25.516-3.183 7.822-7.252 19.138-7.48 20.8-.124.908 0 1.18 1.047 2.284 3.672 3.874 4.866 9.262 2.914 13.154-.818 1.631-2.545 3.427-4.564 4.747-3.897 2.548-10.666 4.433-19.257 5.363-1.114.12-1.756.423-2.728 1.287-.4.354-.983.776-1.299.936-.97.495-3.547.698-5.412.426m4.7-14.376c3.98-.21 7.689-.795 11.288-1.781 4.169-1.142 6.023-2.7 5.164-4.343-.65-1.244-2.786-2.274-6.617-3.19-5.31-1.27-13.241-1.856-19.31-1.427-7.924.56-14.124 1.954-15.99 3.596-2.183 1.922-.402 3.965 4.672 5.355 5.862 1.607 12.854 2.209 20.794 1.79M35.405 93.708C39.347 75.982 46.782 67.221 59 65.905c5.613-.605 11.309 1.221 15.865 5.087 2.698 2.29 5.831 6.92 7.394 10.931.502 1.289.625 1.447.906 1.166.18-.18.186-.345.039-1.095-.263-1.334-1.25-4.317-2.032-6.14-1.94-4.523-5.572-8.38-10.008-10.631-2.466-1.252-5.077-2.03-7.498-2.237-2.566-.218-3.122-.228-4.97-.083-3.665.287-6.345.992-9.315 2.45-8.753 4.3-13.592 13.506-15.02 28.577-.181 1.92-.134 2.329.26 2.253.191-.037.36-.573.784-2.475m12.628 1.91c.374-.374.444.087-1.109-7.306-1.293-6.156-1.396-6.46-2.163-6.46-.424 0-.908.477-.908.897 0 .354.01.403 1.448 7.214.55 2.606 1.067 4.947 1.15 5.204.254.78 1.03 1.002 1.582.451m6.527-.052c.218-.332.177-.93-.646-9.296-.483-4.918-.928-9.134-.988-9.37-.194-.763-1.39-.879-1.715-.166-.12.264-.025 1.657.412 5.997.312 3.11.723 7.226.912 9.148.38 3.858.44 4.042 1.316 4.042.349 0 .539-.095.71-.355m6.045.01.403-.346.052-9.703c.03-5.336.013-9.863-.037-10.06-.116-.463-.632-.938-1.019-.938-.167 0-.446.132-.619.293l-.314.292.014 9.865c.008 5.426.06 10.027.114 10.223.086.309.593.71.905.717.055.001.28-.153.502-.344m12.792.059c.17-.182.41-.96.655-2.118.214-1.007.828-3.768 1.366-6.137.992-4.368 1.054-4.95.56-5.264-.296-.189-1.066-.136-1.25.084-.13.158-2.453 10.108-2.923 12.526-.185.952.949 1.6 1.592.909m-6.541-.108c.12-.138.257-.38.303-.538s.44-3.744.879-7.968c.438-4.225.86-8.193.94-8.817.187-1.49.188-1.475-.145-1.808-.403-.402-1.084-.375-1.366.055-.301.46-.404 1.191-1.002 7.124a1043 1043 0 0 1-.87 8.312c-.324 2.924-.336 3.247-.135 3.554.272.416 1.063.465 1.396.086"/>
  <path d="M60.344 128.37c-1.032-.18-1.692-.562-2.632-1.52-.962-.982-.984-.99-3.306-1.21-8.782-.832-16.214-2.609-21.048-5.033-2.713-1.36-5.689-3.738-7.14-5.705-1.997-2.709-3.111-6.458-2.754-9.271.397-3.132 1.383-4.958 4.022-7.446 1.763-1.662 1.792-1.184-.506-8.437-2.078-6.562-4.667-14.022-8.945-25.772-2.482-6.817-6.765-18.272-7.214-19.293-.152-.345-.277-.652-.277-.68 0-.03.288.166.639.434 5.751 4.39 19.303 8.158 34.106 9.482 4.965.444 8.025.563 14.43.56 9.566-.003 15.707-.442 23.04-1.645 9.41-1.545 15.615-3.907 20.053-7.633 1.602-1.345 2.38-2.402 1.77-2.402-.072 0-.603.287-1.18.638-6.642 4.032-20.82 6.835-38.228 7.557-3.634.151-11.443.105-14.573-.086-12.606-.769-20.873-2.017-29.066-4.39-2.826-.817-4.434-1.43-6.755-2.571-3.154-1.551-4.961-3.14-5.459-4.8-.396-1.318-.232-2.173.677-3.535.886-1.326 2.487-2.524 5.069-3.794 6.695-3.291 17.584-5.508 32.232-6.562 3.345-.24 17.99-.24 21.392.002 11.036.784 18.465 1.888 28.069 4.172 4.854 1.154 7.065 1.453 10.752 1.453 3.552 0 6.341-.418 11.48-1.72 3.81-.966 5.673-1.29 7.99-1.391 4.997-.219 9.226 1.291 12.34 4.405 2.81 2.811 3.798 5.931 2.427 7.674-.412.523-1.297.938-2 .938-.946 0-1.597-.478-2.923-2.146-1.908-2.4-2.745-3.05-4.747-3.684-2.167-.686-5.257-.418-7.343.637-1.132.572-2.982 1.913-4.117 2.982-3.01 2.838-6.696 7.827-10.755 14.559-3.299 5.472-7.646 14.104-10.917 21.68-3.569 8.262-8.658 21.975-9.41 25.357-.18.802.026 1.236 1.104 2.334 3.994 4.069 4.974 10.318 2.226 14.195-3.19 4.502-9.905 7.286-21.017 8.716-3.272.42-3.74.573-4.87 1.576-.405.36-.983.78-1.283.933-.932.475-3.809.713-5.353.442m4.184-14.359c5.003-.27 9.404-1.004 12.923-2.153 2.585-.845 4.162-2.016 4.162-3.09 0-1.668-1.934-2.87-6.469-4.019-5.111-1.296-13.475-1.934-19.661-1.5-7.877.552-14.124 1.955-15.98 3.588-.767.676-1.03 1.242-.898 1.94.634 3.382 13.21 5.922 25.923 5.234M35.056 95.274c.392-1.86 1.095-4.686 1.63-6.555 4.074-14.224 11.227-21.58 22.17-22.802 5.188-.578 10.11.767 14.629 3.998 3.423 2.447 6.823 7.082 8.706 11.864.545 1.385.678 1.573.949 1.349.269-.224.25-.463-.161-2.046-.42-1.615-.976-3.25-1.717-5.045-1.872-4.54-5.59-8.52-10.117-10.828-2.718-1.386-5.055-2.025-8.46-2.313-5.564-.472-11.375.937-15.662 3.796-6.41 4.273-10.201 11.227-11.987 21.979-.44 2.648-.886 6.967-.756 7.308.053.138.208.23.345.203.177-.034.302-.298.43-.908m19.52.27c.205-.314.15-1.074-.675-9.422-.493-4.994-.97-9.242-1.059-9.44-.273-.608-1.347-.57-1.633.058-.126.276.037 2.309.755 9.444.503 5 .956 9.196 1.005 9.324.227.584 1.233.606 1.607.036m-6.558.09c.158-.158.287-.368.287-.466 0-.288-.343-1.996-1.507-7.501-1.156-5.468-1.278-5.816-2.036-5.816-.435 0-.908.482-.908.925 0 .395 2.364 11.667 2.599 12.39.25.771 1.029 1.004 1.565.468m12.719-.113c.265-.362.372-4.744.32-13.068l-.046-7.366-.359-.276c-.466-.358-.874-.354-1.268.013l-.317.296.04 10.126.038 10.126.35.284c.394.32.954.259 1.242-.135m12.663.113c.17-.182.41-.96.655-2.118.213-1.006.828-3.768 1.366-6.137 1.16-5.102 1.151-5.445-.123-5.35-.374.028-.544.129-.67.397-.093.197-.756 3.007-1.475 6.245l-1.374 6.192c-.18.809 1.044 1.39 1.62.771m-6.505-.14c.306-.338.36-.75 1.44-11.083.433-4.159.75-7.666.7-7.793-.223-.58-1.223-.688-1.564-.168-.308.47-.41 1.205-1.068 7.698-.316 3.12-.706 6.862-.866 8.316-.262 2.386-.27 2.677-.071 2.98.282.43 1.06.458 1.43.05M51.7 85.405c-.04-.098-.072-.017-.072.18 0 .198.033.278.072.18s.04-.26 0-.36"/>
</svg>
