<svg xmlns="http://www.w3.org/2000/svg" width="150" height="150">
  <path fill="#a0a0a0" d="M44.994 133.084c-1.023-.272-2.5-1.609-2.91-2.632-.24-.601-.37-1.855-.466-4.509l-.133-3.676-7.509-.061c-8.49-.068-8.335-.04-9.534-1.747-1.153-1.64-.61-4.182 1.142-5.342l.853-.564 53.116-.052c51.974-.052 53.133-.044 53.88.34 1.602.824 2.418 2.24 2.257 3.916-.124 1.287-.895 2.48-1.936 2.997-.725.36-1.396.396-8.31.452l-7.522.06-.074 3.736c-.082 4.143-.225 4.701-1.54 6.016-1.391 1.391.827 1.313-36.68 1.29-21.562-.014-34.149-.095-34.634-.224m.472-22.138c-1.88-.372-3.51-2.02-3.907-3.95-.12-.583-.402-3.278-.627-5.986-.225-2.709-.517-6.202-.648-7.763l-.238-2.838-2.48-1.994-7.816-6.279c-11.598-9.316-14.697-11.872-15.5-12.784-2.948-3.35-4.306-7.29-4.035-11.703A15.9 15.9 0 0 1 19.25 44.29c2.945-1.402 3.621-1.507 10.296-1.597 3.273-.045 6.047-.113 6.164-.151.147-.049.135-.866-.039-2.608-.139-1.395-.258-2.836-.265-3.202l-.012-.666 44.323-.052c24.378-.03 44.324-.016 44.324.028s-.276 3.276-.614 7.182-.704 8.21-.815 9.564-.294 3.524-.408 4.822c-.283 3.232-1.191 14.105-2.783 33.31-.94 11.341-1.433 16.399-1.65 16.919-.523 1.252-1.267 2.04-2.501 2.645l-1.182.58-33.858.031c-18.667.017-34.264-.05-34.764-.149m-6.173-30.349c0-.11-.6-6.91-1.334-15.11-.733-8.2-1.334-15.129-1.334-15.395v-.485h-5.502c-3.053 0-6.045.099-6.72.222-1.839.335-3.597 1.29-4.912 2.669-3.478 3.646-3.329 9.052.35 12.627.71.69 5.078 4.282 9.705 7.98s8.642 6.943 8.922 7.209c.54.514.825.612.825.283m-8.91-49.067c-1.868-.304-3.403-2.21-3.403-4.225 0-1.43.358-2.247 1.39-3.18.97-.875 1.914-1.186 3.637-1.2.678-.006 1.555-.13 1.95-.275s2.842-1.541 5.438-3.103 5.273-3.097 5.95-3.412c2.736-1.275.744-1.205 34.474-1.205 33.841 0 31.776-.076 34.424 1.254.704.354 3.405 1.91 6 3.458s5.034 2.921 5.418 3.052c.383.131 1.203.238 1.823.238 1.522 0 2.559.343 3.518 1.164 2.141 1.833 1.843 5.385-.578 6.891l-.741.461-49.27.103c-27.098.056-49.612.047-50.03-.021"/>
  <path fill="#6f6f6f" d="M44.994 133.084c-1.017-.27-2.5-1.607-2.904-2.618-.233-.582-.367-1.884-.466-4.518l-.139-3.7-7.099-.001c-4.25 0-7.405-.086-7.861-.213-3.047-.846-3.63-5.136-.941-6.916l.853-.565 53.116-.052c51.918-.052 53.134-.044 53.88.339 2.215 1.136 2.958 3.729 1.639 5.722-1.03 1.557-1.14 1.576-9.628 1.644l-7.522.06-.074 3.736c-.082 4.143-.225 4.701-1.54 6.016-1.391 1.391.827 1.313-36.68 1.29-21.562-.014-34.149-.095-34.634-.224m.588-22.13c-1.947-.33-3.624-1.983-4.015-3.957-.116-.584-.45-3.925-.744-7.424-.293-3.498-.596-7-.673-7.781l-.14-1.42-11.696-9.385c-6.433-5.161-12.395-10.063-13.248-10.892-3.514-3.413-5.114-7.461-4.851-12.276.318-5.836 3.637-10.863 8.865-13.427 3.07-1.506 3.697-1.608 10.465-1.7 3.273-.044 6.047-.112 6.164-.15.147-.049.135-.866-.039-2.608-.139-1.395-.258-2.836-.265-3.202l-.012-.666 44.332-.052 44.332-.053-.113 1.026c-.061.565-.389 4.397-.728 8.516-.34 4.12-.755 9.06-.925 10.978s-.674 7.921-1.122 13.338c-2.881 34.852-3.1 37.307-3.4 38.023-.522 1.25-1.267 2.037-2.5 2.642l-1.182.58-33.755.03c-18.565.015-34.203-.047-34.75-.14m-6.379-31.542c-.12-1.27-1.053-11.744-2.195-24.624l-.46-5.18h-5.594c-3.28 0-6.045.093-6.683.225-2.674.556-5.36 2.626-6.421 4.95-1.651 3.613-.897 7.534 1.99 10.344.71.692 5.078 4.283 9.705 7.98s8.642 6.94 8.922 7.206c.28.267.589.485.687.485s.121-.624.05-1.386m-10.29-48.528c-1.276-.863-1.935-2.082-1.935-3.58 0-1.43.358-2.247 1.39-3.18.984-.887 1.924-1.19 3.695-1.192.71 0 1.587-.126 1.95-.28.363-.153 2.784-1.552 5.38-3.11s5.273-3.09 5.95-3.406c2.73-1.277.755-1.208 34.284-1.208 19.847 0 30.995.074 31.712.209 1.56.294 3.423 1.227 8.328 4.17 5.796 3.48 6.101 3.624 7.66 3.624 1.675 0 2.689.321 3.673 1.164 2.135 1.828 1.872 5.212-.531 6.839l-.758.513-49.905.053-49.905.052z"/>
  <path fill="#4f4f4f" d="M45.108 133.093c-1.082-.243-2.586-1.547-3.013-2.614-.226-.565-.364-1.91-.465-4.518l-.143-3.713h-7.12c-7.467 0-7.953-.05-9.154-.94-1.95-1.447-1.75-4.786.37-6.19l.854-.565 53.116-.052c51.918-.052 53.134-.044 53.88.339 2.215 1.135 2.958 3.729 1.639 5.722-1.03 1.557-1.14 1.576-9.628 1.644l-7.522.06-.074 3.736c-.082 4.143-.225 4.701-1.54 6.016-1.391 1.39.816 1.313-36.578 1.289-20.06-.013-34.115-.1-34.622-.214m.474-22.147c-1.938-.313-3.623-1.97-4.015-3.95-.116-.583-.45-3.924-.744-7.423s-.596-7-.673-7.781l-.14-1.42-11.696-9.385c-6.433-5.161-12.395-10.063-13.248-10.892-3.514-3.413-5.114-7.461-4.851-12.276.317-5.823 3.649-10.869 8.865-13.427 3.09-1.516 3.672-1.609 10.713-1.709l6.198-.089-.09-.546c-.124-.736-.508-4.91-.508-5.507v-.477h88.652l-.098.77c-.053.423-.148 1.462-.21 2.308s-.389 4.817-.729 8.824-1.076 12.825-1.637 19.596-1.161 13.928-1.333 15.903-.683 8.1-1.136 13.612c-.56 6.823-.92 10.257-1.132 10.762-.523 1.252-1.267 2.04-2.501 2.645l-1.182.58-33.755.022c-18.565.011-34.203-.052-34.75-.14m-6.379-31.534c-.12-1.27-1.053-11.744-2.195-24.624l-.46-5.18-5.656.002c-6.27.004-7.49.164-9.353 1.23-.582.333-1.54 1.115-2.129 1.738-3.257 3.444-3.203 8.943.12 12.287.542.546 4.91 4.136 9.707 7.978s8.95 7.204 9.23 7.47c.28.267.589.485.687.485s.12-.624.05-1.386M29.22 31.074c-1.313-.693-2.09-1.896-2.2-3.4-.116-1.61.208-2.49 1.282-3.48 1.03-.95 1.957-1.26 3.762-1.261.71-.001 1.587-.127 1.95-.28s2.784-1.553 5.38-3.11 5.273-3.09 5.95-3.407c2.73-1.277.755-1.207 34.284-1.207 19.847 0 30.995.073 31.712.208 1.581.298 3.392 1.213 8.678 4.386 2.565 1.539 4.991 2.936 5.393 3.103s1.285.305 1.964.305c1.629 0 2.649.328 3.626 1.164 1.043.893 1.533 2.157 1.41 3.64-.11 1.331-.72 2.338-1.908 3.15l-.821.562-49.778.053-49.778.052z"/>
  <path fill="#363636" d="M45.072 133.086c-1.17-.261-2.776-1.787-3.088-2.932-.122-.448-.284-2.41-.36-4.36l-.138-3.546h-7.12c-7.466 0-7.952-.05-9.153-.94-1.95-1.447-1.75-4.786.37-6.19l.854-.565 53.116-.052c51.918-.052 53.134-.044 53.88.339 2.215 1.135 2.958 3.729 1.639 5.722-1.03 1.557-1.14 1.576-9.628 1.644l-7.522.06-.075 3.736c-.084 4.122-.236 4.695-1.608 6.067-1.332 1.331.715 1.262-36.508 1.238-20.93-.014-34.108-.098-34.659-.22m.583-22.168a4.95 4.95 0 0 1-4.088-3.922c-.116-.584-.45-3.925-.742-7.423s-.595-7.001-.673-7.783l-.142-1.422-11.696-9.384c-6.433-5.162-12.395-10.062-13.248-10.89-3.513-3.41-5.114-7.46-4.851-12.276.381-7.003 5.12-12.777 12.045-14.68 1.102-.304 2.412-.383 7.533-.456l6.198-.088-.09-.547c-.124-.736-.508-4.91-.508-5.507v-.477h88.652l-.098.77c-.053.423-.148 1.462-.21 2.308s-.48 5.88-.93 11.184a9157 9157 0 0 0-1.636 19.596 4300 4300 0 0 1-1.131 13.543 4588 4588 0 0 0-1.644 19.763c-.412 5.09-.867 6.147-3.127 7.257l-1.182.58-33.652.014c-18.51.007-34.16-.064-34.78-.16m-6.452-31.506c-.12-1.27-1.053-11.744-2.195-24.624l-.46-5.182-5.656.003c-6.177.004-7.44.162-9.28 1.164-1.321.719-3.15 2.667-3.762 4.008-1.57 3.435-.893 7.494 1.68 10.083.542.546 4.91 4.136 9.707 7.978s8.95 7.204 9.23 7.47c.28.267.589.485.687.485s.12-.624.05-1.385m-9.986-48.34c-1.31-.692-2.088-1.896-2.197-3.4-.116-1.61.208-2.488 1.282-3.478 1.027-.948 1.957-1.26 3.742-1.262.698-.001 1.524-.099 1.835-.217s2.824-1.56 5.583-3.205 5.488-3.205 6.065-3.469c2.562-1.17.844-1.113 34.1-1.113 19.848 0 30.996.073 31.713.208 1.567.295 3.32 1.182 8.679 4.388 2.586 1.547 5.021 2.946 5.412 3.11.39.163 1.265.296 1.943.296 1.587 0 2.61.315 3.554 1.092 2.407 1.984 1.87 5.824-1.006 7.189-.656.31-4.673.338-50.257.338H30.123Z"/>
  <path fill="#272727" d="M45.062 133.084c-1.156-.258-2.774-1.814-3.08-2.963-.117-.437-.276-2.386-.354-4.333l-.142-3.54H34.53c-7.857 0-8.445-.075-9.6-1.23-1.81-1.81-1.249-5.007 1.076-6.132l.9-.436H79.79c51.58 0 52.904.01 53.647.39 2.212 1.135 2.954 3.73 1.636 5.722-1.03 1.557-1.14 1.576-9.628 1.644l-7.522.06-.075 3.736c-.084 4.146-.231 4.69-1.633 6.06-1.37 1.34.724 1.269-36.484 1.245-21.172-.014-34.104-.097-34.668-.223m.82-22.164c-2.212-.244-3.89-1.77-4.314-3.923-.115-.584-.448-3.925-.742-7.424s-.596-7-.674-7.782l-.142-1.421-11.696-9.386C21.88 75.822 15.919 70.92 15.066 70.093c-3.512-3.406-5.114-7.459-4.851-12.274.38-6.97 5.039-12.689 11.918-14.63 1.274-.359 2.255-.423 7.66-.503l6.198-.092-.09-.546c-.124-.736-.508-4.91-.508-5.507v-.477h88.652l-.098.77c-.053.423-.148 1.462-.21 2.308s-.48 5.879-.93 11.183a9853 9853 0 0 0-1.638 19.597 6920 6920 0 0 1-1.232 14.774 4486 4486 0 0 0-1.542 18.532c-.41 5.09-.865 6.146-3.126 7.256l-1.182.58H80.64c-18.396 0-34.037-.064-34.757-.144m-6.68-31.508c-.12-1.27-1.053-11.744-2.195-24.624l-.46-5.18-5.656.002c-7.646.004-8.973.341-11.41 2.896-1.373 1.44-2.058 2.86-2.381 4.937a8.65 8.65 0 0 0 2.43 7.422c.541.546 4.91 4.136 9.706 7.978s8.95 7.204 9.23 7.47c.28.267.589.485.687.485s.12-.624.05-1.386m-9.986-48.34c-1.31-.692-2.088-1.895-2.197-3.398-.116-1.61.208-2.49 1.282-3.48 1.03-.95 1.956-1.26 3.762-1.262.71 0 1.587-.125 1.95-.277s2.861-1.593 5.552-3.2 5.369-3.142 5.951-3.408c2.574-1.176.83-1.119 34.19-1.116 33.66.004 31.933-.058 34.494 1.235.682.344 3.328 1.874 5.88 3.399s4.96 2.906 5.35 3.07 1.265.296 1.943.296c1.726 0 2.77.368 3.767 1.328 2.18 2.1 1.56 5.634-1.22 6.953-.655.31-4.672.338-50.256.338H30.123Z"/>
  <path fill="#171717" d="M45.062 133.085c-1.157-.26-2.774-1.816-3.08-2.964-.117-.437-.276-2.386-.354-4.333l-.142-3.54H34.53c-7.857 0-8.445-.075-9.6-1.23-1.81-1.81-1.249-5.007 1.076-6.132l.9-.436H79.79c51.58 0 52.904.01 53.647.39 2.212 1.135 2.954 3.73 1.636 5.722-1.03 1.557-1.14 1.576-9.628 1.644l-7.522.06-.075 3.736c-.068 3.327-.124 3.826-.512 4.56q-.828 1.563-2.282 2.286c-.73.363-2.172.38-34.926.409-21.773.02-34.492-.043-35.065-.172m.82-22.165c-1.464-.161-2.54-.75-3.379-1.849-.974-1.278-.917-.88-2.101-14.494l-.363-4.175-5.658-4.557a8855 8855 0 0 0-11.505-9.249c-8.968-7.194-9.451-7.671-11.076-10.931-1.24-2.49-1.534-3.829-1.536-7.03-.002-2.328.074-3.013.475-4.3 1.748-5.597 5.81-9.57 11.394-11.145 1.274-.36 2.255-.424 7.653-.504l6.191-.091-.083-.65c-.166-1.283-.5-4.882-.5-5.376v-.505h88.65l-.097.77a59 59 0 0 0-.21 2.308c-.063.847-.482 5.879-.931 11.183s-1.186 14.123-1.638 19.597a6959 6959 0 0 1-1.231 14.774 4533 4533 0 0 0-1.542 18.532c-.41 5.078-.868 6.15-3.102 7.242l-1.157.567-33.472.013c-18.41.008-34.06-.05-34.781-.13m-6.67-31.405c-.07-.705-.45-4.976-.846-9.49s-.854-9.686-1.02-11.492a2205 2205 0 0 1-.548-6.104l-.248-2.822-5.658.003c-7.647.004-8.974.341-11.41 2.896-1.374 1.44-2.06 2.86-2.382 4.937a8.65 8.65 0 0 0 2.43 7.422c.541.546 4.91 4.136 9.706 7.978s8.95 7.204 9.23 7.47c.28.267.59.485.69.485s.126-.576.056-1.283m-9.995-48.443c-1.31-.692-2.088-1.895-2.197-3.398-.116-1.61.208-2.49 1.282-3.48 1.03-.95 1.956-1.26 3.762-1.262.71 0 1.587-.125 1.95-.277s2.861-1.593 5.552-3.2 5.369-3.142 5.951-3.408c2.574-1.176.83-1.119 34.19-1.116 33.67.004 31.932-.059 34.502 1.238.685.347 3.318 1.87 5.85 3.387s4.937 2.897 5.343 3.067 1.294.308 1.972.308c1.726 0 2.77.368 3.767 1.328 2.18 2.1 1.56 5.634-1.22 6.953-.655.31-4.672.338-50.256.338H30.123Z"/>
  <path d="M45.271 133.11c-1.076-.214-2.112-.965-2.834-2.055-.456-.689-.556-1.134-.698-3.112a76 76 0 0 1-.178-4.002l-.012-1.693-7.028-.001c-4.441 0-7.33-.084-7.849-.225-3.21-.877-3.839-4.975-1.059-6.902l.819-.567 53.119-.052c51.92-.052 53.136-.044 53.882.339 3.27 1.677 2.963 6.225-.484 7.183-.508.14-3.427.223-7.915.224l-7.111.001-.076 3.745c-.068 3.336-.124 3.835-.512 4.568q-.827 1.564-2.282 2.287c-.73.363-2.168.38-34.824.408-18.734.017-34.466-.05-34.958-.147m.658-22.184c-1.434-.158-2.623-.801-3.426-1.854-.976-1.28-.94-1.044-1.981-13.294-.235-2.765-.459-5.122-.497-5.238s-1.904-1.69-4.146-3.497a8608 8608 0 0 0-17.312-13.918c-4.512-3.598-5.95-5.29-7.282-8.57-1.176-2.895-1.43-6.874-.631-9.92 1.31-4.995 5.455-9.43 10.318-11.036 2.507-.83 3.856-.964 9.637-.966l5.374-.002-.087-.666c-.166-1.28-.503-4.894-.503-5.395v-.505h88.627l-.101.975c-.105 1.01-1.352 15.908-2.76 32.986-.446 5.417-.996 12.02-1.222 14.671a4014 4014 0 0 0-1.543 18.57c-.272 3.403-.38 4.039-.844 4.992a5 5 0 0 1-2.854 2.501c-.777.257-66.511.415-68.767.166m-6.637-30.343c0-.174-1.273-14.587-2.265-25.64-.106-1.185-.254-2.87-.327-3.744l-.135-1.59-5.664.002c-6.21.004-7.44.16-9.329 1.183-2.384 1.291-4.089 3.829-4.49 6.684a8.79 8.79 0 0 0 2.44 7.395c.533.542 4.577 3.879 8.985 7.416s8.569 6.892 9.246 7.455c1.277 1.061 1.539 1.204 1.539.839m-10.074-49.51c-1.353-.714-2.098-1.9-2.2-3.502-.1-1.568.257-2.455 1.405-3.492.932-.842 1.893-1.144 3.642-1.146.71 0 1.593-.128 1.964-.283.372-.155 2.872-1.596 5.557-3.202s5.356-3.137 5.936-3.402c2.57-1.174.832-1.117 34.186-1.114 33.67.004 31.932-.059 34.502 1.238.685.346 3.318 1.87 5.85 3.387s4.937 2.897 5.343 3.066 1.294.309 1.972.309c1.76 0 2.789.37 3.78 1.36 2.156 2.153 1.541 5.604-1.232 6.92-.656.311-4.673.338-50.257.338H30.123Z"/>
</svg>
