<svg xmlns="http://www.w3.org/2000/svg" width="150" height="150">
  <path fill="#adadad" d="M51.66 135.129c-2.67-.563-5.184-2.522-6.393-4.982-.9-1.832-.97-2.318-1.091-7.49-.101-4.313-.143-4.857-.512-6.609-.862-4.1-2.22-7.875-4.333-12.043-1.604-3.166-2.572-4.81-4.925-8.371-3.797-5.745-7.31-9.862-10.757-12.602-1.168-.928-1.402-1.25-1.334-1.82.073-.61.649-.887 2.69-1.293 1.05-.21 2.688-.55 3.64-.758l1.732-.377.65.347c.603.321 4 4.097 11.778 13.087l1.365 1.578v-5.139h61.244V85.72H44.14l.057-1.726c.064-1.946.286-2.61 1.056-3.16l.46-.328 28.639-.042c15.751-.023 28.851-.004 29.112.043.934.167 1.549 1.014 1.864 2.57l.074.367 4.522.018c3.752.016 4.697.062 5.55.273a10.02 10.02 0 0 1 7.359 7.539c.328 1.477.244 2.541-.663 8.398-1.984 12.807-2.063 13.23-2.687 14.452-.421.826-1.65 2.076-2.544 2.587-.42.24-3.201 1.323-6.181 2.406l-5.418 1.97-.085 3.428c-.079 3.202-.11 3.5-.466 4.506-.86 2.423-2.416 4.2-4.583 5.234-.73.349-1.658.716-2.062.817-1.137.284-45.147.338-46.483.057m60.435-23.522c1.805-.916 1.82-.96 3.028-8.75.553-3.569 1.007-6.966 1.008-7.549.005-1.89-.743-3.267-2.221-4.086l-.787-.435h-3.818c-2.1 0-3.835.05-3.855.11s-.037 5.321-.037 11.69v11.582l2.9-1.058c1.596-.581 3.298-1.258 3.782-1.504M49.311 76.561c-2.248-.612-4.086-2.362-4.835-4.605-.303-.905-.305-1.078-.305-19.056V34.757h61.169v3.158l4.994.073c4.67.07 5.048.095 5.838.393 2.57.972 4.657 3.237 5.458 5.923.32 1.07 1.748 17.955 1.616 19.092-.122 1.05-.56 2.364-1.046 3.133-.912 1.443-2.76 2.748-4.551 3.214-.506.132-2.351.184-6.507.186l-5.802.003-.036.367c-.177 1.756-.742 3.054-1.832 4.206-.91.963-1.822 1.554-3.01 1.95-.911.305-.982.306-25.702.296-19.078-.007-24.94-.051-25.45-.19zm64.787-13.132c1.307-.644 2.207-1.817 2.468-3.218.089-.473-.02-2.662-.356-7.168-.526-7.044-.545-7.145-1.493-8.025-.993-.92-1.076-.935-5.411-.935h-3.966l-.037 9.886-.038 9.885 4.077-.045c3.898-.044 4.106-.06 4.756-.38M44.172 31.122c.003-1.159 1.134-2.768 2.276-3.236.4-.163 8.343-2.005 19.606-4.544 2.382-.538 4.358-.997 4.39-1.02s-.48-1.55-1.138-3.392c-1.428-3.998-1.492-4.494-.672-5.267l.525-.495h5.43c5.96 0 6.07.015 6.516.876.386.747.255 1.41-.952 4.796-.646 1.814-1.175 3.35-1.175 3.413 0 .13-.056.116 12.337 2.969 4.887 1.125 9.513 2.194 10.28 2.376.9.213 1.626.486 2.044.77.75.51 1.418 1.598 1.609 2.618l.128.687H44.17Z"/>
  <path fill="#8f8f8f" d="M51.66 135.123c-2.677-.563-5.183-2.513-6.393-4.976-.896-1.824-.967-2.315-1.098-7.563-.106-4.294-.156-4.947-.492-6.501-1.487-6.877-4.022-12.472-9.265-20.45-3.685-5.606-7.323-9.866-10.763-12.601-1.168-.928-1.402-1.25-1.334-1.82.073-.61.649-.887 2.69-1.293 1.05-.21 2.688-.55 3.64-.758l1.732-.377.651.347c.606.323 3.647 3.702 11.776 13.087l1.367 1.578v-5.13l20.524.004c11.289.001 25.068 0 30.622-.005l10.097-.008V85.72H44.14l.057-1.726c.064-1.946.286-2.61 1.056-3.16l.46-.328h58.012l.48.342c.573.41.912 1.02 1.04 1.875l.095.63 4.623.083c3.51.064 4.853.14 5.58.319 4.49 1.1 7.746 5.42 7.452 9.883-.107 1.622-2.676 18.076-2.986 19.12a10 10 0 0 1-.528 1.37c-.419.822-1.65 2.073-2.542 2.583-.42.24-3.201 1.323-6.181 2.406l-5.418 1.97-.085 3.428c-.079 3.202-.11 3.5-.466 4.506-.858 2.419-2.374 4.152-4.562 5.215-.742.36-1.68.736-2.083.834-1.15.28-45.167.33-46.483.053m60.435-23.516c1.787-.906 1.825-1.011 2.974-8.308 1.113-7.063 1.237-8.604.788-9.795-.4-1.064-.985-1.749-1.947-2.281l-.787-.436-3.947-.046c-3.612-.041-3.94-.025-3.856.196.051.133.093 5.414.093 11.736v11.496l2.9-1.057c1.596-.582 3.298-1.259 3.782-1.505M49.311 76.561c-2.248-.612-4.086-2.362-4.835-4.605-.303-.905-.305-1.078-.305-19.056V34.757h61.169v3.158l4.994.073c4.67.07 5.048.095 5.838.393 2.57.972 4.66 3.239 5.458 5.923.283.954 1.575 15.657 1.593 18.138.012 1.773-.267 2.888-1.023 4.087-.914 1.447-2.778 2.761-4.551 3.209-.492.124-2.47.18-6.507.186l-5.802.008-.036.367c-.177 1.756-.742 3.054-1.832 4.206-.91.963-1.822 1.554-3.01 1.95-.911.305-.982.306-25.702.296-19.078-.007-24.94-.051-25.45-.19m64.787-13.132c1.312-.647 2.207-1.817 2.47-3.231.125-.666.06-1.79-.64-10.921-.227-2.955-.378-3.486-1.211-4.259-.993-.92-1.076-.935-5.411-.935h-3.966l-.037 9.886-.038 9.885 4.077-.045c3.898-.044 4.106-.06 4.756-.38M44.172 31.122c.003-1.159 1.134-2.767 2.276-3.236.405-.166 4.459-1.106 18.578-4.307 2.948-.669 5.386-1.235 5.419-1.258s-.48-1.549-1.139-3.391c-1.501-4.202-1.541-4.908-.313-5.543.635-.328 10.822-.325 11.458.004.531.274.877.912.877 1.616 0 .293-.539 2.047-1.198 3.9-.66 1.853-1.172 3.393-1.139 3.422.083.072 6.214 1.512 15.343 3.602 4.205.963 7.913 1.822 8.239 1.91 1.307.352 2.392 1.632 2.677 3.158l.126.674H44.17Z"/>
  <path fill="#7f7f7f" d="M51.46 135.053c-2.726-.662-4.988-2.454-6.193-4.906-.896-1.824-.967-2.315-1.098-7.563-.106-4.294-.156-4.947-.492-6.501-1.49-6.888-4.013-12.46-9.265-20.45-3.685-5.606-7.323-9.866-10.763-12.601-1.137-.904-1.362-1.196-1.362-1.771 0-.612.56-.89 2.664-1.318 1.08-.22 2.742-.571 3.694-.78l1.732-.38.651.348c.613.327 2.94 2.912 11.71 13.016l1.432 1.65v-5.114h20.966c11.53 0 25.31-.005 30.621-.013l9.657-.013V85.72H44.14l.057-1.726c.064-1.946.286-2.61 1.056-3.16l.46-.328h58.012l.48.342c.573.41.912 1.02 1.04 1.877l.095.631 4.627.085c3.478.063 4.863.142 5.58.317 4.486 1.09 7.723 5.394 7.442 9.893-.1 1.59-2.666 18.05-2.98 19.107a10 10 0 0 1-.528 1.37c-.418.82-1.649 2.072-2.535 2.58-.416.237-3.198 1.32-6.181 2.405l-5.425 1.972-.085 3.43c-.079 3.202-.11 3.5-.466 4.506-.858 2.418-2.374 4.152-4.562 5.215-.742.36-1.68.735-2.083.832-.552.133-6.286.188-23.132.221-21.62.042-22.437.034-23.551-.236m60.635-23.446c1.787-.906 1.825-1.012 2.974-8.308 1.113-7.063 1.237-8.604.788-9.795-.4-1.064-.985-1.749-1.947-2.282l-.787-.435-3.947-.046c-3.612-.042-3.94-.025-3.856.196.051.132.093 5.414.093 11.736v11.496l2.9-1.058c1.596-.581 3.298-1.258 3.782-1.504M49.311 76.562c-2.252-.616-4.086-2.363-4.835-4.606-.303-.905-.305-1.078-.305-19.056V34.757h61.169v3.158l4.994.073c5.68.084 5.759.098 7.707 1.393 1.69 1.123 3.09 3.066 3.6 4.996.279 1.055 1.564 15.734 1.581 18.065.013 1.773-.265 2.888-1.022 4.087-.917 1.452-2.801 2.777-4.551 3.202-.47.114-2.642.176-6.507.186l-5.8.015-.103.808c-.305 2.402-1.721 4.293-4.045 5.403l-1.14.545-25.042.028c-19.456.021-25.188-.013-25.701-.154m64.787-13.133c1.308-.645 2.207-1.817 2.47-3.222.088-.476-.02-2.646-.355-7.162-.524-7.039-.543-7.143-1.496-8.027-.993-.92-1.076-.935-5.411-.935h-3.966l-.037 9.886-.038 9.885 4.077-.045c3.898-.044 4.106-.06 4.756-.38M44.172 31.122c.003-1.16 1.136-2.77 2.276-3.234.407-.166 5.273-1.295 18.65-4.327 2.909-.659 5.315-1.217 5.347-1.24s-.48-1.549-1.139-3.391c-1.252-3.505-1.417-4.354-.967-4.996.523-.746.688-.766 6.38-.766 5.818 0 5.941.017 6.386.876.386.747.255 1.41-.952 4.796-.646 1.814-1.175 3.35-1.175 3.413s.743.29 1.652.503a3430 3430 0 0 0 14.724 3.407c7.676 1.754 7.59 1.73 8.283 2.203.751.512 1.42 1.6 1.61 2.62l.129.687H44.17Z"/>
  <path fill="#6e6e6e" d="M51.46 135.053c-2.727-.663-4.988-2.454-6.193-4.906-.896-1.824-.967-2.315-1.098-7.563-.106-4.294-.156-4.947-.492-6.501-1.49-6.888-4.013-12.46-9.265-20.45-3.685-5.606-7.323-9.866-10.763-12.601-1.137-.904-1.362-1.196-1.362-1.771 0-.521.568-.905 1.647-1.112a281 281 0 0 0 3.682-.765l2.758-.589.628.304c.345.167.953.685 1.351 1.15s2.542 2.92 4.765 5.458 4.72 5.398 5.547 6.357l1.505 1.742V88.69l21.186.002c11.652.002 25.432-.006 30.622-.015l9.436-.019V85.72H44.14l.057-1.726c.064-1.946.286-2.61 1.056-3.16l.46-.328h58.012l.48.342c.575.411.913 1.022 1.04 1.885l.095.64 4.553.073c3.457.056 4.8.13 5.581.31 4.522 1.044 7.799 5.357 7.515 9.895-.1 1.59-2.666 18.05-2.98 19.107a10 10 0 0 1-.528 1.37c-.399.782-1.618 2.046-2.446 2.536-.374.22-3.158 1.306-6.187 2.412l-5.508 2.012-.085 3.428c-.079 3.2-.11 3.5-.466 4.506-.858 2.418-2.374 4.151-4.562 5.214-.742.36-1.68.734-2.083.831-.55.132-6.372.187-23.132.221-21.633.044-22.436.036-23.551-.235m60.635-23.446c1.536-.779 1.878-1.42 2.352-4.402 1.235-7.778 1.687-10.967 1.687-11.896 0-1.894-.749-3.27-2.224-4.086l-.787-.436-3.947-.046c-3.612-.041-3.94-.025-3.856.196.051.133.093 5.414.093 11.736v11.496l2.9-1.057c1.596-.582 3.298-1.259 3.782-1.505M49.422 76.603c-.9-.214-2.303-.994-3.061-1.704a6.87 6.87 0 0 1-1.885-2.943c-.303-.905-.305-1.078-.305-19.056V34.757h61.169v3.158l4.994.08c3.063.05 5.173.144 5.459.244 3.18 1.112 5.467 3.763 5.998 6.953.291 1.748 1.427 15.462 1.435 17.323.007 1.694-.286 2.841-1.026 4.014-.94 1.487-2.865 2.82-4.633 3.208-.5.11-2.78.173-6.498.182l-5.727.013-.103.808c-.305 2.402-1.721 4.293-4.045 5.403l-1.14.545-25.042.023c-14.216.013-25.278-.034-25.59-.108m64.676-13.174c1.308-.645 2.207-1.817 2.47-3.222.088-.476-.02-2.646-.355-7.162-.524-7.039-.543-7.143-1.496-8.027-.984-.912-1.086-.93-5.448-.98l-4.002-.045v19.86l4.076-.044c3.897-.044 4.105-.06 4.755-.38M44.172 31.122c.003-1.16 1.136-2.77 2.276-3.234.407-.166 5.273-1.295 18.65-4.327 2.909-.659 5.315-1.217 5.347-1.24s-.48-1.549-1.139-3.391c-1.456-4.076-1.513-4.806-.429-5.468.457-.278.743-.293 5.812-.293 5.851-.001 5.971.015 6.416.875.122.237.223.67.223.963s-.539 2.047-1.198 3.9c-.66 1.853-1.172 3.396-1.139 3.429s.92.259 1.97.502l6.021 1.398a2861 2861 0 0 0 8.665 1.994c7.335 1.674 7.291 1.662 7.992 2.139.75.508 1.418 1.597 1.609 2.617l.128.687H44.17Z"/>
  <path fill="#4f4f4f" d="M51.46 135.054c-2.73-.666-4.988-2.455-6.193-4.907-.897-1.826-.969-2.32-1.092-7.49-.091-3.832-.167-4.97-.412-6.168-1.402-6.872-4.014-12.718-9.251-20.709-3.733-5.694-7.391-9.988-10.863-12.748-1.137-.904-1.362-1.196-1.362-1.771 0-.64.556-.897 3.038-1.4a453 453 0 0 0 3.697-.762l1.375-.292.614.297c.422.204 1.095.857 2.15 2.086.845.984 1.604 1.86 1.687 1.948.169.178 8.262 9.433 8.909 10.188l.413.482V88.72l23.242.005c12.783.003 26.563-.012 30.622-.034l7.38-.039V85.72H44.14l.052-1.726c.063-2.038.318-2.701 1.24-3.229l.574-.329 28.86.035 28.859.035.48.342c.578.413.914 1.024 1.04 1.896l.095.65 4.553.064c3.467.05 4.798.12 5.581.3 4.544 1.041 7.807 5.373 7.507 9.966-.106 1.632-2.647 17.908-2.968 19.015a9.6 9.6 0 0 1-.53 1.385c-.4.786-1.618 2.049-2.448 2.54-.374.22-3.158 1.306-6.187 2.412l-5.508 2.011-.085 3.429c-.079 3.188-.11 3.503-.461 4.49-.656 1.847-1.656 3.26-3.068 4.33-.911.691-2.517 1.464-3.582 1.723-.556.135-6.178.19-23.132.228-21.663.047-22.434.04-23.551-.233m57.698-22.247c3.489-1.251 4.362-1.849 4.841-3.311.117-.354.347-1.537.512-2.627s.604-3.933.976-6.315c.917-5.88.86-6.93-.466-8.506-.217-.257-.732-.646-1.146-.864l-.752-.397-3.892-.045-3.892-.045.037 11.72.036 11.746c0 .013.414-.132.919-.323s1.777-.656 2.827-1.033M49.422 76.603c-.9-.214-2.303-.994-3.061-1.704a6.87 6.87 0 0 1-1.885-2.943c-.303-.905-.305-1.078-.305-19.056V34.757h61.169v3.158l4.994.08c3.063.05 5.173.144 5.459.244 3.18 1.112 5.468 3.764 5.997 6.953.114.682.441 4.116.728 7.63s.59 7.191.673 8.172c.214 2.528-.059 4.029-1.012 5.56-.9 1.446-2.862 2.804-4.585 3.173-.451.097-3.004.169-6.498.182l-5.754.023-.103.808c-.305 2.402-1.721 4.293-4.045 5.403l-1.14.545-25.042.023c-14.216.013-25.278-.034-25.59-.108m64.676-13.174c1.308-.645 2.207-1.817 2.47-3.222.088-.476-.02-2.646-.355-7.162-.524-7.039-.543-7.143-1.496-8.027-.984-.912-1.086-.93-5.448-.98l-4.002-.045v19.86l4.076-.044c3.897-.044 4.105-.06 4.755-.38M44.172 31.122c.003-1.16 1.136-2.77 2.276-3.234.407-.166 5.273-1.295 18.65-4.327 2.909-.659 5.315-1.217 5.347-1.24.033-.024-.48-1.553-1.138-3.398-1.456-4.08-1.512-4.8-.43-5.46.457-.28.743-.294 5.812-.294 5.875-.001 5.97.012 6.429.9.375.726.202 1.56-1.037 5.013-.63 1.758-1.12 3.224-1.086 3.258s.787.227 1.674.43 3.43.793 5.652 1.312 6.879 1.594 10.35 2.39c5.476 1.256 6.396 1.506 6.963 1.892.754.514 1.423 1.6 1.614 2.622l.128.687H44.17Z"/>
  <path fill="#303030" d="M51.46 135.055c-3.364-.823-5.883-3.248-6.853-6.598-.284-.979-.332-1.619-.432-5.8-.091-3.831-.167-4.971-.412-6.168-1.403-6.875-4.038-12.775-9.248-20.709-3.755-5.716-7.398-9.99-10.866-12.748-1.137-.904-1.362-1.196-1.362-1.771 0-.64.556-.897 3.038-1.4a453 453 0 0 0 3.697-.762l1.375-.292.618.299c.434.21 1.118.881 2.297 2.254.924 1.075 3.558 4.099 5.855 6.719s4.362 4.981 4.59 5.246l.413.483V88.73h24.344c13.388 0 27.168-.018 30.621-.04l6.279-.04v-2.93H44.14l.052-1.726c.063-2.038.318-2.701 1.24-3.229l.574-.329 28.86.035 28.859.035.48.342c.582.416.915 1.025 1.041 1.912l.096.667 4.552.046c4.982.05 5.83.156 7.505.94 2.632 1.234 4.829 3.996 5.419 6.815.38 1.815.353 2.06-1.536 14.099-1.05 6.698-1.267 7.754-1.799 8.797-.4.785-1.618 2.048-2.448 2.54-.374.222-3.158 1.306-6.187 2.41l-5.508 2.007-.088 3.358c-.096 3.629-.198 4.227-1.002 5.848-1.068 2.156-3.038 3.79-5.508 4.571l-1.165.368-22.48.056c-21.787.054-22.517.047-23.636-.227m56.87-21.94c4.29-1.527 5.163-2.084 5.672-3.62.117-.353.447-2.197.734-4.095.286-1.898.725-4.74.975-6.315.675-4.249.545-5.568-.69-7.037-.217-.257-.732-.646-1.146-.864l-.752-.397-3.892-.045-3.892-.045.037 11.72.036 11.767c0 .025.068.004.15-.046s1.327-.512 2.767-1.024M49.422 76.603c-.9-.214-2.303-.994-3.061-1.704a6.87 6.87 0 0 1-1.885-2.943c-.303-.905-.305-1.078-.305-19.056V34.757h61.086l.042 1.58.041 1.578 4.994.082c3.015.05 5.178.147 5.459.244 3.165 1.094 5.468 3.763 5.997 6.95.114.683.441 4.117.728 7.631s.59 7.191.673 8.172c.249 2.936-.128 4.467-1.544 6.275-.55.703-1.945 1.695-3.006 2.14-1.008.422-1.742.467-8.16.498l-5.14.025-.102.808c-.305 2.401-1.721 4.293-4.045 5.403l-1.14.545-25.042.023c-14.216.013-25.278-.034-25.59-.108m64.676-13.174c1.306-.644 2.207-1.817 2.468-3.217.088-.469-.02-2.677-.35-7.155-.52-7.044-.54-7.149-1.5-8.039-.983-.912-1.085-.93-5.447-.98l-4.002-.045V63.85l4.076-.043c3.9-.042 4.104-.058 4.755-.378M44.172 31.122c.003-1.16 1.135-2.769 2.276-3.235.405-.165 4.21-1.048 18.578-4.308 2.948-.668 5.388-1.236 5.422-1.261s-.479-1.553-1.138-3.397c-1.459-4.074-1.516-4.798-.433-5.459.457-.279.743-.293 5.812-.293 5.875-.001 5.97.012 6.429.9.375.726.202 1.56-1.037 5.013-.63 1.758-1.12 3.224-1.086 3.258s.787.227 1.674.43 3.43.793 5.652 1.312 6.879 1.594 10.35 2.39c5.476 1.256 6.396 1.506 6.963 1.892.754.514 1.423 1.6 1.614 2.622l.128.687H44.17Z"/>
  <path d="M51.46 135.056c-1.766-.434-3.06-1.18-4.431-2.552-1.314-1.315-1.93-2.347-2.42-4.047-.282-.976-.33-1.63-.43-5.8-.101-4.233-.15-4.882-.495-6.54-.827-3.973-2.034-7.401-4.06-11.525C35.618 96.44 29.136 87.528 24.42 83.69c-1.664-1.354-2.133-1.858-2.133-2.292 0-.776.474-1.017 3.013-1.531 1.291-.262 2.966-.607 3.722-.768l1.375-.292.617.298c.425.206 1.078.838 2.093 2.025.811.95 3.046 3.51 4.967 5.692 1.92 2.18 4.078 4.644 4.794 5.473l1.302 1.508V88.73h61.17l.042-1.506.042-1.505H44.14l.053-1.726c.065-2.115.311-2.724 1.305-3.232l.65-.331 28.789.038 28.789.037.48.342c.584.417.915 1.026 1.042 1.92l.097.676 4.551.04c4.97.043 5.983.176 7.682 1.005 3.336 1.629 5.65 5.514 5.412 9.088-.043.647-.45 3.588-.903 6.536-1.96 12.745-1.977 12.831-2.689 14.148-.487.899-1.843 2.16-2.851 2.652-.428.208-3.124 1.23-5.992 2.27l-5.214 1.89-.082 3.362c-.076 3.134-.109 3.443-.476 4.549-.933 2.813-3.125 4.953-6.007 5.864l-1.137.359-22.511.067c-21.88.065-22.544.058-23.666-.218m56.89-21.946c4.152-1.452 5.147-2.088 5.651-3.614.117-.354.65-3.486 1.186-6.96 1.13-7.337 1.17-8.241.43-9.599-.235-.433-.678-1.001-.984-1.263-1-.855-1.622-.96-5.676-.96h-3.618l.037 11.712.037 11.755c0 .023.115-.018.257-.091.141-.073 1.347-.514 2.68-.98m-58.93-36.507c-.88-.21-2.191-.936-3.001-1.664-.92-.828-1.543-1.783-1.944-2.983-.303-.905-.305-1.078-.305-19.056V34.757h61.086l.042 1.58.041 1.578 4.994.082c5.174.086 5.325.104 6.698.794 1.73.868 2.89 1.997 3.853 3.751.94 1.712.928 1.624 1.86 13.04.663 8.136.658 8.413-.21 10.255-.781 1.659-2.441 3.086-4.387 3.77-.306.109-2.635.194-6.639.246l-6.168.079-.102.808c-.304 2.4-1.721 4.293-4.045 5.403l-1.14.545-25.042.023c-14.216.013-25.278-.034-25.59-.108m64.71-13.19c1.298-.64 2.167-1.784 2.44-3.215.09-.474.042-1.882-.15-4.439-.155-2.06-.372-4.968-.483-6.463-.219-2.942-.376-3.493-1.222-4.278-.984-.912-1.086-.93-5.448-.98l-4.002-.045V63.85l4.076-.043c3.957-.042 4.096-.054 4.789-.395M44.215 30.95c.148-1.252.972-2.432 2.085-2.988.242-.12 1.96-.563 3.818-.982s6.782-1.545 10.942-2.5c4.16-.957 7.977-1.82 8.482-1.918s.917-.234.917-.301c0-.068-.528-1.606-1.174-3.42-1.207-3.386-1.339-4.049-.953-4.796.445-.86.568-.876 6.387-.876 5.818 0 5.941.017 6.386.876.122.237.223.664.223.948s-.53 2.004-1.175 3.821-1.175 3.368-1.175 3.444.314.208.697.292 2.945.675 5.691 1.314a4699 4699 0 0 0 11.304 2.609c5.476 1.256 6.396 1.506 6.964 1.892.754.514 1.423 1.6 1.614 2.622l.128.687H44.13Z"/>
</svg>
