<svg xmlns="http://www.w3.org/2000/svg" width="150" height="150">
  <path fill="#6e6e6e" d="M46.578 134.134c-.4-.097-.961-.546-2.836-2.267-.912-.836-1.737-1.713-1.835-1.95-.193-.466-.262.08 1.047-8.31.704-4.518 1.024-6.6 2.088-13.605.426-2.801 1.022-6.694 1.324-8.651s.711-4.72.908-6.14.387-2.72.425-2.89c.042-.193.6-.689 1.492-1.325l1.424-1.017 19.022-.037c13.66-.027 19.102.007 19.309.117.645.345 2.648 1.854 2.774 2.089.075.139.572 3.224 1.105 6.856a1863 1863 0 0 0 1.39 9.324c.924 5.99 2.272 14.659 2.87 18.462.702 4.467.738 4.967.392 5.494-.399.61-3.559 3.413-4.155 3.687-.535.246-1.51.257-23.512.244-12.624-.007-23.079-.044-23.232-.081m11.305-33.438c3.085-1.436 3.051-5.856-.055-7.238-.9-.401-2.381-.41-3.227-.021-1.496.69-2.458 2.295-2.335 3.893.167 2.157 1.797 3.683 3.94 3.69.735.002 1.15-.078 1.677-.324m-2.116-2.46c-.164-.067-.4-.265-.523-.441-.712-1.016.454-2.31 1.564-1.736.875.452.84 1.746-.059 2.12-.526.22-.57.223-.982.057M49.75 85.32c-.31-.217-.312-.239-.312-4.117v-3.9h40.744v3.811c0 3.07-.038 3.863-.198 4.081-.194.266-.582.272-20.06.308-17.843.032-19.893.014-20.174-.183m53.932-3.936c-1.192-.688-3.835-3.502-4.552-4.846-.541-1.014-.307-2.017.603-2.58.288-.177 1.083-.406 1.936-.557 1.615-.286 2.364-.61 3.09-1.335.669-.669.742-.829 3.043-6.623 1.113-2.801 2.767-6.945 3.678-9.209l1.655-4.116v-1.535c0-1.434-.029-1.596-.441-2.467-.567-1.196-1.357-2.047-2.454-2.641-.834-.453-.936-.473-2.337-.473-1.731 0-1.49-.099-6.07 2.484-1.688.953-3.086 1.719-3.107 1.703-.02-.016.314-2.064.743-4.55.944-5.47 1.039-6.562.63-7.21-.159-.251-.565-.628-.902-.837a131 131 0 0 1-.873-.546c-.2-.127 1.285-.158 6.579-.135 6.694.028 6.854.035 7.663.34 3.519 1.323 6.451 4.009 8.18 7.49 1.87 3.764 2.012 6.797.531 11.36-2.114 6.513-8.352 17.768-13.624 24.582-1.654 2.138-2.55 2.521-3.971 1.7m-54.997-6.457c-.465-.14-1.143-.742-1.406-1.25-.099-.192-.353-1.48-.565-2.86a103 103 0 0 0-.612-3.629l-.228-1.116-4.4-6.14c-2.42-3.376-5.114-7.143-5.986-8.371-4.041-5.692-5.175-6.89-7.14-7.542-.847-.281-1.047-.605-.827-1.34.312-1.038 1.944-2.197 3.687-2.617.463-.112 2.691-.166 7.046-.17 5.35-.006 6.523.028 7.32.214.852.199 3.649.222 26.62.222h25.668l-.073.314c-.131.567-1.866 10.724-3.712 21.733-.997 5.947-1.875 11.007-1.95 11.244-.163.51-.744 1.098-1.291 1.305-.485.183-41.539.186-42.15.003m21.582-36.691c-27.181-.07-27.375-.072-26.721-.339a317 317 0 0 0 2.542-1.065c10.566-4.468 13.065-5.502 15.888-6.571 4.512-1.71 4.484-1.697 4.484-2.16 0-.322-1.001-3.778-2.455-8.471-.53-1.712-.57-1.676 2.735-2.56 1.496-.4 2.846-.73 3-.734.427-.01 5.804 1.366 6.014 1.54.1.083.22.265.264.403.08.25-.579 2.733-1.89 7.133-.38 1.274-.69 2.478-.69 2.676 0 .503.26.715 1.426 1.154 4.37 1.649 14.013 5.378 15.945 6.167l4.535 1.85c1.19.485 2.222.934 2.295.999s.104.101.07.082-12.384-.066-27.442-.104"/>
  <path fill="#4e4e4e" d="M46.578 134.134c-.4-.097-.961-.546-2.836-2.267-.912-.836-1.738-1.716-1.837-1.955-.144-.348-.147-.634-.012-1.44.092-.553.284-1.79.426-2.75.328-2.21 1.893-12.356 2.163-14.022.112-.691.486-3.14.831-5.442s.816-5.38 1.046-6.837.61-4.033.844-5.721.456-3.209.494-3.379c.043-.192.607-.692 1.494-1.325l1.424-1.017 19.02-.038c13.72-.027 19.1.006 19.31.117.63.338 2.648 1.852 2.77 2.079.07.133.384 1.993.697 4.135 1.137 7.787 2.579 17.203 4.673 30.518.7 4.452.737 4.967.399 5.484-.396.604-3.572 3.425-4.162 3.697-.536.247-1.488.257-23.512.244-12.624-.007-23.079-.044-23.232-.081m11.305-33.438c2.534-1.18 3.098-4.444 1.112-6.43-.764-.764-1.618-1.105-2.79-1.111-1.192-.007-1.978.317-2.819 1.161-1.941 1.952-1.282 5.284 1.276 6.445.843.383 2.323.353 3.221-.065m-2.116-2.46c-.164-.067-.4-.265-.523-.441-.712-1.016.454-2.31 1.564-1.736.875.452.84 1.746-.059 2.12-.526.22-.57.223-.982.057M49.75 85.32c-.31-.217-.312-.239-.312-4.117v-3.9h40.744v3.811c0 3.07-.038 3.863-.198 4.081-.194.266-.582.272-20.06.308-17.843.032-19.893.014-20.174-.183m53.932-3.936c-1.192-.688-3.835-3.502-4.552-4.846-.541-1.014-.307-2.017.603-2.58.288-.177 1.083-.406 1.936-.557.796-.14 1.706-.388 2.023-.55.716-.365 1.475-1.113 1.823-1.795.431-.847 7.4-18.421 7.566-19.083.085-.334.13-1.129.102-1.766-.089-2.036-1.167-3.77-2.943-4.732-.834-.453-.936-.473-2.337-.473-1.731 0-1.49-.099-6.07 2.484-1.688.953-3.087 1.718-3.108 1.702s.314-2.065.744-4.55c.944-5.448 1.04-6.558.63-7.209-.159-.251-.565-.628-.902-.837a114 114 0 0 1-.873-.546c-.2-.128 1.272-.159 6.579-.137l6.837.028.977.388c3.564 1.415 6.307 3.947 8.03 7.416 1.869 3.764 2.01 6.709.54 11.308-2.062 6.452-8.333 17.783-13.634 24.634-1.654 2.138-2.55 2.521-3.971 1.7m-54.997-6.457c-.465-.14-1.143-.742-1.406-1.25-.099-.192-.353-1.48-.565-2.86a103 103 0 0 0-.612-3.629l-.228-1.116-4.4-6.14a2583 2583 0 0 1-5.981-8.371c-3.967-5.604-5.187-6.892-7.146-7.542-.846-.281-1.046-.605-.826-1.34.31-1.036 1.944-2.197 3.677-2.615.45-.108 2.742-.163 7.051-.167 5.33-.006 6.542.029 7.331.212.841.195 3.772.22 26.613.22h25.669l-.074.313c-.129.553-2.395 13.832-3.984 23.337-.846 5.065-1.6 9.403-1.676 9.64-.164.511-.746 1.098-1.292 1.305-.485.183-41.539.186-42.15.003m21.584-36.69-27.378-.07 1.913-.797c1.052-.438 3.388-1.42 5.192-2.183l6-2.537a210 210 0 0 1 5.98-2.387c4.515-1.713 4.484-1.698 4.484-2.16 0-.323-1.001-3.78-2.455-8.472-.53-1.712-.57-1.676 2.735-2.56 1.496-.4 2.846-.73 3-.734.427-.01 5.804 1.366 6.014 1.54.1.083.22.265.264.403.08.25-.579 2.733-1.89 7.133-.38 1.274-.69 2.478-.69 2.676 0 .503.26.715 1.426 1.154 4.37 1.649 14.013 5.378 15.945 6.167l4.535 1.85c1.19.485 2.222.934 2.295.999s.104.101.07.082-12.383-.066-27.44-.104"/>
  <path fill="#3e3e3e" d="M46.567 134.139c-.574-.114-4.398-3.59-4.67-4.246-.135-.327-.136-.629-.004-1.42.092-.554.284-1.791.426-2.75.302-2.033 1.866-12.185 2.161-14.024.111-.69.36-2.291.552-3.558s.696-4.562 1.12-7.325c.423-2.763.928-6.185 1.122-7.605s.384-2.716.421-2.881c.04-.181.633-.707 1.494-1.326l1.426-1.025 19.02-.038c13.72-.027 19.1.006 19.31.117.634.34 2.648 1.852 2.77 2.081.073.134.54 3.031 1.039 6.437s1.067 7.23 1.264 8.496a8094 8094 0 0 0 2.72 17.476c.538 3.435.979 6.498.979 6.807s-.105.724-.233.92c-.396.603-3.572 3.424-4.162 3.696-.536.247-1.485.256-23.512.241-12.624-.009-23.083-.042-23.243-.073m11.316-33.443c2.534-1.18 3.098-4.444 1.112-6.43-.764-.765-1.618-1.105-2.79-1.111-1.198-.007-2.032.336-2.84 1.17-1.914 1.971-1.247 5.28 1.297 6.436.843.383 2.323.353 3.221-.065m-2.116-2.46c-.164-.067-.4-.265-.523-.441-.712-1.017.454-2.31 1.564-1.736.875.452.84 1.745-.059 2.12-.526.22-.57.223-.982.057M49.75 85.32c-.31-.217-.312-.239-.312-4.118v-3.899h40.744v3.81c0 3.072-.038 3.864-.198 4.082-.194.266-.582.272-20.06.307-17.843.033-19.893.015-20.174-.182m54.121-3.815c-1.058-.564-3.413-2.935-4.446-4.477-.857-1.277-.742-2.42.308-3.07.288-.177 1.083-.406 1.936-.557.796-.141 1.706-.388 2.023-.55.716-.365 1.475-1.113 1.823-1.795.431-.847 7.4-18.421 7.566-19.083.085-.334.13-1.129.102-1.766-.089-2.036-1.167-3.77-2.943-4.732-.834-.453-.936-.474-2.337-.474-1.731 0-1.49-.098-6.07 2.485-1.688.953-3.087 1.718-3.108 1.702s.28-1.876.67-4.132c1.026-5.957 1.102-6.567.894-7.173-.23-.668-.54-.994-1.42-1.493-.404-.228-.733-.437-.733-.464s3.06-.036 6.802-.02l6.802.027 1.116.453c3.487 1.415 6.192 3.935 7.889 7.352 1.871 3.767 2.012 6.71.542 11.31-1.712 5.36-6.105 13.741-10.933 20.86-2.21 3.26-3.733 5.187-4.386 5.554a2.19 2.19 0 0 1-2.097.043m-55.186-6.579c-.465-.14-1.143-.742-1.406-1.25-.099-.192-.353-1.48-.565-2.86a103 103 0 0 0-.612-3.629l-.228-1.116-4.4-6.14a2583 2583 0 0 1-5.981-8.371c-3.967-5.604-5.187-6.892-7.146-7.542-.846-.281-1.046-.605-.826-1.34.31-1.033 1.944-2.198 3.668-2.613.437-.105 2.8-.161 7.047-.168 5.353-.008 6.545.026 7.34.21.846.196 3.733.22 26.618.22h25.668l-.074.314c-.129.553-2.396 13.832-3.984 23.337-.846 5.065-1.6 9.403-1.676 9.64-.165.511-.746 1.098-1.292 1.305-.485.183-41.539.186-42.15.003m21.584-36.69-27.378-.07 1.913-.797c1.052-.438 3.388-1.42 5.191-2.183l6-2.537a209 209 0 0 1 5.981-2.387c4.515-1.713 4.484-1.698 4.484-2.16 0-.322-.997-3.763-2.45-8.458-.324-1.045-.313-1.61.035-1.823.136-.083 4.98-1.365 5.5-1.455.406-.07 5.92 1.269 6.208 1.509.102.084.22.266.265.404.08.25-.579 2.733-1.89 7.133-.38 1.274-.69 2.478-.69 2.676 0 .503.26.715 1.426 1.154 4.37 1.649 14.013 5.378 15.945 6.167l4.535 1.85c1.19.485 2.222.934 2.295.999s.104.101.07.082-12.383-.066-27.44-.104"/>
  <path fill="#2c2c2c" d="M46.567 134.139c-.565-.112-4.397-3.586-4.663-4.229-.126-.304-.127-.64-.004-1.42.088-.563.277-1.808.42-2.767s.642-4.225 1.112-7.256c2.623-16.924 3.413-22.117 3.842-25.256.195-1.42.384-2.716.421-2.881.04-.181.633-.707 1.494-1.326l1.426-1.025 19.018-.039c13.81-.028 19.097.004 19.309.117.637.34 2.65 1.853 2.774 2.082.072.134.539 3.031 1.038 6.437s1.067 7.23 1.264 8.496a8094 8094 0 0 0 2.72 17.476c.538 3.435.979 6.498.979 6.807s-.105.724-.233.92c-.396.603-3.572 3.424-4.162 3.696-.536.247-1.485.256-23.512.241-12.624-.009-23.083-.042-23.243-.073m11.316-33.443c2.534-1.18 3.098-4.444 1.112-6.43-.764-.765-1.618-1.105-2.79-1.111-1.198-.007-2.032.336-2.84 1.17-1.914 1.971-1.247 5.28 1.297 6.436.843.383 2.323.353 3.221-.065m-2.116-2.46c-.164-.067-.4-.265-.523-.441-.712-1.017.454-2.31 1.564-1.736.875.452.84 1.745-.059 2.12-.526.22-.57.223-.982.057M49.75 85.32c-.31-.217-.312-.239-.312-4.118v-3.899h40.744v3.81c0 3.072-.038 3.864-.198 4.082-.194.266-.582.272-20.06.307-17.843.033-19.893.015-20.174-.182m54.121-3.815c-1.058-.564-3.413-2.935-4.446-4.477-.857-1.277-.742-2.42.308-3.07.288-.177 1.083-.406 1.936-.557.796-.141 1.706-.388 2.023-.55.716-.365 1.475-1.113 1.824-1.798.433-.848 7.397-18.412 7.565-19.078.084-.335.13-1.13.102-1.768-.089-2.036-1.167-3.77-2.943-4.732-.834-.453-.936-.474-2.337-.474-1.731 0-1.49-.098-6.07 2.485-1.688.953-3.084 1.72-3.103 1.707s.257-1.716.61-3.783c.955-5.585 1.137-6.913 1.01-7.367-.177-.634-.511-1.053-1.163-1.457l-.863-.535c-.196-.122 1.387-.154 6.579-.135l6.837.024 1.116.45c3.473 1.397 6.191 3.93 7.889 7.348 1.871 3.767 2.012 6.71.542 11.31-1.712 5.36-6.105 13.741-10.933 20.86-2.21 3.26-3.733 5.187-4.386 5.554a2.19 2.19 0 0 1-2.097.043m-55.187-6.58c-.493-.147-1.268-.874-1.463-1.372-.079-.201-.307-1.446-.508-2.766s-.471-2.92-.601-3.558l-.236-1.158-4.402-6.14c-2.42-3.376-5.112-7.143-5.981-8.371-3.965-5.602-5.187-6.892-7.146-7.542-.846-.281-1.046-.605-.826-1.34.31-1.033 1.944-2.198 3.668-2.613.437-.105 2.8-.161 7.048-.168 5.352-.008 6.544.026 7.34.21.845.196 3.732.22 26.617.22h25.668l-.07.314c-.176.785-2.167 12.435-4.173 24.413-1.36 8.116-1.465 8.64-1.83 9.12-.733.96.816.898-22.01.885-11.379-.007-20.872-.067-21.095-.133m21.586-36.69-27.378-.07 1.913-.797c1.052-.438 3.388-1.42 5.191-2.183l6-2.537a209 209 0 0 1 5.981-2.387c4.532-1.72 4.485-1.697 4.483-2.17-.002-.215-.627-2.451-1.39-4.968-1.376-4.541-1.47-5.03-1.024-5.303.136-.083 4.98-1.365 5.5-1.455.406-.07 5.92 1.269 6.208 1.509.102.084.22.266.265.404.08.25-.579 2.733-1.89 7.133-.38 1.274-.69 2.478-.69 2.676 0 .503.26.715 1.426 1.154 4.37 1.649 14.013 5.378 15.945 6.167l4.535 1.85c1.19.485 2.222.934 2.295.999s.104.101.07.082-12.383-.066-27.44-.104"/>
  <path d="M46.299 133.968c-.72-.335-4.17-3.517-4.39-4.047-.172-.415-.133-.689 2.928-20.524 1.33-8.619 2.109-13.786 2.437-16.186.195-1.42.384-2.716.421-2.881.04-.181.633-.707 1.494-1.326l1.426-1.025 19.014-.041c14.649-.032 19.087-.002 19.33.127.644.343 2.731 1.945 2.813 2.159.047.122.396 2.366.775 4.988.98 6.774 1.544 10.448 4.131 26.952 1.173 7.48 1.184 7.598.728 8.196-.557.73-3.547 3.362-4.121 3.626-.487.225-2.043.24-23.475.241-22.1.001-22.974-.009-23.511-.259m11.584-33.272c3.086-1.437 3.053-5.836-.055-7.243-.897-.407-2.367-.41-3.249-.007-1.375.627-2.35 2.168-2.35 3.712 0 1.426 1.045 2.973 2.433 3.603.843.383 2.323.353 3.221-.065m-2.116-2.46c-.164-.067-.4-.265-.523-.441-.712-1.016.454-2.31 1.564-1.736.875.452.84 1.746-.059 2.12-.526.22-.57.223-.982.057m-6.015-12.913c-.313-.22-.314-.234-.314-4.12v-3.899h40.744v3.811c0 3.07-.038 3.863-.198 4.081-.194.266-.583.272-20.058.31-17.918.034-19.89.016-20.174-.183m54.087-3.833c-1.24-.656-3.99-3.565-4.708-4.982-.832-1.641.092-2.758 2.566-3.102 1.849-.257 3.165-1.067 3.817-2.35.294-.576 7.012-17.374 7.435-18.588.344-.99.36-2.682.035-3.671-.498-1.511-1.496-2.686-2.889-3.4-.865-.445-2.768-.613-3.676-.326-.464.147-1.876.906-6.79 3.65l-.947.53.079-.45c.968-5.57 1.615-9.604 1.628-10.144.024-1.08-.421-1.644-2.036-2.585-.162-.094 1.944-.138 6.504-.135l6.743.005 1.02.368c3.42 1.234 6.404 3.963 8.128 7.436 1.817 3.657 1.998 6.717.65 10.958-1.697 5.344-5.83 13.363-10.496 20.368-2.439 3.661-4.08 5.803-4.84 6.313-.689.462-1.477.5-2.223.105m-55.155-6.563c-.493-.148-1.268-.875-1.463-1.373-.079-.201-.307-1.446-.508-2.765s-.472-2.921-.604-3.559l-.238-1.158-6.33-8.86c-3.48-4.873-6.679-9.3-7.107-9.837-1.516-1.903-2.741-2.91-4.087-3.356-.846-.281-1.046-.605-.826-1.34.309-1.028 1.945-2.198 3.648-2.608.41-.098 2.931-.159 7.046-.169 5.4-.014 6.559.018 7.36.205.85.198 3.677.221 26.619.221h25.668l-.072.314c-.182.805-2.168 12.423-4.173 24.413-1.358 8.118-1.463 8.64-1.828 9.12-.733.96.816.898-22.01.885-11.379-.007-20.872-.067-21.095-.133m21.6-36.691-27.363-.07 3.293-1.383c1.812-.76 5.397-2.274 7.968-3.363 2.571-1.09 6.056-2.5 7.744-3.137 4.438-1.672 4.535-1.719 4.535-2.191 0-.215-.626-2.45-1.39-4.968-1.378-4.541-1.473-5.03-1.025-5.303.135-.083 4.98-1.365 5.5-1.455.406-.07 5.92 1.269 6.208 1.509.102.084.22.266.265.404.079.25-.579 2.733-1.89 7.133-.38 1.274-.691 2.478-.691 2.676 0 .496.259.713 1.356 1.133l6.946 2.656c3.3 1.262 7.79 3.024 9.977 3.916s4.385 1.784 4.883 1.983.967.415 1.04.48.104.103.07.084-12.376-.066-27.426-.104"/>
  <path d="M46.299 133.968c-.72-.335-4.17-3.517-4.39-4.047-.172-.415-.133-.689 2.928-20.524 1.33-8.619 2.109-13.786 2.437-16.186.195-1.42.384-2.716.421-2.881.04-.181.633-.707 1.494-1.326l1.426-1.025 19.014-.041c14.649-.032 19.087-.002 19.33.127.644.343 2.731 1.945 2.813 2.159.047.122.396 2.366.775 4.988.98 6.774 1.544 10.448 4.131 26.952 1.173 7.48 1.184 7.598.728 8.196-.557.73-3.547 3.362-4.121 3.626-.487.225-2.043.24-23.475.241-22.1.001-22.974-.009-23.511-.259m11.584-33.272c3.086-1.437 3.053-5.836-.055-7.243-.897-.407-2.367-.41-3.249-.007-1.375.627-2.35 2.168-2.35 3.712 0 1.426 1.045 2.973 2.433 3.603.843.383 2.323.353 3.221-.065m-2.116-2.46c-.164-.067-.4-.265-.523-.441-.712-1.016.454-2.31 1.564-1.736.875.452.84 1.746-.059 2.12-.526.22-.57.223-.982.057m-6.015-12.913c-.313-.22-.314-.234-.314-4.12v-3.899h40.744v3.811c0 3.07-.038 3.863-.198 4.081-.194.266-.583.272-20.058.31-17.918.034-19.89.016-20.174-.183m54.087-3.833c-1.24-.656-3.99-3.565-4.708-4.982-.832-1.641.092-2.758 2.566-3.102 1.849-.257 3.165-1.067 3.817-2.35.294-.576 7.012-17.374 7.435-18.588.344-.99.36-2.682.035-3.671-.498-1.511-1.496-2.686-2.889-3.4-.865-.445-2.768-.613-3.676-.326-.464.147-1.876.906-6.79 3.65l-.947.53.079-.45c.968-5.57 1.615-9.604 1.628-10.144.024-1.08-.421-1.644-2.036-2.585-.162-.094 1.944-.138 6.504-.135l6.743.005 1.02.368c3.42 1.234 6.404 3.963 8.128 7.436 1.817 3.657 1.998 6.717.65 10.958-1.697 5.344-5.83 13.363-10.496 20.368-2.439 3.661-4.08 5.803-4.84 6.313-.689.462-1.477.5-2.223.105m-55.155-6.563c-.493-.148-1.268-.875-1.463-1.373-.079-.201-.307-1.446-.508-2.765s-.472-2.921-.604-3.559l-.238-1.158-6.33-8.86c-3.48-4.873-6.679-9.3-7.107-9.837-1.516-1.903-2.741-2.91-4.087-3.356-.846-.281-1.046-.605-.826-1.34.309-1.028 1.945-2.198 3.648-2.608.41-.098 2.931-.159 7.046-.169 5.4-.014 6.559.018 7.36.205.85.198 3.677.221 26.619.221h25.668l-.072.314c-.182.805-2.168 12.423-4.173 24.413-1.358 8.118-1.463 8.64-1.828 9.12-.733.96.816.898-22.01.885-11.379-.007-20.872-.067-21.095-.133m21.6-36.691-27.363-.07 3.293-1.383c1.812-.76 5.397-2.274 7.968-3.363 2.571-1.09 6.056-2.5 7.744-3.137 4.438-1.672 4.535-1.719 4.535-2.191 0-.215-.626-2.45-1.39-4.968-1.378-4.541-1.473-5.03-1.025-5.303.135-.083 4.98-1.365 5.5-1.455.406-.07 5.92 1.269 6.208 1.509.102.084.22.266.265.404.079.25-.579 2.733-1.89 7.133-.38 1.274-.691 2.478-.691 2.676 0 .496.259.713 1.356 1.133l6.946 2.656c3.3 1.262 7.79 3.024 9.977 3.916s4.385 1.784 4.883 1.983.967.415 1.04.48.104.103.07.084-12.376-.066-27.426-.104"/>
</svg>
