<svg xmlns="http://www.w3.org/2000/svg" width="150" height="150">
  <path fill="#d0d0d0" d="m50.648 134.037-.33-.26v-7.525l.408-.406c.435-.434 1.631-.948 2.207-.948.21 0 .466.125.644.314l.294.313 21.875-.031 21.876-.032-.03-.376a345 345 0 0 0-1.1-11.465c-.883-7.887-.978-9.258-.9-12.907.108-4.971.608-7.6 1.969-10.35l.75-1.518v-1.534c0-1.174.049-1.638.21-1.976.213-.45.772-.786 1.306-.786.271 0 .272-.006.204-2.225-.047-1.572-.129-2.426-.28-2.913-.62-2.016-2.014-3.732-3.696-4.551-1.928-.939-3.15-1.08-9.366-1.085l-4.543-.003v.72c0 1.368-.722 2.162-1.966 2.162-.913 0-1.599-.355-1.81-.938l-.159-.44H68.99v.455c0 .645.242 1.373.555 1.666.147.139.734.48 1.304.758 4.61 2.253 8.403 6.694 9.902 11.594.725 2.37.833 3.145.827 5.952-.005 2.173-.05 2.767-.285 3.856-.907 4.18-2.51 7.16-5.408 10.053-1.764 1.76-2.968 2.665-4.89 3.675-2.675 1.406-5.2 2.064-8.351 2.176-3.202.115-5.732-.338-8.553-1.528-10.43-4.403-15.118-16.885-10.097-26.884 1.901-3.786 5.138-7.057 8.79-8.885 1.06-.531 1.45-.865 1.662-1.424.085-.224.134-1.848.134-4.436v-4.083l-.577-.7c-.317-.385-.679-.902-.805-1.148-.214-.42-.623-1.805-.623-2.11 0-.1 2.55-.14 9.147-.14 5.031 0 9.148.026 9.148.057s-.064.355-.141.72c-.175.823-.615 1.721-1.252 2.556-.36.472-.487.757-.487 1.096v.458l4.605-.002 4.605-.003.188-.397c.321-.678.776-.914 1.748-.906 1.403.01 1.888.5 1.984 1.998l.06.924 6.03.045c6.915.052 6.957.057 9.287 1.218 2.748 1.368 4.506 3.555 5.402 6.717.155.548.226 1.428.268 3.333l.057 2.588.455.086c1.096.205 1.274.6 1.274 2.819 0 1.414.034 1.702.235 1.986.63.895 1.288 2.63 1.765 4.66.422 1.79.652 4.252.655 7.013.004 2.886-.143 4.737-1.027 12.907-.546 5.048-1.127 10.844-1.127 11.245 0 .078.353.33.783.557 1.064.563 1.752 1.277 2.104 2.18.25.646.295 1.026.343 2.964.062 2.444.028 2.726-.373 3.1-.272.253-.316.253-28.802.253h-28.53Zm27.294-40.56a24 24 0 0 0-.17-1.033l-.085-.439-15.864-.032-15.863-.031-.078.31c-.043.171-.113.65-.157 1.066l-.079.755h32.38ZM67.235 70.046v-.97H56.333v1.941h10.902zm-12.219 53.348c-.043-.07.34-.694.85-1.387a40 40 0 0 0 1.606-2.374l.678-1.113 3.595-.006 3.596-.005.935 1.41a61 61 0 0 0 1.69 2.41c.513.681.706 1.03.606 1.094-.233.149-13.464.12-13.556-.029m-7.172-61.536c-2.292-.389-4.355-2-5.481-4.282-1-2.026-.948-.904-.912-19.586l.033-16.616.352-.302.351-.303h19.667c19.414 0 19.669.004 19.913.248.136.136.28.376.318.532s.054 7.898.034 17.202c-.035 16.04-.049 16.952-.267 17.606-.685 2.045-2.045 3.696-3.79 4.6-2.034 1.053-.683.97-15.965.993-7.499.011-13.89-.03-14.253-.091m.97-9.558c0-5.133-.008-5.32-.252-5.63-.304-.386-.978-.631-1.427-.519-.18.045-.469.252-.644.46l-.317.377.036 4.287.036 4.286.376.605c.206.332.52.711.696.842.286.212 1.155.58 1.403.595.051.003.094-2.383.094-5.303m7.142-.01v-5.318l-.282-.323c-.55-.63-1.59-.623-2.09.014-.253.32-.26.464-.26 5.637v5.309h2.632zm7.267.087c0-4.964-.013-5.252-.244-5.632a1.29 1.29 0 0 0-1.67-.481c-.837.397-.842.432-.842 6.195v5.15h2.757zm7.143-.077c0-5.158-.007-5.318-.256-5.634-.493-.627-1.491-.683-2.059-.116l-.316.316V57.61h2.631zm5.479 4.99c.353-.176.789-.514.97-.75.66-.866.694-1.139.694-5.509 0-3.827-.013-4.056-.247-4.353-.559-.71-1.576-.715-2.132-.008-.244.31-.253.497-.253 5.63 0 4.28.032 5.309.164 5.309.09 0 .451-.144.804-.32"/>
  <path fill="#aeaeae" d="m50.648 134.037-.33-.26v-7.525l.408-.406c.435-.434 1.631-.948 2.207-.948.21 0 .466.125.643.313l.294.314h21.837c12.01 0 21.86-.042 21.888-.094.074-.138-.476-6.217-.917-10.119-1.078-9.554-1.044-9.116-1.05-13.47-.004-3.273.039-4.363.217-5.553.376-2.516.874-4.24 1.712-5.926l.754-1.517V87.32c0-1.27.041-1.608.246-2.009.244-.478.724-.76 1.292-.76.24 0 .245-.072.184-2.225-.046-1.598-.125-2.418-.279-2.913-.63-2.025-2.018-3.733-3.699-4.551-1.928-.939-3.15-1.08-9.366-1.085l-4.543-.003v.72c0 1.368-.722 2.162-1.966 2.162-.913 0-1.599-.355-1.81-.938l-.159-.44H68.99v.455c0 .645.242 1.373.555 1.666.147.139.716.473 1.266.743 4.683 2.306 8.43 6.682 9.94 11.61.725 2.366.833 3.143.827 5.95-.005 2.174-.05 2.768-.285 3.857-.436 2.007-.853 3.215-1.718 4.978-1.792 3.65-4.894 6.813-8.58 8.75a21 21 0 0 1-5.118 1.846c-1.566.334-4.796.46-6.454.252-4.246-.535-8.502-2.588-11.52-5.559-5.382-5.296-7.333-13.577-4.847-20.576 1.672-4.708 5.348-8.892 9.747-11.094 1.042-.522 1.432-.857 1.643-1.414.085-.224.134-1.848.134-4.436v-4.083l-.577-.7c-.317-.385-.679-.902-.805-1.148-.214-.42-.623-1.805-.623-2.11 0-.1 2.55-.14 9.147-.14 5.031 0 9.148.026 9.148.057s-.064.355-.141.72c-.175.823-.615 1.721-1.252 2.556-.36.472-.487.757-.487 1.096v.458l4.605-.002 4.605-.003.188-.397c.321-.678.776-.914 1.748-.906 1.403.01 1.888.5 1.984 1.998l.06.924 6.03.047 6.03.046 1.172.339c3.298.95 5.786 3.115 6.98 6.072.627 1.551.715 2.098.775 4.809l.057 2.588.455.086c1.096.205 1.274.6 1.274 2.819 0 1.414.034 1.702.235 1.986.63.895 1.288 2.63 1.765 4.66.701 2.978.846 7.624.39 12.526a688 688 0 0 1-.82 7.957c-.495 4.549-1.069 10.284-1.069 10.682 0 .078.353.33.783.557 1.031.546 1.765 1.312 2.113 2.204.24.618.286 1.024.334 2.94.062 2.444.028 2.726-.373 3.1-.272.253-.316.253-28.802.253h-28.53Zm27.294-40.56a24 24 0 0 0-.17-1.033l-.085-.439-15.877-.032c-8.733-.017-15.879-.017-15.88 0s-.078.497-.17 1.066l-.169 1.034h32.435ZM67.235 70.046v-.97H56.333v1.941h10.902zm-12.219 53.348c-.043-.07.34-.694.85-1.387a40 40 0 0 0 1.606-2.374l.678-1.113 3.599-.006 3.598-.005.928 1.41a54 54 0 0 0 1.686 2.41c.516.68.711 1.03.611 1.094-.233.149-13.464.12-13.556-.029m-7.172-61.536c-2.199-.373-4.29-1.956-5.382-4.074-1.064-2.061-.978-.351-.978-19.451v-16.96l.352-.302.351-.303h19.667c19.414 0 19.669.004 19.913.248.136.136.28.376.318.532s.054 7.898.034 17.202c-.035 16.04-.049 16.952-.267 17.606-.685 2.045-2.045 3.696-3.79 4.6-2.034 1.053-.683.97-15.965.993-7.499.011-13.89-.03-14.253-.091m.97-9.558c0-5.133-.008-5.32-.252-5.63-.304-.386-.978-.631-1.427-.519-.18.045-.469.252-.644.46l-.317.377.036 4.287.036 4.286.376.605c.206.332.52.711.696.842.286.212 1.155.58 1.403.595.051.003.094-2.383.094-5.303m7.142-.01v-5.318l-.282-.323c-.55-.63-1.59-.623-2.09.014-.253.32-.26.464-.26 5.637v5.309h2.632zm7.267.087c0-4.964-.013-5.252-.244-5.632a1.29 1.29 0 0 0-1.67-.481c-.837.397-.842.432-.842 6.195v5.15h2.757zm7.143-.066c0-5.871.023-5.7-.823-6.054a1.33 1.33 0 0 0-1.493.294l-.315.315V57.61h2.631zm5.479 4.978c.353-.176.789-.513.97-.75.66-.865.694-1.138.694-5.508 0-3.827-.013-4.056-.247-4.353-.559-.71-1.576-.715-2.132-.008-.244.31-.253.497-.253 5.63 0 4.28.032 5.309.164 5.309.09 0 .451-.144.804-.32"/>
  <path fill="#919191" d="m50.648 134.037-.33-.26v-7.525l.408-.406c.435-.434 1.631-.948 2.207-.948.21 0 .466.125.643.313l.294.314h21.837c12.01 0 21.86-.042 21.888-.094.074-.138-.476-6.217-.917-10.119-1.078-9.554-1.044-9.116-1.05-13.47-.004-3.273.039-4.363.217-5.553.376-2.516.874-4.24 1.712-5.926l.754-1.517V87.32c0-1.27.041-1.608.246-2.009.244-.478.724-.76 1.292-.76.24 0 .245-.072.184-2.225-.046-1.598-.125-2.418-.279-2.913-.63-2.025-2.018-3.732-3.699-4.552-1.931-.941-2.903-1.056-9.116-1.077l-4.793-.015v.723c0 1.343-.613 2.048-1.856 2.138-.967.07-1.688-.272-1.92-.912l-.159-.44H68.99v.482c0 .62.215 1.257.55 1.627.145.161.676.483 1.18.715 1.252.58 3.143 1.848 4.346 2.916 3.268 2.902 5.343 6.546 6.293 11.05.35 1.66.311 5.748-.071 7.52-.896 4.156-2.806 7.611-5.755 10.41-2.83 2.686-5.939 4.333-9.683 5.13-1.64.35-4.72.472-6.433.256-4.24-.534-8.498-2.59-11.515-5.558-5.38-5.294-7.33-13.58-4.846-20.576 1.694-4.771 5.264-8.806 9.874-11.163 1.712-.875 1.65-.656 1.65-5.75v-4.114l-.577-.7c-.317-.385-.68-.902-.805-1.148-.214-.42-.623-1.805-.623-2.11 0-.1 2.55-.14 9.147-.14 5.031 0 9.147.026 9.147.057s-.063.355-.14.72c-.175.823-.615 1.721-1.252 2.556-.36.472-.487.757-.487 1.096v.458l4.605-.002 4.605-.003.188-.397c.321-.678.776-.914 1.748-.906 1.403.01 1.888.5 1.984 1.998l.06.924 6.03.047 6.03.046 1.172.339c3.291.949 5.789 3.122 6.98 6.072.627 1.551.715 2.098.775 4.811l.057 2.592.474.08c.528.089.96.43 1.137.897.065.17.118 1.032.118 1.915v1.606l.43.715c.904 1.501 1.688 4.246 2.02 7.075.44 3.757.272 7.151-.882 17.74-.518 4.754-1.067 10.23-1.067 10.647 0 .098.353.364.783.592 1.03.546 1.765 1.312 2.112 2.204.241.618.287 1.024.335 2.94.062 2.444.028 2.726-.373 3.1-.272.253-.316.253-28.802.253h-28.53Zm27.319-40.371a28 28 0 0 1-.156-1.066l-.083-.657H61.83c-8.743 0-15.899.014-15.9.03-.001.018-.078.497-.17 1.066l-.169 1.034H78.04Zm-10.732-23.62v-.972H56.333v1.942h10.902zm-12.219 53.347c-.043-.07.34-.694.85-1.387a40 40 0 0 0 1.606-2.374l.678-1.113 3.599-.006 3.598-.005.928 1.41a54 54 0 0 0 1.686 2.41c.516.68.711 1.03.611 1.094-.233.149-13.464.12-13.556-.029m-7.172-61.536c-2.199-.373-4.29-1.956-5.382-4.074-1.064-2.061-.978-.351-.978-19.451V21.373l.352-.302.351-.303h19.667c19.414 0 19.669.004 19.913.248.136.136.28.376.318.532s.054 7.898.034 17.202c-.035 16.04-.049 16.952-.267 17.606-.682 2.037-2.058 3.702-3.807 4.609-2.014 1.043-.677.96-15.948.983-7.499.012-13.89-.029-14.253-.09m.97-9.558c0-5.133-.008-5.32-.252-5.63-.304-.386-.978-.631-1.427-.519-.18.045-.469.252-.643.46l-.318.377.036 4.286.036 4.287.376.604c.207.333.52.712.696.843.286.212 1.155.58 1.403.595.051.003.094-2.383.094-5.303m7.142.01c0-5.871.024-5.7-.824-6.054-.743-.31-1.747.252-1.814 1.015-.012.138-.016 2.52-.008 5.294l.015 5.044h2.631zm7.268.067c-.001-4.964-.013-5.252-.245-5.632a1.29 1.29 0 0 0-1.67-.481c-.837.397-.842.432-.842 6.195v5.15h2.757zm7.142-.066c0-5.871.023-5.7-.823-6.054a1.33 1.33 0 0 0-1.493.294l-.315.315V57.61h2.631zm5.479 4.978c.353-.176.789-.513.97-.75.66-.865.694-1.138.694-5.508 0-3.827-.013-4.056-.247-4.353-.559-.71-1.576-.715-2.132-.008-.244.31-.253.497-.253 5.63 0 4.28.032 5.309.164 5.309.09 0 .451-.144.804-.32"/>
  <path fill="#707070" d="m50.648 134.037-.33-.26v-7.525l.408-.406c.435-.434 1.631-.948 2.207-.948.21 0 .466.125.643.313l.294.314h21.837c12.01 0 21.86-.042 21.888-.094.074-.138-.476-6.217-.917-10.119-1.078-9.554-1.044-9.116-1.05-13.47-.004-3.273.039-4.363.217-5.553.376-2.516.874-4.24 1.712-5.926l.754-1.517V87.32c0-1.27.041-1.608.246-2.009.244-.478.724-.76 1.292-.76.24 0 .245-.072.184-2.225-.07-2.448-.18-2.972-.938-4.477-.608-1.208-1.81-2.388-3.04-2.987-1.941-.945-3.134-1.086-9.241-1.087h-4.668v.72c0 1.31-.61 2.035-1.793 2.133-.96.08-1.756-.282-1.978-.899l-.164-.451H68.99v.482c0 .62.215 1.257.55 1.627.145.161.676.483 1.18.715 1.252.58 3.143 1.848 4.346 2.916 2.672 2.373 4.688 5.472 5.683 8.735.73 2.398.835 3.148.829 5.95-.007 2.83-.19 4.05-.949 6.324-2.213 6.63-7.85 11.626-14.78 13.101-1.64.35-4.718.472-6.432.256-4.24-.534-8.498-2.59-11.514-5.558-5.38-5.294-7.332-13.58-4.847-20.576 1.692-4.765 5.27-8.809 9.874-11.163 1.712-.875 1.65-.656 1.65-5.75v-4.114l-.577-.7c-.317-.385-.679-.902-.805-1.148-.214-.42-.623-1.805-.623-2.11 0-.1 2.55-.14 9.147-.14 5.031 0 9.148.026 9.148.057s-.064.355-.141.72c-.175.823-.615 1.721-1.252 2.556-.36.472-.487.757-.487 1.096v.458l4.605-.002 4.605-.003.188-.397c.321-.678.776-.914 1.748-.906 1.403.01 1.888.5 1.984 1.998l.06.924 6.03.047 6.03.046 1.172.339c3.291.949 5.789 3.122 6.98 6.072.627 1.551.715 2.098.775 4.811l.057 2.592.474.08c.528.089.96.43 1.137.897.065.17.118 1.032.118 1.916v1.605l.43.715c.904 1.501 1.688 4.246 2.02 7.075.44 3.758.272 7.154-.883 17.74-.516 4.734-1.066 10.224-1.066 10.647 0 .098.346.362.768.587 1.041.555 1.783 1.325 2.127 2.207.241.62.287 1.023.335 2.942.062 2.444.028 2.726-.373 3.1-.272.253-.316.253-28.802.253h-28.53Zm27.319-40.371a28 28 0 0 1-.156-1.066l-.083-.657H61.83c-8.743 0-15.899.014-15.9.03-.001.018-.078.497-.17 1.066l-.169 1.034H78.04Zm-10.732-23.62v-.972l-5.451-.006-5.451-.007v1.955h10.902zm-12.219 53.347c-.043-.07.34-.694.85-1.387a40 40 0 0 0 1.606-2.374l.678-1.113 3.599-.006 3.598-.005.928 1.41a54 54 0 0 0 1.686 2.41c.516.68.711 1.03.611 1.094-.233.149-13.464.12-13.556-.029m-7.172-61.536c-2.199-.373-4.29-1.956-5.382-4.074-1.064-2.061-.978-.351-.978-19.451V21.373l.352-.302.351-.303h19.667c19.414 0 19.669.004 19.913.248.136.136.28.376.318.532s.054 7.898.034 17.202c-.035 16.04-.049 16.952-.267 17.606-.682 2.037-2.058 3.702-3.807 4.609-2.014 1.043-.677.96-15.948.983-7.499.012-13.89-.029-14.253-.09m.97-9.558c0-5.133-.008-5.32-.252-5.63-.304-.386-.978-.631-1.427-.519-.18.045-.469.252-.643.46l-.318.377.036 4.286.036 4.287.376.604c.207.333.52.712.696.843.286.212 1.155.58 1.403.595.051.003.094-2.383.094-5.303m7.142.01c0-5.871.024-5.7-.824-6.054-.743-.31-1.747.252-1.814 1.015-.012.138-.016 2.52-.008 5.294l.015 5.044h2.631zm7.268.067c-.001-4.964-.013-5.252-.245-5.632a1.29 1.29 0 0 0-1.67-.481c-.837.397-.842.432-.842 6.195v5.15h2.757zm7.142-.066c0-5.88.025-5.7-.835-6.06-.328-.137-.539-.148-.91-.048-.907.244-.886.102-.886 6.076v5.33h2.631zm5.479 4.978c.353-.176.789-.513.97-.75.66-.865.694-1.138.694-5.508 0-3.827-.013-4.056-.247-4.353-.559-.71-1.576-.715-2.132-.008-.244.31-.253.497-.253 5.63 0 4.28.032 5.309.164 5.309.09 0 .451-.144.804-.32"/>
  <path fill="#515151" d="m50.648 134.037-.33-.26v-7.525l.408-.406c.435-.434 1.631-.948 2.207-.948.21 0 .466.125.643.313l.294.314h21.837c12.01 0 21.86-.042 21.888-.094.074-.138-.476-6.217-.917-10.119-1.067-9.457-1.041-9.122-1.049-13.47-.005-3.284.036-4.36.215-5.553.378-2.518.876-4.24 1.713-5.926l.754-1.517V87.32c0-1.27.041-1.608.246-2.009.244-.478.724-.76 1.292-.76.24 0 .245-.072.184-2.225-.07-2.448-.18-2.972-.938-4.477-.608-1.208-1.81-2.388-3.04-2.987-1.947-.948-3.127-1.088-9.175-1.088h-4.734v.72c0 1.31-.61 2.036-1.793 2.134-.96.08-1.756-.282-1.978-.899l-.164-.451H68.99v.482c0 .62.215 1.257.55 1.627.145.161.676.483 1.18.715 1.252.58 3.143 1.848 4.346 2.916 3.258 2.893 5.327 6.528 6.29 11.05.353 1.656.316 5.74-.068 7.52-.916 4.246-2.779 7.6-5.817 10.471-2.778 2.627-5.854 4.247-9.635 5.076-1.517.332-4.755.458-6.413.25-4.249-.535-8.407-2.539-11.49-5.537-5.392-5.244-7.367-13.587-4.877-20.598 1.697-4.778 5.268-8.805 9.922-11.186 1.657-.848 1.602-.651 1.602-5.726v-4.115l-.577-.7c-.317-.385-.679-.902-.805-1.148-.214-.42-.623-1.805-.623-2.11 0-.1 2.55-.14 9.147-.14 5.031 0 9.148.026 9.148.057s-.064.355-.141.72c-.175.823-.615 1.721-1.252 2.556-.36.472-.487.757-.487 1.096v.458l4.605-.002 4.605-.003.188-.397c.321-.678.776-.914 1.748-.906 1.403.01 1.888.5 1.984 1.998l.06.924 6.03.047 6.03.046 1.172.339c3.291.949 5.789 3.122 6.98 6.072.627 1.551.715 2.098.775 4.811l.057 2.592.474.08c.528.089.96.43 1.137.897.065.17.118 1.045.118 1.943 0 1.446.03 1.674.257 1.994.371.52.918 1.775 1.292 2.962 1.33 4.229 1.444 9.64.392 18.706-.503 4.326-1.44 13.502-1.44 14.094 0 .097.346.361.768.586 1.041.555 1.783 1.325 2.127 2.207.241.62.287 1.023.335 2.942.062 2.444.028 2.726-.373 3.1-.272.253-.316.253-28.802.253h-28.53Zm27.319-40.371a28 28 0 0 1-.156-1.066l-.083-.657H61.83c-8.743 0-15.899.014-15.9.03-.001.018-.078.497-.17 1.066l-.169 1.034H78.04ZM67.235 70.042v-.975l-5.451-.015-5.451-.014v1.978h10.902zm-12.219 53.351c-.043-.07.34-.694.85-1.387a40 40 0 0 0 1.606-2.374l.678-1.114 3.599-.005 3.598-.005.928 1.41c.51.775 1.268 1.86 1.686 2.41.516.68.711 1.03.611 1.094-.233.149-13.464.12-13.556-.029m-7.172-61.536c-2.202-.374-4.295-1.966-5.399-4.106-1.044-2.024-.96-.343-.96-19.42V21.374l.35-.302.352-.303h19.667c19.414 0 19.669.004 19.913.248.136.136.28.376.318.532s.054 7.898.034 17.202c-.035 16.096-.048 16.95-.27 17.606q-1.088 3.225-3.963 4.693c-1.854.946-.624.876-15.789.9-7.499.01-13.89-.03-14.253-.092m.97-9.557c0-5.133-.008-5.32-.252-5.63-.3-.381-.977-.632-1.413-.522-.171.043-.461.234-.643.424l-.332.346.036 4.322.036 4.321.376.604c.207.333.52.712.696.843.286.212 1.155.58 1.403.595.051.003.094-2.383.094-5.303m7.142.01c0-5.871.024-5.7-.824-6.054-.773-.323-1.756.26-1.821 1.077-.014.173-.016 2.555-.006 5.295l.02 4.98h2.631zm7.268.067c-.001-4.964-.013-5.252-.245-5.632a1.29 1.29 0 0 0-1.67-.481c-.837.397-.842.432-.842 6.195v5.15h2.757zm7.142-.066c0-5.88.025-5.7-.835-6.06-.328-.137-.539-.148-.91-.048-.907.244-.886.102-.886 6.076v5.33h2.631zm5.479 4.978c.353-.176.789-.513.97-.75.66-.865.694-1.138.694-5.508 0-3.827-.013-4.056-.247-4.353-.559-.71-1.576-.715-2.132-.008-.244.31-.253.497-.253 5.63 0 4.28.032 5.309.164 5.309.09 0 .451-.144.804-.32"/>
  <path fill="#2f2f2f" d="m50.626 133.989-.308-.308v-7.43l.408-.405c.435-.434 1.631-.948 2.207-.948.21 0 .466.125.643.313l.294.314h21.837c12.01 0 21.86-.042 21.888-.094s-.08-1.588-.241-3.415c-.294-3.35-.362-4.002-1.038-10.024-.677-6.024-.798-7.912-.722-11.278.113-4.947.628-7.664 1.963-10.35l.754-1.518V87.32c0-1.27.041-1.608.246-2.009.244-.478.724-.76 1.292-.76.24 0 .245-.072.184-2.225-.047-1.61-.124-2.414-.28-2.913-1.017-3.232-3.338-5.051-7.018-5.5-.636-.078-3.193-.138-5.858-.139h-4.73l-.001.72c0 1.316-.609 2.036-1.804 2.135-.932.077-1.752-.305-1.975-.921l-.156-.43H68.99v.482c0 .62.215 1.257.55 1.627.145.161.676.483 1.18.715.502.233 1.461.784 2.13 1.225 9.495 6.265 11.675 19.234 4.768 28.367-2.851 3.77-7.007 6.388-11.823 7.45-1.46.321-4.821.448-6.391.24-4.805-.633-9.329-3.02-12.444-6.565-4.688-5.335-6.224-13.035-3.904-19.57 1.697-4.777 5.254-8.79 9.901-11.169 1.68-.86 1.623-.658 1.623-5.742v-4.115l-.577-.7c-.317-.385-.679-.902-.805-1.148-.214-.42-.623-1.805-.623-2.111 0-.1 2.55-.139 9.147-.139 5.031 0 9.148.026 9.148.057s-.064.355-.141.72c-.18.85-.748 1.98-1.304 2.594-.348.386-.435.585-.435 1v.516l4.605-.002 4.605-.003.188-.397c.311-.658.782-.914 1.67-.91 1.435.009 1.967.52 2.06 1.986l.061.94 6.03.049c6.799.055 6.856.061 9.093 1.107a10.06 10.06 0 0 1 5.143 5.516c.598 1.55.754 2.596.754 5.06v2.17l.47.082c1.059.183 1.284.675 1.284 2.807v1.627l.445.746c.938 1.575 1.769 4.617 2.06 7.542.298 2.999.15 7.178-.447 12.656l-.562 5.137c-.352 3.203-.995 9.731-.995 10.099 0 .089.346.346.768.571 1.041.555 1.783 1.325 2.127 2.207.244.625.288 1.018.336 3.01.06 2.488-.012 2.898-.551 3.144-.228.104-7.882.141-28.755.141H50.933Zm27.34-40.323a28 28 0 0 1-.155-1.066l-.083-.657H61.83c-8.743 0-15.899.014-15.9.03-.001.018-.078.497-.17 1.066l-.169 1.034H78.04Zm-10.73-23.638v-.988l-5.451-.01-5.451-.011v1.997h10.902zM55.09 123.404c-.14-.09-.008-.34.644-1.22.966-1.304 2.353-3.405 2.353-3.565 0-.063 1.591-.111 3.63-.111h3.63l.928 1.41c.51.775 1.268 1.86 1.686 2.41.516.681.711 1.03.611 1.094-.211.135-13.268.117-13.482-.018m-7.246-61.549c-2.194-.365-4.295-1.962-5.399-4.104-1.044-2.024-.96-.343-.96-19.42V21.374l.35-.302.352-.303h19.667c19.414 0 19.669.004 19.913.248.136.136.28.376.318.532s.054 7.898.034 17.202c-.035 16.096-.048 16.95-.27 17.606-.761 2.255-2.224 3.906-4.311 4.866-1.68.772-1.52.765-15.942.753-7.202-.005-13.39-.06-13.752-.12m.97-9.555c0-5.133-.008-5.32-.252-5.63-.3-.381-.977-.632-1.413-.522-.171.043-.461.234-.644.424l-.331.346.036 4.322.036 4.321.376.604c.206.333.52.712.696.843.286.212 1.155.58 1.403.595.051.003.094-2.383.094-5.303m7.145-.012c-.01-5.84.013-5.68-.846-6.04-.381-.159-.514-.162-.886-.02-.24.09-.554.323-.697.514-.24.322-.259.499-.235 2.256.014 1.049.026 3.417.027 5.263l.003 3.356 1.321-.036 1.321-.035zm7.264.089c0-4.964-.013-5.252-.244-5.632a1.29 1.29 0 0 0-1.67-.481c-.837.397-.842.432-.842 6.195v5.15h2.757zm7.143-.066c0-5.88.025-5.7-.835-6.06-.328-.137-.539-.148-.91-.048-.907.244-.886.102-.886 6.076v5.33h2.631zm5.479 4.978c.353-.176.789-.513.97-.75.66-.865.694-1.138.694-5.508 0-3.827-.013-4.056-.247-4.353-.559-.71-1.576-.715-2.132-.008-.244.31-.253.497-.253 5.63 0 4.28.032 5.309.164 5.309.09 0 .451-.144.804-.32"/>
  <path d="m50.626 133.989-.308-.308v-7.438l.438-.412c.471-.445 1.61-.933 2.177-.933.21 0 .466.125.643.313l.294.314h21.837c12.01 0 21.86-.042 21.888-.094.074-.135-.58-7.348-.966-10.683-.861-7.41-1.073-9.977-1.074-12.969 0-5.158.591-8.515 2.012-11.419l.744-1.52v-1.524c0-1.267.041-1.605.246-2.006.244-.478.724-.76 1.292-.76.24 0 .245-.072.184-2.225-.047-1.61-.124-2.414-.28-2.913-1.02-3.244-3.325-5.05-7.018-5.5-.634-.078-3.199-.138-5.858-.139h-4.73l-.001.72c0 .832-.269 1.456-.792 1.84-.277.203-.542.26-1.213.26-.978 0-1.434-.238-1.754-.914l-.188-.397-4.605-.002-4.605-.003v.482c0 .609.214 1.255.53 1.606.135.149.818.558 1.518.91 3.546 1.777 6.738 4.992 8.531 8.593 1.313 2.635 1.922 5.036 2.038 8.035.114 2.937-.302 5.462-1.338 8.111-.996 2.546-2.385 4.623-4.5 6.728-3.617 3.6-8.01 5.525-13.055 5.72-4.423.17-8.065-.836-11.893-3.284-4.104-2.624-7.288-7.319-8.38-12.355-.954-4.407-.43-8.684 1.557-12.705a19.7 19.7 0 0 1 5.408-6.743c1.26-1.008 2.01-1.494 3.507-2.266 1.73-.894 1.667-.673 1.667-5.772v-4.115l-.577-.7c-.317-.385-.679-.902-.805-1.148-.214-.42-.623-1.805-.623-2.111 0-.1 2.55-.139 9.147-.139 5.031 0 9.148.026 9.148.057s-.064.355-.141.72c-.182.855-.636 1.765-1.251 2.504-.391.47-.488.687-.488 1.096v.51l4.605-.002 4.605-.003.188-.397c.307-.65.758-.894 1.657-.9 1.45-.01 2.013.528 2.06 1.963l.029.906 5.99.07c5.663.067 6.048.086 7.05.349 1.144.3 3.057 1.164 3.764 1.7 1.516 1.146 2.85 2.897 3.507 4.6.598 1.55.754 2.596.754 5.057v2.168l.47.087c1.042.193 1.284.721 1.284 2.807v1.627l.445.746c.94 1.58 1.76 4.6 2.065 7.604.304 3.012.143 7.187-.506 13.095-.757 6.89-1.018 9.359-1.247 11.812-.14 1.5-.256 2.808-.256 2.906s.346.363.768.588c1.041.555 1.783 1.325 2.127 2.207.244.625.288 1.018.336 3.01.06 2.488-.012 2.898-.551 3.144-.228.104-7.882.141-28.755.141H50.933Zm27.337-40.386a89 89 0 0 1-.15-1.065l-.081-.595h-15.9c-8.745 0-15.9.014-15.902.03-.001.018-.078.497-.17 1.066l-.169 1.034h32.442Zm-10.728-23.59v-1.002H56.333v2.005h10.902zm-12.145 53.39c-.14-.088 0-.35.684-1.267.928-1.247 2.313-3.358 2.313-3.525 0-.057 1.634-.103 3.63-.103h3.63l.928 1.41c.51.775 1.268 1.86 1.686 2.41.468.618.706 1.033.623 1.085-.208.128-13.29.12-13.494-.01m-7.246-61.548c-2.906-.484-5.367-2.934-6.16-6.13-.264-1.066-.265-1.13-.233-17.71l.033-16.642.352-.302.351-.303h19.667c19.414 0 19.669.004 19.913.248.136.136.28.376.318.532s.054 7.898.034 17.202c-.035 16.096-.048 16.95-.27 17.606-.755 2.238-2.082 3.754-4.182 4.779-1.785.871-1.416.852-16.071.84-7.202-.005-13.39-.06-13.752-.12m.97-9.555c0-5.133-.008-5.32-.252-5.63-.3-.381-.977-.632-1.413-.522-.171.043-.461.234-.644.424l-.331.346.036 4.322.036 4.321.376.604c.206.333.52.712.696.843.286.212 1.155.58 1.403.595.051.003.094-2.383.094-5.303m7.171.014c-.037-5.955-.004-5.748-.986-6.096-.594-.21-1.049-.047-1.475.53-.247.334-.26.495-.24 2.882.012 1.39.026 3.754.031 5.253l.01 2.726h2.694zm7.238.063c0-4.964-.013-5.252-.244-5.632a1.29 1.29 0 0 0-1.67-.481c-.837.397-.842.432-.842 6.195v5.15h2.757zm7.143-.077c0-5.088-.01-5.322-.246-5.622-.377-.479-.879-.642-1.48-.48-.93.25-.905.09-.905 6.08v5.33h2.631zm5.725 4.86c.288-.167.642-.47.786-.671.593-.834.632-1.167.632-5.465v-4.047l-.321-.382c-.402-.478-1.008-.612-1.536-.339-.798.413-.775.23-.775 6.069v5.31l.345-.084c.19-.047.58-.222.869-.39"/>
</svg>
