<svg xmlns="http://www.w3.org/2000/svg" width="150" height="150">
  <path fill="#d2d2d2" d="M37.813 126.13c-6.792-.679-13.235-3.979-17.175-8.798-3.932-4.809-5.636-10.264-5.393-17.27.257-7.455 2.448-13.525 8.766-24.283 2.965-5.05 3.618-6.224 4.682-8.423 1.814-3.75 2.43-6.07 2.432-9.155.003-4.817-2.025-11.748-4.96-16.945-.623-1.102-1.18-2.163-1.24-2.356-.146-.476.15-1.16.593-1.368.265-.125 7.138-.171 25.537-.171H76.23l.384.313c.604.491.527 1.2-.275 2.533-2.037 3.389-3.755 7.722-4.81 12.136-.731 3.054-.82 4.148-.293 3.64.408-.395 8.945-4.902 9.397-4.962.653-.087.993.155 1.232.877l.18.543 10.443-6.194c5.744-3.407 12.481-7.405 14.972-8.887 18.834-11.199 18.619-11.074 19.992-11.555 3.305-1.158 6.633-.154 8.509 2.567 1.046 1.517 1.3 2.39 1.295 4.451-.004 1.534-.05 1.85-.389 2.682-.892 2.185-2.41 3.778-4.717 4.95-.723.367-3.517 1.652-6.21 2.855a5210.492 5394.526 0 0 0-9.495 4.259 4731 4731 0 0 1-7.743 3.475 5013.923 5191.014 0 0 0-7.013 3.146c-2.129.957-6.665 2.984-10.08 4.504s-6.227 2.777-6.248 2.792.066.287.194.603c.287.711.184 1.178-.343 1.567-.42.31-7.082 3.785-9.525 4.968-.762.369-1.405.692-1.43.718-.062.064 2.449 4.598 4.78 8.63 4.306 7.453 6.224 12.307 7.198 18.222.455 2.768.458 7.69.006 10.103-.588 3.136-1.74 6.17-3.258 8.581-4.002 6.354-10.973 10.473-19.059 11.263-1.921.187-24.217.178-26.111-.011"/>
  <path fill="#8f8f8f" d="M37.813 126.13c-6.215-.621-12.062-3.389-16.11-7.626-5.6-5.862-7.646-14.014-5.91-23.56.994-5.47 3.21-10.638 8.218-19.165 2.965-5.05 3.618-6.224 4.682-8.423 1.814-3.75 2.43-6.07 2.432-9.155.003-4.817-2.025-11.748-4.96-16.945-.623-1.102-1.18-2.163-1.24-2.356-.146-.476.15-1.16.593-1.368.265-.125 7.138-.171 25.537-.171H76.23l.384.313c.604.491.527 1.2-.275 2.533-2.037 3.389-3.755 7.722-4.81 12.136-.731 3.054-.82 4.148-.293 3.64.408-.395 8.945-4.902 9.397-4.962.652-.087.993.155 1.232.877l.18.542 10.881-6.454a26860 26860 0 0 0 29.362-17.432c4.08-2.431 5.04-2.869 6.945-3.162 2.565-.395 5.209.776 6.728 2.98 1.046 1.518 1.3 2.39 1.294 4.451-.004 1.545-.05 1.85-.403 2.723-.847 2.097-2.448 3.768-4.702 4.908-.723.366-4.043 1.887-7.378 3.38a69637.542 72097.132 0 0 0-19.796 8.872 11396 11396 0 0 1-19.606 8.773c-.016.01.08.33.212.712.403 1.162.419 1.15-5.706 4.295-2.988 1.534-5.488 2.808-5.556 2.832-.139.048 1.827 3.655 4.716 8.654 4.306 7.45 6.22 12.293 7.2 18.222.256 1.545.314 2.51.314 5.223 0 3.025-.035 3.5-.389 5.233-.647 3.17-1.684 5.855-3.178 8.228-4.002 6.354-10.973 10.473-19.059 11.263-1.921.187-24.217.178-26.111-.011"/>
  <path fill="#696969" d="M38.577 126.204c-7.537-.792-13.663-3.764-17.704-8.589-5.021-5.995-6.728-13.609-5.08-22.67.995-5.474 3.147-10.497 8.187-19.107 3.101-5.299 3.655-6.295 4.713-8.482 1.814-3.75 2.43-6.07 2.432-9.155.003-4.817-2.025-11.748-4.96-16.945-.623-1.102-1.18-2.163-1.24-2.356-.146-.476.15-1.16.593-1.368.265-.125 7.138-.171 25.537-.171H76.23l.384.313c.55.447.522 1.22-.075 2.19-2.49 4.048-4.78 10.228-5.553 14.993-.182 1.122-.129 1.423.203 1.148.586-.485 9-4.925 9.444-4.984.652-.087.993.155 1.232.877l.18.542 10.881-6.454a26860 26860 0 0 0 29.362-17.432c4.039-2.407 5.014-2.855 6.869-3.153 3.288-.528 6.586 1.515 7.791 4.826.254.698.31 1.18.307 2.596-.004 1.545-.05 1.85-.403 2.723-.51 1.26-1.482 2.605-2.547 3.52-1.046.9-2.22 1.496-8.364 4.244a12436.852 12876.12 0 0 0-10.957 4.91c-6.166 2.767-21.355 9.57-26.662 11.94a497 497 0 0 0-2.957 1.326c-.02.012.07.298.198.637.446 1.176.49 1.142-5.642 4.315-3.013 1.56-5.536 2.856-5.606 2.88-.153.054 1.076 2.318 4.125 7.596 4.873 8.436 6.792 13.182 7.794 19.28.252 1.534.312 2.529.314 5.223.003 3.032-.032 3.496-.387 5.233-.863 4.226-2.383 7.519-4.907 10.63-3.021 3.723-7.658 6.657-12.655 8.008-3.458.934-3.085.914-16.874.943-6.95.015-12.867.002-13.148-.027"/>
  <path fill="#484848" d="M38.65 126.204a299 299 0 0 0-1.811-.222c-6.074-.73-12.308-3.997-15.965-8.367-5.022-5.999-6.728-13.612-5.081-22.67.995-5.474 3.147-10.497 8.187-19.107 3.103-5.301 3.665-6.312 4.718-8.488 1.805-3.726 2.426-6.048 2.428-9.073.002-4.899-2.006-11.788-4.961-17.021-.623-1.102-1.18-2.163-1.24-2.356-.146-.476.15-1.16.593-1.368.265-.125 7.138-.171 25.537-.171H76.23l.384.313c.548.446.522 1.22-.073 2.19-2.539 4.143-4.754 10.123-5.556 15-.183 1.112-.129 1.416.204 1.142.262-.217 8.148-4.511 8.808-4.797 1.021-.442 1.559-.243 1.868.689l.18.542 10.881-6.454c5.985-3.55 14.76-8.758 19.501-11.574 13.892-8.252 13.706-8.145 15.013-8.603 3.414-1.195 6.758-.109 8.71 2.83.68 1.022 1.06 2.238 1.149 3.672.211 3.414-1.665 6.38-5.15 8.142-.722.366-5.489 2.535-10.591 4.821s-11.808 5.294-14.902 6.685a8325 8325 0 0 1-20.307 9.084c-.522.232-.965.432-.984.443s.07.298.198.637c.446 1.176.49 1.142-5.642 4.314-3.013 1.559-5.536 2.855-5.606 2.88-.153.056 1.073 2.314 4.125 7.597 4.873 8.436 6.792 13.182 7.794 19.28.252 1.534.312 2.529.314 5.223.003 3.032-.032 3.496-.387 5.233-1.503 7.36-5.52 12.861-11.966 16.388-2.52 1.378-5.172 2.29-8.445 2.905-1.235.232-2.775.264-14.025.29-6.95.015-12.834.002-13.075-.03"/>
  <path fill="#2d2d2d" d="M38.65 126.204c-.241-.032-1.063-.132-1.826-.223-3.139-.375-7.077-1.717-9.935-3.386-4.699-2.745-8.418-7.151-10.141-12.017-2.022-5.706-2.07-12.232-.14-19.112 1.148-4.096 3.331-8.725 7.372-15.628 3.103-5.301 3.665-6.312 4.718-8.488 1.805-3.726 2.426-6.048 2.428-9.073.002-4.899-2.006-11.788-4.961-17.021-.623-1.102-1.18-2.163-1.24-2.356-.146-.476.15-1.16.593-1.368.265-.125 7.138-.171 25.537-.171H76.23l.384.313c.609.496.528 1.199-.296 2.565-1.39 2.303-2.796 5.451-3.818 8.542-.785 2.374-1.827 7.038-1.62 7.252.042.043 1.255-.574 2.696-1.371 4.853-2.684 6.818-3.688 7.212-3.688.536 0 .864.28 1.077.924l.18.542 10.881-6.454c5.985-3.55 14.76-8.758 19.501-11.574 13.892-8.252 13.706-8.145 15.013-8.603 3.414-1.195 6.758-.109 8.71 2.83.68 1.022 1.06 2.238 1.149 3.672.211 3.414-1.665 6.381-5.15 8.142-.722.366-6.278 2.89-12.344 5.61a72352.906 74908.402 0 0 0-15.413 6.912 11593 11593 0 0 1-18.043 8.068 60 60 0 0 0-.984.443c-.02.012.07.298.198.637.446 1.176.49 1.142-5.642 4.314-3.013 1.559-5.537 2.855-5.609 2.881-.142.052 1.686 3.399 4.727 8.654 3.45 5.965 5.568 10.824 6.557 15.05.787 3.36.96 4.897.957 8.47-.003 2.934-.042 3.439-.392 5.158-1.5 7.356-5.52 12.861-11.966 16.388-2.52 1.378-5.172 2.29-8.445 2.905-1.235.232-2.775.264-14.025.29-6.95.015-12.834.002-13.075-.03"/>
  <path fill="#151515" d="M38.65 126.204c-.241-.032-1.063-.132-1.826-.223-3.139-.375-7.077-1.717-9.935-3.386-4.699-2.745-8.418-7.151-10.141-12.017-2.022-5.706-2.07-12.232-.14-19.112 1.143-4.079 3.348-8.754 7.372-15.628 3.103-5.301 3.665-6.312 4.718-8.488 1.815-3.746 2.43-6.056 2.425-9.116-.008-5.22-2.297-12.676-5.547-18.066-.304-.504-.6-1.075-.656-1.268-.14-.479.158-1.16.598-1.368.265-.125 7.138-.171 25.537-.171H76.23l.384.313c.609.496.528 1.199-.296 2.565-1.39 2.303-2.796 5.451-3.818 8.542-.815 2.464-1.825 7.039-1.605 7.267.05.05.243-.008.43-.13.588-.382 8.1-4.462 8.672-4.71.3-.128.7-.234.892-.234.445 0 .916.488 1.028 1.067l.087.452.53-.326c.29-.179 5.196-3.095 10.901-6.48s14.481-8.594 19.503-11.576c11.831-7.024 11.9-7.065 12.93-7.601 1.93-1.006 3.701-1.37 5.369-1.103 3.757.602 6.327 3.953 6.065 7.909-.21 3.172-2.21 5.787-5.664 7.41a706 706 0 0 1-5.77 2.608c-2.652 1.188-7.813 3.504-11.469 5.146l-10.518 4.723a11528 11528 0 0 1-17.532 7.838c-.522.233-.965.434-.984.445s.07.298.198.637c.447 1.176.49 1.142-5.642 4.313-3.013 1.558-5.536 2.854-5.606 2.88-.147.055 1.015 2.21 3.851 7.144 2.798 4.868 3.376 5.947 4.597 8.578 1.299 2.797 2.24 5.45 2.833 7.984.787 3.36.96 4.897.957 8.47-.003 2.934-.042 3.439-.392 5.158-.472 2.315-1.068 4.108-2.028 6.1-2.924 6.065-8.514 10.604-15.388 12.493-3.58.983-3.15.958-17.02.99-6.95.015-12.834.002-13.075-.03"/>
  <path d="M38.65 126.204c-.241-.032-1.063-.132-1.826-.223-2.02-.241-4.92-1.04-7.02-1.936-8.306-3.538-13.534-10.668-14.454-19.716-.52-5.108.34-10.974 2.38-16.225 1.332-3.426 3.133-6.896 7.26-13.989 5.24-9.002 6.276-11.852 6.083-16.713-.209-5.238-2.394-12.088-5.497-17.234-.304-.504-.6-1.075-.656-1.268-.14-.479.159-1.16.598-1.368.265-.125 7.138-.171 25.537-.171H76.23l.384.313c.64.522.53 1.17-.505 2.939-1.945 3.329-3.506 7.26-4.502 11.344-.495 2.032-.84 3.96-.727 4.075.04.042 1.943-.95 4.229-2.205 4.611-2.532 5.261-2.853 5.774-2.853.45 0 .922.486 1.034 1.067l.087.452.53-.324c.29-.178 7.07-4.205 15.065-8.949s16.771-9.953 19.503-11.577c8.82-5.244 9.094-5.398 10.338-5.834 5.241-1.836 10.236 1.967 9.86 7.507-.13 1.916-.929 3.661-2.342 5.116-1.21 1.247-2.323 1.903-5.876 3.463a851 851 0 0 0-4.675 2.088 13962 13962 0 0 1-28.561 12.81c-8.531 3.814-10.356 4.632-10.481 4.697-.02.01.07.294.198.633.447 1.176.49 1.142-5.642 4.313-3.013 1.558-5.536 2.854-5.606 2.88-.147.055 1.03 2.238 3.854 7.144 4.35 7.558 5.94 10.997 7.134 15.428 3.364 12.479.248 23.236-8.572 29.59-2.86 2.06-6.551 3.59-10.616 4.397-1.55.308-2.061.32-14.317.353-6.99.018-12.907.008-13.148-.024"/>
</svg>
