<svg xmlns="http://www.w3.org/2000/svg" width="150" height="150">
  <path fill="#d4d4d4" d="M70.091 132.018c-13.317-.454-23.644-2.24-26.935-4.655-1.266-.93-1.462-1.833-.605-2.782 1.15-1.274 4.639-2.374 8.457-2.667.658-.05 1.216-.131 1.24-.178s-.125-1.02-.333-2.162l-.378-2.076 11.926-.037c6.56-.02 17.294-.02 23.855 0l11.93.037-.378 2.116-.377 2.115.295.058c.163.031 1.11.158 2.106.282 3.347.417 6.104 1.348 7.184 2.428.45.45.527.62.527 1.17 0 .567-.073.716-.609 1.25-.808.804-2.25 1.537-4.259 2.164-5.458 1.702-12.945 2.634-23.695 2.95-5.016.148-5.264.147-9.95-.013M46.933 109.23c-3.973-5.565-4.546-6.443-5.112-7.836l-.437-1.077-.038-28.599-.037-28.599h68.158l-.038 28.6-.038 28.598-.42 1.068c-.475 1.202-2.286 3.964-5.918 9.026l-2.414 3.364-25.205.037-25.205.036zm2.796-59.748c.817-.572.926-1.705.232-2.4-1.07-1.07-2.858-.11-2.578 1.382.192 1.021 1.519 1.597 2.346 1.018m5.656.068c1.195-.544.994-2.472-.298-2.86-1.496-.447-2.59 1.48-1.473 2.597.454.453 1.132.554 1.77.263m6.27-.263c.565-.565.59-1.504.057-2.137-1.192-1.416-3.353.239-2.406 1.842.49.83 1.667.977 2.35.295m5.8-.068c.361-.36.488-.612.487-.967 0-.728-.46-1.365-1.127-1.565-.495-.148-.63-.135-1.045.104-.676.389-1.013 1.125-.826 1.803.192.696.737 1.112 1.457 1.112.455 0 .665-.097 1.055-.487m5.763.282c.462-.238.737-.767.737-1.417 0-.967-1.015-1.688-1.943-1.382-.686.226-1.064.762-1.064 1.508 0 1.182 1.182 1.854 2.27 1.291m6.12-.282c.552-.552.632-1.109.263-1.823-.27-.523-1.068-.894-1.648-.766-1.101.242-1.532 1.84-.716 2.657.619.619 1.441.592 2.101-.068m5.753.263c.355-.249.747-.924.747-1.287 0-.504-.463-1.193-.962-1.43-1.031-.49-2.186.296-2.187 1.487 0 .711.78 1.453 1.528 1.453.306 0 .699-.1.874-.223m5.88.02c1.097-.567.94-2.304-.251-2.798-.911-.377-2.023.402-2.013 1.41.012 1.264 1.153 1.963 2.265 1.387m6.045-.214c.816-.816.385-2.415-.716-2.657-.58-.128-1.378.244-1.648.766-.37.714-.289 1.271.263 1.823.66.66 1.482.687 2.101.068m5.618.259c.824-.422 1.09-1.597.525-2.316-.927-1.18-2.718-.487-2.718 1.051 0 .626.8 1.425 1.427 1.425.25 0 .594-.072.766-.16M41.313 30.585c0-7.308.035-8.879.202-9.2.272-.518.925-1.12 1.418-1.307.28-.106 10.172-.153 32.503-.153 30.992 0 32.117.01 32.595.266.272.146.69.506.928.8l.433.536.04 8.935.038 8.935H41.313Z"/>
  <path fill="#979797" d="M70.02 132.005c-12.987-.399-23.576-2.228-26.864-4.642-1.266-.93-1.462-1.833-.605-2.782 1.15-1.274 4.639-2.374 8.457-2.667.658-.05 1.216-.131 1.24-.178s-.125-1.02-.333-2.162l-.378-2.076 11.926-.037c6.56-.02 17.294-.02 23.855 0l11.93.037-.378 2.116-.377 2.115.295.058c.163.031 1.11.158 2.106.282 3.347.417 6.104 1.348 7.184 2.428.45.45.527.62.527 1.17 0 .567-.073.716-.609 1.25-2.249 2.238-9.654 3.972-20.305 4.754-3.082.226-12.182.54-13.662.47a430 430 0 0 0-4.01-.136M46.935 109.23c-3.973-5.565-4.546-6.443-5.112-7.836l-.437-1.077-.038-28.599-.037-28.599h68.158l-.038 28.6-.038 28.598-.42 1.068c-.475 1.202-2.286 3.964-5.918 9.026l-2.414 3.364-25.205.037-25.205.036zm2.796-59.748c.817-.573.926-1.705.232-2.4-1.07-1.07-2.858-.11-2.578 1.382.192 1.021 1.519 1.597 2.346 1.018m5.656.068c1.195-.544.994-2.472-.298-2.86-1.496-.447-2.59 1.48-1.473 2.597.454.453 1.132.554 1.77.263m6.27-.263c.339-.339.419-.542.419-1.063 0-1.15-.912-1.862-1.945-1.521-.908.3-1.333 1.42-.862 2.27.458.827 1.71.992 2.388.314m5.802-.068c.36-.36.487-.612.486-.967 0-.728-.46-1.365-1.127-1.565-.495-.148-.63-.135-1.045.104-.676.389-1.013 1.125-.826 1.803.192.696.737 1.111 1.457 1.111.455 0 .665-.097 1.055-.486m5.875.233c.42-.34.625-.785.625-1.352 0-.982-1.007-1.707-1.943-1.398-1.649.544-1.308 3.01.415 3 .349-.002.725-.106.903-.25m6.008-.233c.552-.552.632-1.109.263-1.823-.27-.523-1.068-.894-1.648-.766-1.101.241-1.532 1.84-.716 2.657.619.619 1.441.592 2.101-.068m5.754.263c.354-.249.747-.924.747-1.287 0-.504-.464-1.194-.963-1.43-1.031-.49-2.185.296-2.187 1.487 0 .711.78 1.453 1.528 1.453.306 0 .7-.1.875-.223m5.88.02c1.097-.568.94-2.304-.252-2.798-.91-.377-2.023.402-2.013 1.41.012 1.264 1.153 1.963 2.265 1.387m5.941-.09c.7-.55.736-1.67.078-2.37-1.14-1.213-3.113.297-2.408 1.844.36.788 1.631 1.075 2.33.525m5.722.135c.824-.421 1.091-1.596.525-2.315-.927-1.18-2.718-.487-2.718 1.05 0 .627.8 1.425 1.427 1.425.25 0 .594-.072.766-.16m-61.324-18.96c0-7.308.035-8.879.202-9.2.272-.518.925-1.12 1.418-1.307.28-.106 10.162-.153 32.47-.153 31.736 0 32.074.003 32.627.285.307.157.74.523.96.812l.402.527.04 8.924.038 8.924H41.313Z"/>
  <path fill="#6b6b6b" d="M70.216 132.02c-13.297-.438-23.76-2.234-27.04-4.642-1.286-.945-1.487-1.843-.625-2.797 1.15-1.274 4.639-2.374 8.457-2.667.658-.05 1.216-.131 1.24-.178s-.125-1.02-.333-2.162l-.378-2.076 11.926-.037c6.56-.02 17.294-.02 23.855 0l11.93.037-.378 2.116-.377 2.115.295.058c.163.03 1.133.165 2.157.298 3.887.504 6.84 1.615 7.455 2.806.39.753.27 1.355-.404 2.025-1.846 1.839-7.454 3.407-15.426 4.315-6.054.689-15.4 1.019-22.354.79M46.934 109.23c-3.984-5.586-4.487-6.355-5.084-7.793l-.465-1.12-.038-28.599-.037-28.599h68.154l-.002 28.17c-.002 30.48.036 28.903-.757 30.694-.409.924-2.388 3.875-5.653 8.428l-2.412 3.364-25.206.037-25.205.036zm2.796-59.748c.817-.573.926-1.705.232-2.4-1.07-1.07-2.858-.11-2.578 1.382.192 1.021 1.519 1.597 2.346 1.018m5.656.068c1.195-.544.994-2.472-.298-2.86-1.496-.447-2.59 1.48-1.473 2.597.454.453 1.132.554 1.77.263m6.27-.263c.339-.339.419-.542.419-1.063 0-1.15-.912-1.862-1.945-1.521-.908.3-1.333 1.42-.862 2.27.458.827 1.71.992 2.388.314m5.802-.068c.36-.36.487-.612.486-.967 0-.728-.46-1.365-1.127-1.565-.495-.148-.63-.135-1.045.104-.675.389-1.013 1.125-.826 1.803.192.696.737 1.111 1.458 1.111.454 0 .664-.097 1.054-.486m5.875.233c.42-.34.625-.785.625-1.352 0-.982-1.007-1.707-1.943-1.398-1.649.544-1.308 3.01.415 3 .349-.002.725-.106.903-.25m5.678.098c1.119-.51 1.03-2.311-.138-2.8-1.056-.44-2.051.274-2.051 1.474 0 1.164 1.092 1.826 2.189 1.326m6.084-.068c.355-.249.747-.924.747-1.287 0-.504-.464-1.194-.963-1.43-1.03-.49-2.185.296-2.187 1.487 0 .711.78 1.453 1.528 1.453.306 0 .7-.1.875-.223m5.88.02c1.097-.568.94-2.304-.252-2.798-.91-.377-2.023.402-2.013 1.41.013 1.264 1.153 1.963 2.265 1.387m5.941-.09c.7-.55.736-1.67.079-2.37-1.14-1.213-3.114.297-2.409 1.844.36.788 1.631 1.075 2.33.525m5.722.135c.824-.421 1.091-1.596.525-2.315-.927-1.18-2.718-.487-2.718 1.05 0 .627.8 1.425 1.427 1.425.25 0 .594-.072.766-.16m-61.324-18.96c0-7.308.035-8.879.202-9.2.272-.518.925-1.12 1.418-1.307.28-.106 10.162-.153 32.47-.153 31.736 0 32.074.003 32.627.285.307.157.74.523.96.812l.402.527.04 8.924.038 8.924H41.313Z"/>
  <path fill="#4c4c4c" d="M70.216 132.016c-13.202-.415-23.762-2.232-27.064-4.656-1.262-.926-1.457-1.831-.6-2.78 1.15-1.273 4.638-2.373 8.456-2.666.658-.05 1.216-.131 1.24-.178s-.125-1.02-.333-2.162l-.378-2.076 11.926-.037c6.56-.02 17.294-.02 23.855 0l11.93.037-.378 2.116-.377 2.115.295.057c.163.031 1.101.161 2.086.29 3.96.515 6.833 1.6 7.547 2.849.095.167.176.548.179.845.02 2.184-6.394 4.369-16.03 5.462-6.058.686-15.221 1.008-22.354.784m-23.401-22.952c-3.752-5.262-4.398-6.26-5.014-7.745l-.416-1.002-.038-28.599-.037-28.599h68.154l-.002 28.17c-.002 30.479.036 28.902-.756 30.694-.404.911-2.345 3.804-5.656 8.428l-2.41 3.364-25.207.037-25.207.036zm2.915-59.582c.817-.573.926-1.705.232-2.4-1.07-1.07-2.858-.11-2.578 1.382.192 1.021 1.519 1.597 2.346 1.018m5.737.02c1.025-.53.939-2.183-.142-2.742-1.15-.594-2.471.563-2.115 1.853.265.96 1.318 1.374 2.257.888m6.188-.214c.339-.339.419-.542.419-1.063 0-1.15-.912-1.862-1.945-1.521-.908.3-1.333 1.42-.862 2.27.458.827 1.71.992 2.388.314m5.802-.068c.347-.348.487-.616.487-.938 0-1.416-1.642-2.222-2.55-1.253-1.009 1.077-.406 2.677 1.008 2.677.455 0 .665-.097 1.055-.486m5.875.233c.42-.34.625-.785.625-1.352 0-.982-1.007-1.707-1.943-1.398-1.649.544-1.308 3.01.415 3 .348-.002.724-.106.903-.25m5.677.098c1.12-.51 1.031-2.311-.137-2.8-1.056-.44-2.052.274-2.052 1.474 0 1.164 1.093 1.826 2.19 1.326m6.083-.068c.355-.249.747-.924.747-1.287 0-.504-.463-1.194-.962-1.43-1.031-.49-2.186.296-2.187 1.487 0 .711.78 1.453 1.528 1.453.306 0 .699-.1.874-.223m5.88.02c.827-.428 1.002-1.702.326-2.377-.514-.514-1.043-.654-1.6-.423-1.562.647-1.19 2.977.48 2.998.22.003.578-.086.795-.199m5.938-.088c.73-.574.76-1.646.068-2.385-1.127-1.203-3.094.322-2.395 1.857.358.786 1.631 1.075 2.327.528m6.098-.148c.8-.8.518-2.12-.548-2.56-.933-.387-2.016.444-2.017 1.547 0 .355.126.606.486.967.667.666 1.441.684 2.08.046m-61.698-18.68c0-7.308.035-8.879.202-9.2.272-.518.925-1.12 1.418-1.307.28-.106 10.162-.153 32.47-.153 31.736 0 32.074.003 32.627.285.307.157.74.522.96.812l.402.527.04 8.924.038 8.924H41.313Z"/>
  <path fill="#2e2e2e" d="M72.239 132.08c-13.938-.286-25.63-2.183-29.087-4.72-2.09-1.535-1.22-3.202 2.286-4.373 1.42-.474 3.842-.94 5.58-1.074.653-.05 1.206-.13 1.23-.177s-.125-1.02-.333-2.162l-.378-2.076 11.926-.037c6.56-.02 17.294-.02 23.855 0l11.93.037-.378 2.116-.377 2.115.295.057c.163.031 1.101.161 2.086.29 2.325.302 4.355.817 5.633 1.428 1.542.737 2.098 1.336 2.098 2.262 0 2.445-7.892 4.83-19.042 5.756-4.784.397-12.705.651-17.324.557m-25.424-23.015c-3.752-5.262-4.398-6.26-5.014-7.745l-.416-1.002-.038-28.599-.037-28.599h68.154l-.002 28.17c-.003 31.188.063 29.021-.939 31.032-.517 1.037-2.556 4.035-5.974 8.782l-1.975 2.744H50.225zm2.915-59.582c.355-.249.747-.924.747-1.287 0-.504-.464-1.194-.963-1.43-1.031-.49-2.185.296-2.187 1.487 0 .711.78 1.453 1.529 1.453.305 0 .698-.1.874-.223m5.737.02c1.024-.53.939-2.183-.142-2.742-1.15-.594-2.471.563-2.115 1.853.265.96 1.317 1.374 2.257.888m6.188-.214c.339-.339.419-.542.419-1.063 0-1.15-.912-1.862-1.945-1.521-.908.3-1.334 1.42-.862 2.27.458.828 1.71.992 2.388.314m5.802-.068c.347-.348.486-.616.486-.938 0-1.416-1.641-2.222-2.549-1.253-1.009 1.077-.406 2.677 1.008 2.677.455 0 .665-.096 1.055-.486m5.874.233c1.42-1.15.221-3.39-1.44-2.695-.636.266-.94.74-.94 1.466 0 .852.63 1.484 1.478 1.48.348-.003.724-.107.903-.251m5.677.098c1.12-.51 1.031-2.311-.137-2.799-1.056-.441-2.052.274-2.052 1.473 0 1.164 1.093 1.826 2.19 1.326m6.083-.068c.355-.249.747-.924.747-1.287 0-.504-.463-1.193-.962-1.43-1.031-.49-2.186.296-2.187 1.487 0 .711.78 1.453 1.528 1.453.306 0 .699-.1.874-.223m5.88.02c.827-.428 1.002-1.702.326-2.377-.514-.514-1.043-.654-1.6-.423-.64.265-.996.796-.992 1.484.006 1.2 1.177 1.879 2.267 1.315m5.932-.084c.757-.596.79-1.625.074-2.389-1.127-1.203-3.095.322-2.395 1.857.356.783 1.63 1.075 2.321.532m6.104-.152c.8-.8.517-2.12-.548-2.56-.933-.387-2.016.444-2.018 1.547 0 .355.126.606.487.967.666.667 1.441.684 2.079.046m-61.697-18.68c0-7.308.035-8.879.202-9.2.272-.518.925-1.12 1.418-1.307.281-.106 10.143-.152 32.43-.15 30.969.004 32.044.012 32.614.271.324.147.775.511 1.003.81l.412.54.04 8.924.038 8.924H41.313Z"/>
  <path fill="#040404" d="M72.382 132.075c-11.977-.202-23.208-1.769-27.754-3.873-3.733-1.727-3.413-3.777.814-5.21 1.41-.477 3.826-.945 5.576-1.08.653-.05 1.206-.129 1.23-.176s-.127-1.036-.336-2.198l-.38-2.112h47.73l-.335 1.897a81 81 0 0 1-.398 2.149c-.073.293-.106.284 2.345.603 2.325.303 4.355.818 5.633 1.429 1.542.737 2.098 1.336 2.098 2.262 0 .45-.105.65-.608 1.15-1.726 1.715-6.24 3.064-13.71 4.1-5.167.716-14.757 1.18-21.905 1.059M47.296 109.73c-4.12-5.78-4.46-6.28-5.036-7.429-1.02-2.033-.946.349-.946-30.936V43.12h68.15l-.002 28.17c-.003 31.151.063 28.98-.934 31.007-.52 1.058-2.522 4.006-5.979 8.807l-1.975 2.744H50.231Zm2.434-60.25c.355-.248.747-.923.747-1.286 0-.13-.108-.463-.24-.74-.7-1.478-2.908-.873-2.91.797 0 .711.78 1.453 1.529 1.453.305 0 .698-.1.874-.223m5.737.02c1.025-.53.939-2.183-.142-2.742-1.156-.597-2.537.633-2.122 1.89.31.94 1.343 1.328 2.264.851m6.188-.214c1.185-1.185-.222-3.296-1.69-2.537-.823.426-1.139 1.43-.698 2.224.458.826 1.71.99 2.388.313m5.802-.068c.347-.348.487-.616.487-.938 0-1.416-1.642-2.222-2.55-1.253-1.009 1.077-.406 2.677 1.008 2.677.455 0 .665-.097 1.055-.486m6.06.046c1.2-1.202-.203-3.273-1.695-2.501-.601.31-.872.763-.872 1.459 0 .862.63 1.482 1.504 1.482.503 0 .706-.083 1.062-.44m5.493.285c1.12-.51 1.031-2.311-.137-2.799-1.056-.441-2.052.274-2.052 1.473 0 1.164 1.093 1.826 2.19 1.326m6.083-.068c.355-.249.747-.924.747-1.287 0-.13-.107-.463-.24-.74-.7-1.478-2.907-.873-2.909.797 0 .711.78 1.453 1.528 1.453.306 0 .699-.1.874-.223m5.992-.03c.755-.612.854-1.687.214-2.327-.514-.514-1.043-.654-1.6-.423-1.238.513-1.361 2.203-.208 2.837.43.237 1.25.192 1.594-.087m5.822-.035c.757-.596.789-1.625.073-2.389-1.16-1.24-3.186.437-2.35 1.946.41.737 1.606.97 2.277.443m6.1-.127c.37-.346.444-.523.444-1.063 0-1.656-2.046-2.255-2.79-.817-.362.7-.278 1.26.27 1.809.653.653 1.424.68 2.075.071M41.313 30.585c0-7.308.035-8.879.202-9.2.272-.518.925-1.12 1.418-1.307.281-.106 10.143-.152 32.43-.15 30.969.004 32.044.012 32.614.271.324.147.775.511 1.003.81l.412.54.04 8.924.038 8.924H41.313Z"/>
  <path d="M71.094 132.007c-3.618-.08-6.786-.263-10.882-.625-1.51-.133-5.558-.645-6.872-.87-3.53-.6-7.977-1.78-7.799-2.068.045-.073-.01-.097-.124-.054-.313.12-2.097-.839-2.712-1.456-.298-.3-.577-.686-.62-.86-.113-.449-.013-.988.183-.988a.45.45 0 0 0 .286-.13c.07-.077.039-.084-.078-.016-.484.28-.012-.325.638-.82.776-.589 2.577-1.297 4.132-1.624 1.264-.266 3.848-.631 4.464-.631.257 0 .497-.049.532-.108s-.09-.945-.276-1.968-.34-1.97-.342-2.104c-.002-.227 1.52-.242 23.765-.233l23.767.01v.333c0 .183-.126.996-.278 1.807-.462 2.45-.667 2.134 1.566 2.417 4.067.516 6.614 1.386 7.712 2.637 2.623 2.988-6.151 5.97-20.67 7.023-4.187.304-11.192.444-16.392.328m1.11-.219a1.2 1.2 0 0 0-.502 0c-.138.036-.025.066.25.066.276 0 .389-.03.251-.066m8.158.012c-.048-.047-.171-.052-.274-.011-.115.046-.08.08.086.086.151.007.236-.027.188-.075m-12.092-.15a.8.8 0 0 0-.43-.006c-.14.037-.06.069.176.072s.35-.027.254-.066m15.674-.005a1.2 1.2 0 0 0-.5 0c-.139.036-.026.066.25.066s.388-.03.25-.066m2.575-.131c-.048-.048-.172-.053-.275-.011-.114.045-.08.08.087.086.15.006.235-.027.188-.075m-37.473-2.117c0-.031-.1-.095-.222-.142-.128-.049-.185-.025-.135.056.084.136.357.202.357.086m-1.882-19.881c-4.332-6.085-4.327-6.077-4.904-7.23-1.008-2.013-.941.174-.943-30.997l-.003-28.17h68.151v28.127c0 19.985-.046 28.346-.158 28.885-.215 1.029-1.072 2.834-1.997 4.207-.42.623-2.106 3.018-3.746 5.321l-2.983 4.188H50.246Zm-5.611-10.595c-.04-.098-.073-.018-.073.18 0 .196.033.277.073.178s.04-.26 0-.358m67.733-18.54c-.021-3.446-.039-.627-.039 6.263s.018 9.709.039 6.264.021-9.083 0-12.528m-67.73 17.977c-.046-.114-.08-.08-.087.087-.006.15.028.235.075.188s.053-.171.011-.275m.001-.94c-.036-.137-.065-.024-.065.251s.03.389.065.25a1.2 1.2 0 0 0 0-.5m.005-1.787c-.031-.258-.058-.082-.059.39s.025.684.058.469a3.8 3.8 0 0 0 .001-.86m.004-17.54c-.022-3.13-.04-.57-.04 5.69s.018 8.822.04 5.692.021-8.252 0-11.383m67.72-8.375c-.025-.807-.046-.147-.046 1.467s.02 2.275.046 1.468.026-2.128 0-2.935m-67.72-4.143c-.024-1.285-.043-.274-.044 2.246 0 2.52.02 3.57.044 2.335s.024-3.297 0-4.581m67.716 1.64c-.033-.218-.06-.074-.061.32s.025.571.06.395a2.6 2.6 0 0 0 .001-.716m.005-14.953c-.022-2.703-.04-.533-.04 4.822s.018 7.566.04 4.914.022-7.033 0-9.736m-67.722 6.496c-.025-.763-.046-.1-.046 1.476 0 1.574.021 2.2.047 1.388.025-.811.025-2.1 0-2.864m0-8.582c-.023-1.32-.042-.24-.042 2.398s.02 3.717.043 2.398.023-3.477 0-4.796m55.408-.782c.355-.294.634-1.104.535-1.554-.05-.224-.32-.611-.604-.86-.448-.393-.589-.441-1.1-.372-1.125.15-1.706 1.325-1.17 2.363.422.815 1.608 1.03 2.34.423m-47.085-.05c.256-.216.473-.564.525-.845.172-.918-.624-1.938-1.511-1.938-.485 0-1.124.401-1.358.854-.362.7-.279 1.26.27 1.809.629.629 1.415.674 2.074.12m5.69.113c.753-.61.847-1.642.215-2.35-.333-.372-.517-.458-.967-.452-.754.01-1.192.089-1.121.203.032.051-.064.204-.212.338-.59.534-.47 1.672.235 2.226.46.362 1.424.38 1.85.035m5.965-.035c.434-.342.734-1.15.596-1.606-.283-.938-1.385-1.47-2.187-1.054-.614.318-.885.766-.885 1.466 0 1.239 1.5 1.962 2.476 1.194m5.776.035c.94-.762.82-2.137-.236-2.682-.523-.27-.77-.27-1.354.008-.667.316-1.026 1.145-.797 1.838.093.282.334.642.536.8.46.363 1.424.381 1.85.036m6.22-.165c.594-.594.595-1.528.001-2.192-.358-.402-.512-.468-1.085-.468s-.727.066-1.086.468c-.593.664-.593 1.598 0 2.192.344.342.54.418 1.086.418s.742-.075 1.085-.418m5.58.272c.15-.08.351-.29.447-.465.169-.31.423-1.745.285-1.607-.038.038-.159-.06-.27-.217-.317-.454-1.016-.751-1.537-.653-1.27.238-1.709 2-.697 2.796.405.319 1.31.393 1.771.146m6.135-.22c1.179-.992.28-2.999-1.218-2.718-1.106.207-1.677 1.401-1.121 2.343.486.822 1.595 1 2.339.375m6.04-.052c.343-.343.419-.539.419-1.088 0-.57-.072-.742-.487-1.157-.379-.378-.605-.486-1.017-.486s-.638.108-1.016.486c-.416.416-.487.586-.487 1.16 0 .568.07.737.444 1.088.633.59 1.552.59 2.144-.003m11.657.096c.69-.595.709-1.649.04-2.36-.87-.926-2.545-.217-2.545 1.077 0 .97.6 1.597 1.531 1.602.42.002.713-.093.974-.319m-20.447-1.422c-.046-.115-.08-.08-.086.086-.007.151.027.236.075.188.047-.048.052-.171.011-.274m-40.939-3.654c-.027-.614-.049-.15-.05 1.032 0 1.181.023 1.683.05 1.116s.027-1.534 0-2.148m67.72.5c-.027-.495-.05-.127-.05.818s.022 1.35.05.9.029-1.222 0-1.718m-54.55 1.519c-.048-.048-.171-.053-.274-.012-.115.046-.08.08.086.087.151.006.236-.028.188-.075m54.54-2.956c-.04-.099-.073-.018-.073.179s.033.277.072.179.04-.26 0-.358M41.41 39.3c-.167-.167-.112-17.31.057-17.756.217-.573.688-1.044 1.35-1.35.552-.254 1.768-.264 32.542-.267 28.449-.003 32.026.021 32.495.217.68.285 1.005.586 1.34 1.242.257.504.271.977.271 9.27v8.74h-33.98c-18.689 0-34.023-.043-34.075-.096m.155-5.667c-.025-1.043-.045-.19-.045 1.897s.02 2.94.045 1.897.024-2.75 0-3.794m67.717 4.441c-.031-.257-.058-.081-.059.391s.025.683.058.468.033-.602.001-.859m0-1.649c-.034-.217-.06-.04-.06.394 0 .433.026.61.06.393s.032-.57 0-.787m.004-6.514c-.024-1.123-.044-.204-.044 2.04s.02 3.162.044 2.04.024-2.958 0-4.08m-67.733.859c-.04-.099-.073-.018-.073.179s.033.277.073.179a.55.55 0 0 0 0-.358m.007-1.358c-.033-.218-.06-.074-.061.32s.025.571.06.395.034-.498.001-.715m.003-2.075c-.03-.336-.056-.097-.056.533s.024.906.055.613c.03-.293.03-.809 0-1.146m67.714.005c-.046-.114-.08-.08-.087.087-.006.15.028.235.075.188s.053-.171.011-.275m.006-1.87c-.032-.256-.058-.046-.058.466s.026.72.058.465.032-.675 0-.93m-67.722.07c-.033-.216-.06-.039-.06.395s.027.61.06.393.033-.57 0-.787m-.004-1.146c-.036-.137-.065-.025-.065.251s.03.388.065.25.036-.363 0-.5m67.724-.359c-.035-.177-.063-.032-.063.323s.028.499.063.322.034-.467 0-.645m-67.723-.498c-.036-.14-.069-.06-.071.176s.026.35.065.254.042-.29.006-.43m0-1.148c-.037-.138-.066-.025-.066.25s.03.389.065.251a1.2 1.2 0 0 0 0-.501"/>
</svg>
