<svg xmlns="http://www.w3.org/2000/svg" width="150" height="150">
  <path fill="#cdcdcd" d="M53.552 128.985c-.604-.067-2.921-.333-5.15-.591-2.228-.259-4.469-.513-4.98-.564s-.953-.133-.982-.181.152-2.096.402-4.55.445-4.47.433-4.48c-.066-.045-3.018-.467-3.048-.434-.019.021-.229 1.243-.466 2.716s-.464 2.786-.505 2.919c-.068.22-.373.24-3.847.24h-3.774l.076-.446c.041-.246.229-1.899.416-3.674s.56-5.236.827-7.69c.267-2.456.635-6.628.817-9.274s.401-4.993.487-5.218c.205-.543.64-.996 1.264-1.315.716-.368.847-.336 1.274.31.844 1.275 2.33 2.328 3.916 2.776.783.22 3.704.36 13.39.634 13.037.37 45.81-.001 48.954-.555 1.604-.283 3.296-1.405 4.286-2.843.458-.666.651-.702 1.418-.268.955.54 1.136 1.063 1.372 3.956.113 1.39.206 2.727.207 2.973v.446h3.46c3.202 0 3.5.02 4.038.28.919.445.98.682 1.497 5.803.253 2.508.5 4.931.548 5.384.165 1.548-.678 2.343-2.47 2.326-1.183-.01-1.772-.284-1.974-.916-.078-.246-.271-2.024-.428-3.95s-.317-3.703-.355-3.949l-.07-.446h-3.786l.045.378c.189 1.577 1.556 14.745 1.556 14.98v.298h-3.769c-2.072 0-3.798-.048-3.834-.106-.036-.059-.263-1.372-.505-2.919s-.453-2.828-.471-2.848-.728.068-1.578.197l-1.545.234.081.627c.076.586.733 7.136.807 8.041l.033.411-1.51.18c-.831.099-3.61.417-6.176.708l-4.666.528-2.476-1.49c-1.362-.82-2.878-1.756-3.368-2.08l-.893-.59-.39-2.472-.389-2.472h-9.739c-5.356 0-9.738.03-9.737.068s-.164 1.165-.367 2.505l-.37 2.435-3.413 2.062c-1.878 1.134-3.427 2.054-3.444 2.044s-.524-.072-1.129-.138m1.992-32.217c-4.915-.08-13.545-.442-14.052-.59-.647-.188-1.535-.97-1.89-1.666-.259-.507-.266-1.115-.299-25.45l-.033-24.93h65.58l-.037 24.892-.035 24.891-.297.55c-.381.704-1.08 1.372-1.712 1.635-.575.24-4.544.45-11.725.619-4.242.1-30.189.136-35.5.05m-4.878-45.381c.8-.63.881-1.664.188-2.403-.3-.318-.332-.321-3.344-.321-2.978 0-3.049.007-3.332.309-.457.488-.614 1.033-.445 1.545.147.446.584.933.961 1.07.114.042 1.419.08 2.9.086 2.564.01 2.712-.003 3.072-.286m10.208.111c.436-.242.848-.903.849-1.365 0-.487-.335-1.145-.678-1.329-.158-.084-1.45-.141-3.202-.141-2.909 0-2.941.003-3.242.324-.653.695-.492 1.947.314 2.438.375.23.716.258 3.032.254 1.859-.003 2.7-.055 2.927-.18m9.856-.074c.822-.501.952-1.663.267-2.402l-.334-.36h-2.556c-1.49 0-2.666.059-2.82.141-.336.18-.68.838-.68 1.301 0 .196.094.538.208.759.372.719.728.809 3.226.814 1.98.005 2.32-.027 2.689-.253m10.2-.089c.474-.398.77-1.151.633-1.607-.052-.17-.253-.48-.448-.688l-.353-.378-2.824.004c-3.068.005-3.093.01-3.502.802-.378.73-.156 1.457.605 1.981.29.2.713.234 2.908.234 2.548 0 2.571-.002 2.982-.348m9.363.14c.456-.236.819-.843.819-1.371 0-.463-.344-1.12-.68-1.3-.152-.082-1.287-.142-2.685-.142s-2.533.06-2.685.141c-.336.18-.68.838-.68 1.301 0 .514.357 1.128.792 1.364.548.297 4.547.303 5.119.007m9.308.022c.436-.242.848-.903.849-1.365 0-.487-.335-1.145-.678-1.329-.153-.081-1.278-.141-2.653-.141-2.3 0-2.4.012-2.678.309-.457.488-.614 1.033-.445 1.545.147.446.584.933.961 1.07.447.164 4.323.09 4.644-.089M36.517 40.224c-.199-.198-.337-.496-.337-.724 0-.214-.089-2.58-.197-5.26-.415-10.278-.417-10.59-.085-11.342.71-1.604 1.513-1.95 5.363-2.313 14.21-1.337 49.092-1.334 61.869.006 2.401.252 3.349.466 3.981.9.566.387 1.135 1.244 1.26 1.895.085.45-.267 12.014-.464 15.178-.073 1.178-.128 1.412-.399 1.683l-.315.314h-70.34Z"/>
  <path fill="#b1b1b1" d="M53.552 128.976c-.604-.061-2.921-.324-5.15-.582-2.228-.259-4.469-.513-4.98-.564s-.953-.133-.982-.181.152-2.095.404-4.549.446-4.469.433-4.479c-.067-.047-3.02-.47-3.05-.436-.019.021-.229 1.243-.466 2.716s-.464 2.786-.505 2.919c-.068.22-.373.24-3.847.24h-3.774l.076-.446c.041-.246.26-2.177.485-4.292s.597-5.576.827-7.69.566-6.01.748-8.656c.182-2.645.401-4.993.487-5.218s.29-.554.454-.732c.328-.352 1.208-.845 1.508-.845.104 0 .42.337.703.748.819 1.188 2.228 2.154 3.793 2.6 2.846.81 40.103 1.036 58.019.352 2.04-.078 4.021-.203 4.404-.277 1.562-.305 3.237-1.436 4.203-2.839.22-.321.494-.584.606-.584.48 0 1.295.573 1.632 1.147.314.537.37.864.554 3.193.112 1.428.204 2.766.205 2.973v.378h3.46c3.202 0 3.5.02 4.038.28.382.186.657.443.805.755.153.323.372 1.925.69 5.055.256 2.52.504 4.945.552 5.391.163 1.534-.687 2.328-2.471 2.312-1.24-.011-1.79-.284-1.99-.987-.08-.283-.29-2.231-.466-4.329s-.352-3.845-.39-3.883-.9-.053-1.915-.032l-1.845.039.446 4.257c.245 2.341.604 5.71.797 7.485s.35 3.366.35 3.536v.309h-3.77c-2.072 0-3.798-.048-3.834-.108s-.263-1.372-.503-2.918-.45-2.827-.47-2.847-.73.068-1.58.197l-1.546.234.082.627c.076.586.733 7.136.806 8.041l.034.411-1.511.18c-.83.099-3.61.417-6.175.708l-4.664.527-2.477-1.491a144 144 0 0 1-3.37-2.08l-.893-.588-.39-2.472-.388-2.472h-9.74c-5.356 0-9.737.03-9.736.068s-.165 1.165-.368 2.504l-.369 2.436-3.169 1.908c-1.743 1.05-3.293 1.966-3.444 2.036-.162.076-.723.082-1.373.015m2.06-32.207c-4.83-.076-13.604-.443-14.12-.592-.646-.186-1.535-.969-1.89-1.665-.259-.507-.266-1.115-.299-25.45l-.033-24.93h65.58l-.037 24.892-.035 24.891-.297.55c-.381.705-1.08 1.372-1.712 1.636-.573.239-4.455.443-11.725.616-4.218.101-29.879.138-35.432.052m-4.946-45.381c.8-.63.881-1.664.188-2.403-.3-.318-.332-.321-3.344-.321-2.978 0-3.049.007-3.332.309-.457.488-.614 1.033-.445 1.545.147.446.584.933.961 1.07.114.042 1.419.08 2.9.086 2.564.01 2.712-.003 3.072-.286m10.208.111c.436-.242.848-.903.849-1.365 0-.487-.335-1.145-.678-1.329-.158-.084-1.45-.141-3.202-.141-2.909 0-2.941.003-3.242.324-.653.695-.492 1.947.314 2.438.375.23.716.258 3.032.254 1.859-.003 2.7-.055 2.927-.18m9.856-.074c.822-.501.952-1.663.267-2.402l-.334-.36h-2.556c-1.49 0-2.666.059-2.82.141-.336.18-.68.838-.68 1.301 0 .196.094.538.208.759.372.719.728.809 3.226.814 1.98.005 2.32-.027 2.689-.253m10.2-.089c.474-.398.77-1.151.633-1.607-.052-.17-.253-.48-.448-.688l-.353-.378-2.824.004c-3.068.005-3.093.01-3.502.802-.378.73-.156 1.457.605 1.981.29.2.713.234 2.908.234 2.548 0 2.571-.002 2.982-.348m9.363.14c.456-.236.819-.843.819-1.371 0-.463-.344-1.12-.68-1.3-.152-.082-1.287-.142-2.685-.142s-2.533.06-2.685.141c-.336.18-.68.838-.68 1.301 0 .514.357 1.128.792 1.364.548.297 4.547.303 5.119.007m9.308.022c.436-.242.848-.903.849-1.365 0-.487-.335-1.145-.678-1.329-.153-.081-1.277-.141-2.651-.141h-2.387l-.386.403c-.7.73-.456 1.961.485 2.445.463.238 4.335.228 4.768-.013M36.517 40.224c-.199-.198-.337-.496-.337-.724 0-.214-.089-2.58-.197-5.26-.415-10.278-.417-10.59-.085-11.342.71-1.604 1.513-1.95 5.363-2.313 12.647-1.19 41.19-1.36 57.611-.34 2.721.168 5.955.497 6.867.697 1.347.296 2.41 1.283 2.631 2.444.085.444-.258 11.63-.463 15.11-.074 1.25-.125 1.477-.4 1.75l-.314.315h-70.34Z"/>
  <path fill="#8e8e8e" d="M53.552 128.976c-.604-.061-2.921-.324-5.15-.582-2.228-.259-4.469-.513-4.98-.564s-.953-.133-.982-.181.152-2.095.404-4.549.446-4.469.433-4.479c-.067-.046-3.02-.47-3.048-.436-.018.021-.23 1.243-.47 2.716s-.467 2.786-.506 2.919c-.065.221-.369.24-3.844.24h-3.774l.076-.446c.041-.246.26-2.177.485-4.292s.597-5.576.827-7.69.566-6.01.748-8.656c.182-2.645.401-4.993.487-5.218s.29-.554.454-.732c.328-.352 1.208-.845 1.508-.845.104 0 .42.337.703.748.538.78 1.547 1.636 2.488 2.108 1.256.63 1.83.697 8.167.95 8.87.354 39.782.352 48.822-.003 6.514-.256 7.15-.33 8.462-.996.82-.415 1.904-1.387 2.48-2.223.22-.321.494-.584.606-.584.48 0 1.295.573 1.632 1.147.314.537.37.864.554 3.193.112 1.428.204 2.766.205 2.973v.378h3.46c3.177 0 3.504.022 4.025.275.916.443.98.692 1.519 5.952.264 2.58.514 5 .554 5.378.15 1.4-.763 2.204-2.484 2.188-1.24-.011-1.79-.284-1.99-.987-.08-.283-.29-2.231-.466-4.329s-.352-3.845-.39-3.883-.9-.053-1.915-.032l-1.845.039.446 4.257c.245 2.341.604 5.71.797 7.485s.35 3.367.35 3.538v.311l-3.812-.036-3.81-.037-.163-.961c-.089-.529-.294-1.826-.457-2.884s-.312-1.939-.333-1.96c-.02-.02-.732.07-1.582.198l-1.546.234.082.627c.076.586.733 7.136.806 8.041l.034.411-1.511.18c-.83.099-3.61.417-6.175.708l-4.664.527-2.477-1.491a144 144 0 0 1-3.37-2.08l-.893-.588-.39-2.472-.388-2.472h-9.74c-5.356 0-9.737.03-9.736.068s-.165 1.165-.368 2.504l-.369 2.436-3.169 1.908c-1.743 1.05-3.293 1.966-3.444 2.036-.162.076-.723.082-1.373.015m2.06-32.207c-4.848-.076-13.605-.444-14.125-.593-.291-.084-.798-.4-1.126-.703-1.117-1.03-1.025 1.286-1.06-26.518l-.031-24.823h65.58l-.037 24.892-.035 24.891-.297.55c-.382.705-1.08 1.372-1.714 1.636-.568.237-4.436.44-11.791.617-4.157.1-29.821.137-35.364.05m-4.946-45.38c.8-.63.881-1.664.188-2.403-.3-.318-.332-.321-3.344-.321-2.978 0-3.049.007-3.332.309-.457.488-.614 1.033-.445 1.545.147.446.584.933.961 1.07.114.042 1.419.08 2.9.086 2.564.01 2.712-.003 3.072-.286m10.238.089c.457-.236.82-.843.82-1.371 0-.463-.344-1.12-.68-1.3-.157-.085-1.45-.142-3.201-.142-2.909 0-2.941.003-3.242.324-.653.695-.492 1.947.314 2.438.374.229.72.258 3.004.259 2.04 0 2.667-.043 2.985-.208m9.826-.05c.822-.502.952-1.664.267-2.403l-.334-.36h-2.556c-1.49 0-2.666.059-2.82.141-.336.18-.68.838-.68 1.301 0 .196.094.538.208.759.372.719.728.809 3.226.814 1.98.005 2.32-.027 2.689-.253m10.2-.089c.474-.398.77-1.151.633-1.607-.052-.17-.253-.48-.448-.688l-.353-.378-2.824.004c-3.068.005-3.093.01-3.502.802-.378.73-.156 1.457.605 1.981.29.2.713.234 2.908.234 2.548 0 2.571-.002 2.982-.348m9.363.14c.456-.236.819-.843.819-1.371 0-.463-.344-1.12-.68-1.3-.152-.082-1.287-.142-2.685-.142s-2.533.06-2.685.141c-.336.18-.68.838-.68 1.301 0 .514.357 1.128.792 1.364.548.297 4.547.303 5.119.007m9.308.022c.436-.242.848-.903.849-1.365 0-.487-.335-1.145-.678-1.329-.153-.081-1.277-.141-2.651-.141h-2.387l-.351.378c-.194.207-.392.547-.44.754-.116.489.19 1.212.673 1.592.352.277.527.297 2.523.292 1.48-.003 2.243-.059 2.462-.18M36.517 40.223c-.199-.198-.337-.496-.337-.724 0-.214-.089-2.58-.197-5.26-.415-10.278-.417-10.59-.085-11.342.71-1.606 1.469-1.93 5.39-2.31 12.318-1.19 41.157-1.363 57.584-.343 2.721.168 5.955.497 6.867.697 1.347.296 2.41 1.283 2.631 2.444.085.44-.257 11.543-.464 15.11-.073 1.251-.124 1.477-.398 1.75l-.315.315h-70.34Z"/>
  <path fill="#6d6d6d" d="M53.552 128.976a706 706 0 0 1-5.15-.583c-2.228-.259-4.469-.513-4.98-.564s-.953-.132-.982-.18c-.046-.075.581-6.62.805-8.406l.08-.628-1.135-.168a91 91 0 0 1-1.567-.243c-.413-.071-.436-.051-.512.453-.263 1.73-.8 4.959-.859 5.163-.064.221-.368.24-3.848.24h-3.778l.074-.378c.041-.207.233-1.86.426-3.673s.568-5.305.833-7.76.631-6.629.814-9.276c.183-2.646.401-4.995.486-5.218a2.7 2.7 0 0 1 .453-.729c.328-.352 1.208-.845 1.508-.845.104 0 .42.337.703.748.538.78 1.547 1.636 2.488 2.108 1.254.629 1.833.696 8.167.95 8.843.355 39.746.353 48.822-.003 6.514-.256 7.15-.33 8.462-.996.82-.415 1.904-1.387 2.48-2.223.22-.321.494-.584.606-.584.48 0 1.295.573 1.632 1.147.314.537.37.864.554 3.193.112 1.428.204 2.766.205 2.973v.378h3.46c3.177 0 3.504.022 4.025.275.917.444.982.695 1.515 5.924.262 2.563.51 4.982.554 5.376.156 1.431-.742 2.234-2.48 2.218-1.184-.01-1.773-.284-1.975-.916-.079-.246-.271-2.024-.428-3.95s-.317-3.703-.355-3.949l-.07-.446h-3.826l.065.378c.036.207.284 2.478.55 5.047s.607 5.765.755 7.105c.15 1.34.27 2.591.27 2.781v.345h-3.78c-2.9 0-3.795-.04-3.842-.172-.034-.094-.254-1.407-.49-2.918s-.445-2.763-.464-2.783-.728.068-1.576.196l-1.542.234.097.833c.368 3.166.83 8.126.761 8.196-.044.046-1.842.284-3.995.528s-4.872.554-6.043.688c-2.097.24-2.137.24-2.665-.027-.863-.435-5.897-3.545-6.141-3.793-.152-.154-.342-.995-.595-2.63l-.372-2.403h-9.74c-5.356 0-9.738.03-9.737.068s-.164 1.165-.367 2.504l-.37 2.436-3.168 1.908c-1.743 1.05-3.293 1.966-3.444 2.036-.163.076-.723.082-1.373.015zm2.06-32.207c-4.768-.073-13.6-.445-14.125-.595-.291-.083-.798-.398-1.126-.7-1.117-1.03-1.025 1.285-1.06-26.519l-.031-24.823h65.58l-.037 24.892-.035 24.891-.297.55c-.382.705-1.08 1.372-1.714 1.636-.572.239-4.497.443-11.86.617-4.215.1-29.73.137-35.295.051M50.61 51.452c.828-.489.95-1.716.245-2.467-.3-.318-.332-.32-3.344-.32-2.978 0-3.049.006-3.332.308-.457.488-.614 1.033-.445 1.545.147.446.584.933.961 1.07.114.042 1.402.08 2.863.087 2.266.009 2.715-.024 3.052-.223m10.295.025c.457-.236.82-.843.82-1.371 0-.463-.344-1.12-.68-1.3-.157-.085-1.45-.142-3.201-.142-2.909 0-2.941.003-3.242.324-.653.695-.492 1.947.314 2.438.374.229.72.258 3.004.259 2.04 0 2.667-.043 2.985-.208m9.826-.05c.822-.502.952-1.664.267-2.403l-.334-.36h-2.556c-1.49 0-2.666.059-2.82.141-.336.18-.68.838-.68 1.301 0 .196.094.538.208.759.372.719.728.809 3.226.814 1.98.005 2.32-.027 2.689-.253m10.2-.089c.474-.398.77-1.151.633-1.607-.052-.17-.253-.48-.448-.688l-.353-.378-2.824.004c-3.068.005-3.093.01-3.502.802-.378.73-.156 1.457.605 1.981.29.2.713.234 2.908.234 2.548 0 2.571-.002 2.982-.348m9.363.14c.456-.236.819-.843.819-1.371 0-.463-.344-1.12-.68-1.3-.152-.082-1.287-.142-2.685-.142s-2.533.06-2.685.141c-.336.18-.68.838-.68 1.301 0 .514.357 1.128.792 1.364.548.297 4.547.303 5.119.007m9.308.022c.436-.242.848-.903.849-1.365 0-.487-.335-1.145-.678-1.329-.153-.081-1.28-.141-2.658-.141-2.374 0-2.397.003-2.74.345-.669.67-.56 1.748.242 2.379.352.277.527.297 2.523.292 1.48-.003 2.243-.059 2.462-.18M36.517 40.223c-.252-.252-.338-.486-.34-.927a159 159 0 0 0-.13-3.336c-.07-1.511-.198-4.92-.283-7.578-.155-4.798-.154-4.835.137-5.491.707-1.6 1.446-1.913 5.429-2.307 4.959-.49 10.393-.72 21.607-.92 17.395-.31 38.431.317 42.802 1.277 1.347.296 2.41 1.283 2.631 2.444.085.44-.257 11.543-.464 15.11-.073 1.251-.124 1.477-.398 1.75l-.315.315h-70.34Z"/>
  <path fill="#4c4c4c" d="M53.552 128.975a752 752 0 0 1-5.15-.583c-2.228-.259-4.469-.512-4.98-.563s-.952-.132-.98-.18.154-2.095.404-4.549c.25-2.453.445-4.468.431-4.477s-.52-.09-1.123-.182c-.605-.09-1.293-.198-1.531-.238-.413-.07-.436-.05-.513.454-.466 3.052-.834 5.09-.945 5.231-.102.13-1.039.172-3.837.172h-3.702l.074-.378c.041-.207.233-1.86.426-3.673s.567-5.305.832-7.76.633-6.633.818-9.286.404-5.001.487-5.219.285-.54.45-.718c.33-.356 1.208-.845 1.516-.845.108 0 .395.31.637.686.485.757 1.515 1.642 2.478 2.132 1.32.67 1.828.732 8.234.989 8.843.354 39.746.352 48.822-.004 6.514-.256 7.15-.33 8.462-.996.82-.415 1.904-1.387 2.48-2.223.22-.321.494-.584.606-.584.48 0 1.295.573 1.632 1.147.314.537.37.864.554 3.193.112 1.428.204 2.766.205 2.973v.378h3.46c3.177 0 3.504.022 4.025.275.917.444.982.695 1.515 5.924.262 2.563.51 4.982.554 5.376.156 1.431-.742 2.234-2.48 2.218-1.184-.01-1.773-.284-1.975-.916-.079-.246-.271-2.024-.428-3.95s-.317-3.703-.355-3.949l-.07-.446h-3.826l.065.378c.036.207.253 2.2.483 4.429s.57 5.424.755 7.102.338 3.208.338 3.4v.347h-3.781c-2.9 0-3.795-.04-3.842-.172-.034-.094-.254-1.407-.49-2.918s-.445-2.763-.464-2.783-.73.068-1.58.197l-1.545.234.081.627c.073.559.718 7.004.805 8.042l.035.412-1.51.18c-.831.099-3.581.414-6.112.7l-4.6.52-.537-.267c-.836-.417-5.892-3.536-6.141-3.79-.152-.154-.342-.995-.595-2.63l-.372-2.403H62.305l-.29 1.854c-.16 1.02-.33 2.143-.377 2.498l-.087.644-3.175 1.914c-1.747 1.052-3.3 1.971-3.45 2.042-.164.076-.72.082-1.373.014zm2.06-32.206c-1.36-.021-4.975-.127-8.034-.237-6.091-.218-6.41-.266-7.255-1.078-1.001-.961-.908 1.517-.985-26.293l-.068-25.029h65.58l-.037 24.892-.035 24.891-.297.55c-.38.704-1.08 1.372-1.71 1.635-1.13.47-14.265.776-31.709.736-7.138-.017-14.09-.047-15.45-.067M50.61 51.452c.828-.489.95-1.716.245-2.467-.3-.318-.332-.32-3.344-.32-2.978 0-3.049.006-3.332.308-.457.488-.614 1.033-.445 1.545.147.446.584.933.961 1.07.114.042 1.402.08 2.863.087 2.266.009 2.715-.024 3.052-.223m10.295.025c.457-.236.82-.843.82-1.371 0-.463-.344-1.12-.68-1.3-.157-.085-1.45-.142-3.201-.142-2.909 0-2.941.003-3.242.324-.653.695-.492 1.947.314 2.438.374.229.72.258 3.004.259 2.04 0 2.667-.043 2.985-.208m9.826-.05c.824-.503.952-1.664.264-2.406l-.336-.363-2.71.037-2.712.038-.314.466q-.547.814-.107 1.666c.372.719.728.809 3.226.814 1.98.005 2.32-.027 2.689-.253M81 51.272c.753-.66.79-1.567.097-2.299-.286-.3-.368-.309-3.093-.309-1.539 0-2.899.039-3.021.086-.123.047-.35.333-.504.636-.42.822-.23 1.519.563 2.065.29.2.713.234 2.914.234h2.574zm9.295.205c.456-.236.819-.843.819-1.371 0-.463-.344-1.12-.68-1.3-.152-.082-1.287-.142-2.685-.142s-2.533.06-2.685.141c-.336.18-.68.838-.68 1.301 0 .514.357 1.128.792 1.364.548.297 4.547.303 5.119.007m9.308.022c.436-.242.848-.903.849-1.365 0-.487-.335-1.145-.678-1.329-.153-.081-1.28-.141-2.658-.141-2.374 0-2.397.003-2.74.345-.454.455-.56 1.046-.304 1.689.353.883.66.98 3.085.979 1.472-.001 2.226-.056 2.446-.178M36.517 40.224c-.263-.263-.338-.481-.34-.995-.001-.363-.061-1.895-.133-3.406-.302-6.363-.43-11.996-.285-12.535a3.14 3.14 0 0 1 2.235-2.236c3.788-1.02 25.681-1.72 43.425-1.387 11.96.224 17.777.484 22.123.988 2.708.315 3.034.408 3.817 1.098 1.172 1.031 1.15.825.873 8.57-.341 9.525-.343 9.544-.724 9.926l-.315.314h-70.34Z"/>
  <path fill="#2b2b2b" d="M53.14 128.93c-4.468-.476-10.586-1.212-10.663-1.285-.049-.046.117-2.09.368-4.545s.446-4.468.432-4.477-.52-.09-1.123-.182a122 122 0 0 1-1.528-.237c-.399-.068-.434-.041-.504.385-.042.252-.245 1.509-.451 2.793s-.435 2.412-.508 2.506c-.1.13-1.035.172-3.83.172h-3.698l.069-.446c.381-2.47 1.768-16.291 2.072-20.651.185-2.653.404-5.001.487-5.219s.285-.54.45-.718c.33-.356 1.208-.845 1.516-.845.108 0 .395.31.637.686.743 1.158 2.503 2.36 3.983 2.72.34.082 3.337.261 6.66.397 8.736.358 39.778.358 48.891 0 4.256-.167 6.432-.306 6.989-.445 1.585-.398 3-1.39 3.949-2.768.223-.324.498-.59.61-.59.48 0 1.295.573 1.631 1.147.315.537.372.864.555 3.193.112 1.428.204 2.766.205 2.973v.378h3.46c3.177 0 3.504.022 4.025.274.915.443.98.697 1.53 5.955.586 5.618.61 6.208.279 6.703-.391.583-1.123.866-2.22.859-1.184-.008-1.773-.28-1.975-.914-.079-.246-.271-2.024-.428-3.95s-.317-3.703-.355-3.949l-.07-.446h-3.826l.066.378c.037.207.315 2.787.619 5.733s.642 6.129.753 7.073.2 1.887.202 2.094v.378h-3.78c-2.9 0-3.795-.04-3.842-.172-.034-.094-.254-1.407-.49-2.918s-.448-2.767-.472-2.791-.734.065-1.58.2l-1.536.245.08.624c.073.557.718 7.005.805 8.04l.035.411-1.51.18c-.831.099-3.581.414-6.112.7l-4.6.52-.537-.267c-.836-.417-5.892-3.537-6.141-3.79-.152-.154-.342-.995-.595-2.63l-.372-2.403H62.298l-.287 1.854c-.159 1.02-.327 2.143-.374 2.498l-.086.644-3.175 1.914c-1.747 1.052-3.3 1.971-3.45 2.042-.175.082-.826.07-1.786-.032zm.481-32.21q-11.237-.26-12.242-.614c-.656-.232-1.388-.863-1.743-1.504-.21-.379-.235-2.428-.298-25.441l-.068-25.03h32.79l32.79.001-.037 24.892-.035 24.891-.297.55c-.381.704-1.08 1.372-1.711 1.635-.598.25-4.35.433-12.893.631-6.59.153-29.481.146-36.256-.01m-3.012-45.269c.828-.489.95-1.716.245-2.467-.3-.318-.332-.32-3.344-.32-2.978 0-3.049.006-3.332.308-.457.488-.614 1.033-.445 1.545.147.446.584.933.961 1.07.114.042 1.402.08 2.863.087 2.266.009 2.715-.024 3.052-.223m10.295.025c.457-.236.82-.843.82-1.371 0-.463-.344-1.12-.68-1.3-.157-.085-1.45-.142-3.201-.142-2.909 0-2.941.003-3.242.324-.653.695-.492 1.947.314 2.438.374.229.72.258 3.004.259 2.04 0 2.667-.043 2.985-.208m9.826-.05c.824-.503.952-1.664.264-2.406l-.336-.363-2.71.037-2.712.038-.314.466q-.547.814-.107 1.666c.372.719.728.809 3.226.814 1.98.005 2.32-.027 2.689-.253m10.28-.163c.758-.666.79-1.547.085-2.29-.285-.3-.367-.309-3.091-.309-1.54 0-2.9.039-3.022.086-.248.095-.761 1.014-.761 1.364 0 .416.445 1.168.808 1.365.273.149.975.197 2.93.2l2.57.006zm9.284.214c.456-.236.819-.843.819-1.371 0-.463-.344-1.12-.68-1.3-.152-.082-1.287-.142-2.685-.142s-2.533.06-2.685.141c-.336.18-.68.838-.68 1.301 0 .514.357 1.128.792 1.364.548.297 4.547.303 5.119.007m9.308.022c.436-.242.848-.903.849-1.365 0-.487-.335-1.145-.678-1.329-.153-.081-1.28-.141-2.658-.141-2.374 0-2.397.003-2.74.345-.454.455-.56 1.046-.304 1.689.353.883.66.98 3.085.979 1.472-.001 2.226-.056 2.446-.178M36.517 40.224c-.263-.263-.338-.481-.34-.995-.001-.363-.061-1.895-.133-3.406-.302-6.363-.43-11.996-.285-12.535a3.14 3.14 0 0 1 2.235-2.236c3.771-1.015 25.678-1.719 43.289-1.39 13.038.244 18.394.501 23.426 1.126 1.506.188 1.954.35 2.65.963 1.169 1.029 1.148.819.869 8.566-.348 9.648-.34 9.55-.72 9.93l-.315.314h-70.34Z"/>
  <path d="M51.355 128.72c-1.813-.21-4.532-.518-6.043-.685-1.51-.168-2.785-.343-2.833-.389s.117-2.092.367-4.546.443-4.47.43-4.478-.518-.09-1.122-.18a122 122 0 0 1-1.528-.238c-.399-.068-.434-.041-.504.385-.042.252-.245 1.509-.451 2.793s-.435 2.412-.508 2.506c-.1.13-1.035.172-3.83.172h-3.698l.071-.446c.377-2.365 1.768-16.225 2.072-20.646.182-2.65.4-4.998.483-5.219s.287-.545.451-.723c.332-.356 1.209-.845 1.517-.845.108 0 .4.317.648.703.743 1.16 2.478 2.34 3.972 2.702.34.083 3.337.262 6.66.399 8.755.359 39.77.357 48.926-.004 4.328-.17 6.45-.306 6.992-.447a6.9 6.9 0 0 0 3.91-2.763c.465-.675.626-.708 1.384-.282 1 .562 1.18 1.076 1.413 4.032.112 1.428.204 2.766.205 2.973v.378h3.46c3.177 0 3.504.022 4.025.275.915.442.98.696 1.53 5.954.586 5.618.61 6.208.279 6.703-.375.56-1.126.861-2.152.865-1.116.005-1.705-.234-1.969-.797-.132-.284-.305-1.72-.498-4.142-.162-2.04-.323-3.847-.358-4.017-.063-.303-.104-.309-1.98-.309h-1.917l.066.378c.056.32 1.308 12.125 1.537 14.488l.076.79h-3.8c-2.916 0-3.814-.04-3.861-.172-.034-.094-.254-1.407-.49-2.918s-.448-2.767-.472-2.791c-.104-.11-3.088.457-3.082.586.003.08.209 2.113.456 4.52.306 2.98.403 4.388.302 4.419-.13.04-3.26.403-9.897 1.148-1.94.217-2.246.223-2.61.047-.977-.473-6.265-3.79-6.368-3.995-.063-.124-.284-1.277-.492-2.56l-.379-2.335H72.01c-5.355 0-9.735.03-9.735.068s-.16 1.12-.356 2.404c-.247 1.617-.426 2.405-.584 2.565-.224.225-5.503 3.463-6.286 3.855-.354.177-.75.158-3.693-.182zm4.395-31.95c-1.36-.02-5.008-.128-8.108-.24-6.166-.222-6.474-.267-7.324-1.075a4 4 0 0 1-.719-.99c-.245-.529-.255-1.486-.258-25.441l-.003-24.892h65.511l-.036 24.892-.035 24.891-.297.55c-.38.702-1.079 1.371-1.704 1.632-1.12.467-14.49.78-31.646.74-7.1-.017-14.022-.047-15.381-.067m-5.141-45.318c.833-.492.953-1.803.227-2.485-.3-.281-.445-.295-3.311-.308-2.917-.014-3.007-.006-3.323.29-.669.63-.703 1.547-.082 2.237.394.438.7.482 3.437.49 2.264.008 2.715-.025 3.052-.224m10.295.025c.457-.236.82-.843.82-1.371 0-.463-.344-1.12-.68-1.3-.157-.085-1.45-.142-3.201-.142-2.909 0-2.941.003-3.242.324-.653.695-.492 1.947.314 2.438.374.229.72.258 3.004.259 2.04 0 2.667-.043 2.985-.208m9.826-.05c.824-.503.952-1.664.264-2.406l-.336-.363-2.71.037-2.712.038-.314.466q-.547.814-.107 1.666c.372.72.728.809 3.226.814 1.98.005 2.32-.027 2.689-.253m10.28-.163c.758-.666.79-1.547.085-2.29-.285-.3-.367-.309-3.091-.309-1.54 0-2.9.039-3.022.086-.248.095-.761 1.014-.761 1.364 0 .416.445 1.168.808 1.365.273.149.975.197 2.93.2l2.57.006zm9.284.214c.465-.24.82-.845.818-1.399 0-.516-.466-1.251-.853-1.346-.172-.043-1.423-.06-2.78-.038l-2.467.039-.314.466c-.532.79-.311 1.844.477 2.271.548.297 4.547.303 5.119.007m9.338 0c.457-.236.82-.843.82-1.371 0-.463-.344-1.12-.68-1.3-.152-.082-1.278-.142-2.657-.142-2.374 0-2.397.003-2.74.345-.454.455-.56 1.046-.304 1.689.352.879.664.98 3.057.984 1.615.002 2.195-.045 2.504-.205M36.56 40.24c-.338-.313-.35-.385-.436-2.712a187 187 0 0 0-.154-3.421c-.211-3.356-.344-10.322-.207-10.832a3.1 3.1 0 0 1 1.822-2.044c3.854-1.537 37.087-2.175 58.678-1.126 4.71.229 8.526.587 9.718.913 1.004.275 1.913 1.046 2.24 1.902.209.548.225.965.143 3.603-.206 6.54-.515 13.109-.633 13.42-.069.18-.247.393-.397.473-.19.101-10.887.145-35.35.145H36.906z"/>
</svg>
