<svg xmlns="http://www.w3.org/2000/svg" width="150" height="150">
  <path fill="#cfcfcf" d="M68.852 120.806c-2.818-.096-8.085-.602-10.677-1.026-6.27-1.026-10.031-2.525-11.358-4.528-.62-.937-.782-1.996-.648-4.246.054-.894.1-3.624.105-6.066l.007-4.44 1.953.316c7.79 1.262 21.993 2.045 30.95 1.706 8.696-.33 15.534-.885 20.355-1.654.882-.14 1.683-.256 1.78-.256.115 0 .175 2.335.175 6.804 0 6.55-.013 6.831-.363 7.554-1.977 4.083-14.94 6.426-32.279 5.836m-4.948-21.413c-12.41-.732-20.64-1.88-24.742-3.45-1.497-.573-2.761-1.372-3.132-1.98-.656-1.076-.358-2.377.743-3.243 2.106-1.657 8.848-3.153 17.508-3.885l.968-.082.655 1.33c.985 1.999 2.127 3.757 2.885 4.441 2.564 2.317 8.064 3.381 16.4 3.175 2.31-.058 4.75-.218 5.786-.38 3.624-.568 6.385-1.629 7.785-2.99 1.13-1.099 1.44-1.905 1.445-3.768l.003-1.546 3.082.117c7.886.298 14.796 1.625 17.374 3.337 1.503.997 1.805 2.348.817 3.643-.99 1.3-5.137 2.801-9.987 3.618-1.758.296-7.742.948-13.022 1.42-3.665.326-20.354.492-24.568.243m6.466-6.435c-4.429-.215-7.194-.788-9.095-1.886-.722-.417-1.017-.74-1.547-1.695-2.4-4.327-10.065-16.562-25.914-41.366-11.79-18.454-11.326-17.674-11.316-18.998.009-1.286 1.107-2.692 2.391-3.063.452-.13 15.08-.17 49.2-.135l48.558.051.737.52c.917.649 1.444 1.63 1.439 2.68-.006 1.194-.607 2.275-5.215 9.388-16.493 25.456-29.59 46.397-31.904 51.011-.507 1.01-1.39 1.688-2.972 2.28-2.733 1.023-8.414 1.503-14.362 1.213m-7.623-11.76c.854-.445 1.075-.638.99-.867-.149-.395-6.666-12.903-11.642-22.344a14947 14947 0 0 1-7.63-14.498c-1.983-3.772-3.78-7.17-3.995-7.553-.214-.382-.765-1.417-1.224-2.3l-.834-1.606h-1.535c-.844 0-1.535.04-1.535.09 0 .17 1.612 3.3 4.514 8.765 1.598 3.008 4.293 8.125 5.99 11.372 1.696 3.247 3.962 7.544 5.034 9.55s3.456 6.537 5.297 10.07c4.844 9.297 5.226 10.008 5.354 9.949.064-.03.61-.313 1.216-.628m23.073-1.117c.91-1.801 4.883-9.115 13.276-24.438a1731 1731 0 0 0 7.434-13.717c1.552-2.912 3.112-5.803 3.466-6.424s.933-1.656 1.288-2.3l.645-1.172-1.615.002-1.614.003-1.754 3.253c-.965 1.789-5.503 10.167-10.084 18.619-14.463 26.678-14.5 26.748-14.206 26.856.095.035.564.289 1.041.562s.948.507 1.046.517.582-.782 1.077-1.761m-17.17-.835c.593-.127.892-.272.84-.408-.134-.35-2.136-7.514-2.721-9.74-.693-2.631-6.338-22.337-7.462-26.043-.463-1.528-1.363-4.575-2-6.772s-1.217-4.055-1.29-4.13-.76-.116-1.529-.088l-1.396.051.847 2.865c1.84 6.215 2.65 8.996 4.253 14.585.917 3.199 2.446 8.512 3.399 11.807a9509 9509 0 0 1 2.847 9.868c1.079 3.748 2.244 7.678 2.422 8.164.054.147.232.198.478.137.215-.054.806-.188 1.312-.296m10.62.29c0-.084 1.63-5.288 3.73-11.913.893-2.817 2.22-7.075 2.95-9.463s1.983-6.41 2.786-8.941c1.252-3.948 4.985-15.965 5.248-16.893.08-.284-.038-.307-1.366-.26l-1.454.05-.573 1.823c-.315 1.003-1.109 3.503-1.764 5.557-1.353 4.24-2.819 8.961-7.277 23.44-4.12 13.38-4.912 16.004-4.85 16.06.05.046 2.172.56 2.44.592.071.008.13-.015.13-.052m-4.797-4.62c.06-2.15.19-11.447.29-20.662s.197-17.986.217-19.49l.036-2.735h-2.825l-.115 4.906c-.13 5.54-.44 41.666-.358 41.8.03.048.636.087 1.35.087h1.296z"/>
  <path fill="#ababab" d="M68.852 120.806c-7.106-.242-14.71-1.479-18.358-2.985-3.54-1.462-4.664-3.14-4.325-6.458.053-.518.1-3.173.104-5.902l.008-4.961 1.953.316c7.773 1.26 22.086 2.046 31.036 1.707 8.527-.323 15.478-.89 20.269-1.655.882-.14 1.683-.256 1.78-.256.115 0 .175 2.335.175 6.804 0 6.55-.013 6.831-.363 7.554-1.976 4.081-14.947 6.426-32.279 5.836m-3.299-21.34a312 312 0 0 0-4.08-.245c-14.506-.802-24.218-2.857-25.535-5.404-.542-1.047-.21-2.274.835-3.097 2.106-1.657 8.848-3.153 17.508-3.885l.968-.082.655 1.33c.985 1.999 2.127 3.757 2.885 4.441 2.564 2.317 8.064 3.381 16.4 3.175 2.31-.058 4.75-.218 5.786-.38 3.624-.568 6.385-1.629 7.785-2.99 1.13-1.099 1.44-1.905 1.445-3.768l.003-1.546 3.082.117c7.654.289 14.924 1.676 17.337 3.307 1.51 1.02 1.824 2.392.846 3.681-.225.297-1.024.86-1.774 1.25-2.641 1.374-7.063 2.346-13.945 3.065-9.078.948-10.053.999-19.957 1.047-5.204.025-9.814.018-10.244-.016m4.915-6.508c-4.475-.206-7.275-.778-9.177-1.877-.805-.465-1.001-.722-2.386-3.13-2.636-4.584-10.586-17.238-25.09-39.94-11.79-18.454-11.327-17.674-11.317-18.998.009-1.286 1.107-2.692 2.391-3.063.452-.13 15.08-.17 49.2-.135l48.558.051.737.52c.917.649 1.443 1.628 1.443 2.69 0 1.27-.278 1.74-9.092 15.368-12.119 18.735-24.312 38.246-27.236 43.58-1.418 2.586-1.42 2.59-2.85 3.292-2.767 1.36-8.308 1.959-15.18 1.642m-7.722-11.76c.853-.444 1.075-.639.99-.867-.143-.386-6.569-12.719-11.642-22.344a15179 15179 0 0 1-7.63-14.498c-1.983-3.772-3.782-7.17-3.998-7.553s-.76-1.417-1.208-2.3l-.815-1.606h-1.55c-.854 0-1.552.04-1.552.09 0 .161 1.56 3.208 3.734 7.289 1.17 2.196 3.866 7.314 5.991 11.372a2265 2265 0 0 0 5.901 11.2 1575 1575 0 0 1 5.296 10.07c4.759 9.127 5.14 9.834 5.267 9.775.064-.03.61-.313 1.216-.628m22.753-.51c.707-1.439 3.887-7.293 13.649-25.132 2.404-4.393 5.41-9.94 6.681-12.327a577 577 0 0 1 5.596-10.288l.511-.911-1.619.002-1.618.003-.763 1.43c-.42.786-2.188 4.047-3.93 7.246s-5.997 11.051-9.458 17.45-6.824 12.61-7.475 13.803c-2.314 4.244-4.505 8.423-4.504 8.594 0 .169 1.814 1.237 2.175 1.28.1.013.44-.505.755-1.15m-16.85-1.442c.593-.127.892-.272.84-.408-.134-.35-2.136-7.514-2.721-9.739-.684-2.598-6.266-22.08-7.637-26.652-.558-1.862-1.46-4.909-2.002-6.771s-1.044-3.448-1.116-3.524-.758-.114-1.526-.086l-1.397.05.848 2.865c1.84 6.215 2.65 8.996 4.252 14.585.917 3.2 2.447 8.512 3.4 11.807a9509 9509 0 0 1 2.847 9.868c1.078 3.748 2.244 7.678 2.422 8.164.053.147.232.198.478.137a57 57 0 0 1 1.312-.296m10.62.29c0-.084 1.629-5.288 3.73-11.913.893-2.817 2.22-7.075 2.95-9.462.73-2.388 2.02-6.529 2.867-9.203s2.129-6.775 2.846-9.115 1.544-4.996 1.834-5.903.53-1.712.53-1.787-.644-.115-1.431-.087l-1.433.05-.576 1.824c-1.387 4.392-3.594 11.368-4.202 13.282a418 418 0 0 0-1.472 4.775c-.446 1.48-1.97 6.441-3.387 11.025-3.667 11.866-4.886 15.92-4.812 15.994.036.036.567.175 1.18.309 1.329.29 1.376.297 1.376.212m-4.797-4.621c.06-2.149.19-11.408.29-20.575s.197-17.938.217-19.49l.036-2.822h-2.812l-.112 4.038c-.06 2.22-.151 9.857-.2 16.972-.05 7.114-.133 15.83-.187 19.368l-.097 6.432 1.378-.008 1.377-.009z"/>
  <path fill="#8f8f8f" d="M68.852 120.806c-7.106-.242-14.71-1.479-18.358-2.985-3.325-1.373-4.483-2.89-4.321-5.663.022-.382.055-3.161.074-6.176l.034-5.482 1.953.316c7.795 1.263 22.048 2.046 31.036 1.707 8.518-.322 15.476-.89 20.269-1.655.882-.14 1.683-.256 1.78-.256.115 0 .175 2.335.175 6.804 0 6.55-.013 6.831-.363 7.554-1.976 4.081-14.947 6.426-32.279 5.836m-4.948-21.412c-13.684-.806-22.176-2.102-25.862-3.948-1.785-.894-2.353-1.564-2.351-2.769.002-1.159.764-1.97 2.663-2.83 2.776-1.259 9.89-2.597 15.934-2.998l.976-.065.648 1.315c.978 1.983 2.121 3.743 2.877 4.425 2.564 2.317 8.064 3.381 16.4 3.175 2.31-.058 4.75-.218 5.786-.38 3.624-.568 6.385-1.629 7.785-2.99 1.13-1.099 1.44-1.905 1.445-3.768l.003-1.546 3.082.117c7.674.29 14.827 1.657 17.335 3.314 1.52 1.004 1.829 2.381.829 3.7-.928 1.22-4.884 2.669-9.578 3.505-1.967.35-7.642.984-13.49 1.506-3.577.32-20.325.481-24.482.237m6.564-6.439c-4.466-.2-7.272-.774-9.177-1.874-.805-.465-1.001-.722-2.386-3.13-2.636-4.584-10.586-17.238-25.09-39.94-11.79-18.454-11.327-17.674-11.317-18.998.009-1.286 1.107-2.692 2.391-3.063.452-.13 15.08-.17 49.2-.135l48.558.051.737.52c.917.649 1.443 1.628 1.443 2.69 0 1.283-.147 1.53-9.65 16.236C102.914 64.294 91.432 82.676 88.5 88.024c-1.418 2.586-1.42 2.59-2.85 3.292-2.768 1.36-8.246 1.951-15.18 1.64m-7.722-11.758c.853-.444 1.075-.639.99-.867-.134-.362-6.472-12.535-10.864-20.868l-7.46-14.15a4376 4376 0 0 1-5.593-10.635l-1.383-2.648H36.89c-.851 0-1.548.04-1.548.09 0 .161 1.56 3.208 3.734 7.289 1.17 2.196 3.866 7.314 5.991 11.372a2349 2349 0 0 0 5.902 11.2c1.12 2.1 3.503 6.632 5.294 10.07 4.687 8.995 5.14 9.835 5.268 9.775.064-.03.61-.313 1.216-.628m22.753-.51c.706-1.437 3.835-7.198 13.649-25.132 2.403-4.393 5.37-9.862 6.592-12.154 2.105-3.947 4.553-8.453 5.683-10.46l.513-.912-1.619.001-1.618.002-.854 1.604c-.47.883-1.73 3.207-2.8 5.164a5733 5733 0 0 0-7.635 14.064L89.37 67.71c-4.233 7.817-6.802 12.67-6.802 12.848 0 .169 1.814 1.236 2.176 1.28.1.013.44-.505.755-1.15m-16.85-1.442c.593-.127.892-.272.84-.408-.143-.372-2.153-7.581-2.788-10-.34-1.289-2.22-7.89-4.182-14.67-3.165-10.947-4.004-13.823-5.947-20.402l-.487-1.65-1.538-.05c-1.2-.04-1.52-.001-1.453.174.259.678 2.864 9.538 5.095 17.326.916 3.2 2.446 8.512 3.398 11.807s2.316 8.021 3.03 10.504c1.15 3.995 1.989 6.812 2.244 7.528.052.148.23.199.476.137a57 57 0 0 1 1.312-.296m11.186-1.596 2.706-8.551c1.148-3.629 2.685-8.551 3.415-10.938s2.018-6.529 2.863-9.203a1414 1414 0 0 0 2.843-9.115c.718-2.34 1.544-4.996 1.834-5.903s.53-1.712.53-1.787-.643-.115-1.431-.087l-1.433.05-.66 2.084c-4.106 12.97-4.676 14.796-8.027 25.697-4.656 15.143-5.835 19.046-5.773 19.108.064.064 2.002.547 2.324.58.106.01.47-.86.81-1.935m-5.363-2.648c.06-2.1.19-11.36.29-20.574.099-9.216.196-18.025.216-19.577l.036-2.822h-2.812l-.111 4.038c-.062 2.22-.152 9.857-.201 16.972-.05 7.114-.133 15.83-.186 19.368l-.097 6.432 1.378-.008 1.377-.009z"/>
  <path fill="#707070" d="M68.852 120.806c-5.109-.174-11.656-1.018-15.192-1.959-5.676-1.509-7.711-3.304-7.485-6.602.022-.334.056-3.113.073-6.176l.033-5.57 1.953.317c7.806 1.264 22.106 2.052 31.036 1.708 8.087-.31 14.042-.776 19.042-1.487 1.64-.234 3.026-.425 3.082-.425s.1 3.062.1 6.804c0 6.55-.013 6.831-.363 7.554-1.976 4.081-14.947 6.426-32.279 5.836m-4.948-21.412c-13.684-.806-22.176-2.102-25.862-3.948-1.785-.894-2.353-1.564-2.351-2.769.002-1.159.764-1.97 2.663-2.83 2.776-1.259 9.89-2.597 15.934-2.998l.976-.065.648 1.315c.978 1.983 2.121 3.743 2.877 4.425 2.564 2.317 8.064 3.381 16.4 3.175 2.31-.058 4.75-.218 5.786-.38 3.599-.565 6.385-1.629 7.76-2.965 1.127-1.095 1.36-1.659 1.467-3.548l.093-1.65 2.947.038c6.984.09 14.815 1.555 17.383 3.252 1.52 1.004 1.829 2.382.829 3.7-.928 1.22-4.884 2.669-9.578 3.505-1.967.35-7.642.984-13.49 1.506-3.577.32-20.325.481-24.482.237m6.564-6.439c-4.482-.202-7.27-.773-9.197-1.885-.755-.437-1.013-.73-1.638-1.869-2.24-4.08-11.573-18.937-29.699-47.275-7.425-11.608-7.445-11.643-7.436-12.913.009-1.286 1.107-2.692 2.391-3.063.452-.13 15.08-.17 49.2-.135l48.558.051.737.52c.917.649 1.443 1.628 1.443 2.69 0 1.283-.147 1.53-9.65 16.236C102.914 64.294 91.432 82.676 88.5 88.024c-1.418 2.586-1.42 2.59-2.85 3.292-2.768 1.36-8.246 1.951-15.18 1.64m-7.722-11.758c.854-.445 1.075-.638.99-.867-.24-.644-8.863-17.111-20.93-39.967a868 868 0 0 1-3.8-7.25l-.544-1.084h-1.56c-.859 0-1.56.04-1.56.09 0 .163 1.566 3.223 3.731 7.289a2479 2479 0 0 1 5.992 11.372c2.126 4.059 4.783 9.098 5.903 11.2 1.12 2.1 3.502 6.632 5.294 10.07 4.687 8.995 5.14 9.835 5.268 9.775.064-.03.61-.313 1.216-.628m22.666-.328c.59-1.202 6.955-12.948 11.6-21.407 1.862-3.39 4.735-8.664 6.384-11.72 5.522-10.235 7.69-14.232 8.12-14.975l.428-.738-1.623.001-1.623.002-.854 1.604c-.47.883-1.73 3.207-2.8 5.164-1.698 3.106-8.42 15.506-15.577 28.735a2722 2722 0 0 0-6.554 12.197l-.485.91 1.068.589c.588.323 1.15.597 1.25.608s.399-.425.666-.97M68.65 79.246c.593-.127.892-.272.84-.408-.143-.372-2.153-7.581-2.788-10-.34-1.289-2.22-7.89-4.182-14.67-3.165-10.947-4.004-13.823-5.947-20.402l-.487-1.65-1.538-.05c-1.2-.04-1.52-.001-1.453.174.255.668 2.73 9.088 5.093 17.326a7293 7293 0 0 0 3.4 11.807c.952 3.294 2.316 8.021 3.03 10.504 1.15 3.995 1.989 6.812 2.244 7.528.052.148.23.199.476.137a57 57 0 0 1 1.312-.296m11.188-1.596c3.18-10.037 4.997-15.822 6.118-19.49.73-2.387 2.019-6.528 2.864-9.202s2.124-6.775 2.843-9.115 1.544-4.996 1.834-5.903.53-1.712.53-1.787-.643-.115-1.431-.087l-1.433.05-.657 2.084a2164 2164 0 0 1-1.764 5.556c-3.525 11.059-12.139 39.148-12.037 39.25.063.063 2.005.546 2.322.578.106.01.47-.86.811-1.934m-5.364-2.648c.06-2.1.19-11.36.29-20.574.099-9.216.196-18.025.216-19.577l.036-2.822h-2.813l-.111 3.95c-.061 2.173-.152 9.732-.2 16.8s-.133 15.82-.187 19.454l-.097 6.606 1.378-.008 1.378-.009z"/>
  <path fill="#505050" d="M68.852 120.806c-2.814-.096-8.084-.602-10.677-1.025-6.604-1.078-10.5-2.737-11.65-4.962-.314-.608-.329-1.056-.28-8.577l.036-5.742 1.953.316c7.816 1.266 22.204 2.06 31.036 1.712 8.189-.323 14.067-.783 19.042-1.491 1.64-.234 3.026-.425 3.082-.425s.1 3.062.1 6.804c0 6.55-.013 6.831-.363 7.554-1.976 4.081-14.947 6.426-32.279 5.836m-4.948-21.412c-13.707-.81-22.176-2.102-25.862-3.948-1.785-.894-2.353-1.564-2.351-2.769.003-1.623 1.757-2.798 5.77-3.865 3.182-.845 8.698-1.69 12.827-1.963l.976-.065.648 1.315c.99 2.009 2.124 3.745 2.91 4.454.851.77 3.09 1.839 4.656 2.223 2.952.724 4.629.87 10.062.878 4.258.006 5.68-.053 7.252-.301 3.78-.598 6.546-1.642 7.942-2.999 1.128-1.095 1.36-1.659 1.468-3.548l.093-1.65 2.865.037c3.167.04 5.587.25 8.845.763 7.289 1.149 10.418 2.71 9.995 4.99-.198 1.07-.833 1.696-2.572 2.536-2.708 1.308-6.835 2.23-12.844 2.871-9.396 1.002-10.888 1.083-20.787 1.135-5.204.027-10.556-.015-11.893-.094m6.564-6.433c-4.498-.21-7.276-.782-9.197-1.891-.755-.437-1.013-.73-1.638-1.869-2.246-4.09-12.125-19.814-29.706-47.28-7.125-11.13-7.438-11.675-7.43-12.912.006-.686.525-1.816 1.062-2.31 1.074-.987-2.59-.92 49.999-.92 37.631 0 48.454.047 49.007.213 1.541.462 2.604 2.306 2.191 3.8-.258.938-1.624 3.2-6.318 10.465-7.369 11.407-7.697 11.919-13.014 20.294-9.826 15.48-15.223 24.26-17.42 28.341-.742 1.38-.953 1.63-1.792 2.133-2.621 1.568-8.408 2.28-15.744 1.936m-7.805-11.726c.9-.478 1.153-.693 1.071-.912-.237-.638-8.74-16.876-20.927-39.96-1.79-3.39-3.5-6.651-3.8-7.248l-.544-1.085h-3.248l.868 1.693c.476.93 1.823 3.49 2.992 5.686s3.825 7.236 5.901 11.199 4.815 9.159 6.085 11.546c3.056 5.746 9.17 17.453 9.766 18.7.26.544.514.993.565.998s.623-.273 1.27-.617m22.755-.373c.596-1.217 5.906-11.018 11.124-20.531 2.12-3.868 5.207-9.532 6.857-12.588 4.29-7.943 7.54-13.933 8.079-14.889l.464-.824-1.62.003-1.621.003-2.326 4.294-7.356 13.583-7.808 14.411c-4.865 8.973-6.316 11.664-7.563 14.02l-1.217 2.3 1.068.588c.587.323 1.149.597 1.248.608.1.011.401-.429.67-.978M68.65 79.246c.632-.136.894-.268.834-.423-.094-.247-1.735-6.13-3.389-12.155-1.007-3.666-5.917-20.68-8.268-28.648a442 442 0 0 1-1.424-4.905l-.298-1.085H54.56c-1.164 0-1.525.053-1.462.217.249.653 2.807 9.354 4.888 16.625a4547 4547 0 0 0 3.58 12.414c1.162 4.01 2.344 8.113 2.627 9.115.862 3.066 2.606 8.933 2.7 9.086.048.08.256.102.462.05s.789-.182 1.295-.291m11.188-1.596c3.21-10.127 4.996-15.82 6.116-19.49a790 790 0 0 1 2.434-7.813c.61-1.91 1.938-6.168 2.951-9.462s2.033-6.574 2.266-7.288.423-1.361.423-1.44-.644-.119-1.432-.09l-1.433.05-.657 2.083a2164 2164 0 0 1-1.764 5.556c-3.555 11.153-12.14 39.147-12.037 39.25.063.063 2.005.546 2.322.578.106.01.47-.86.811-1.934m-5.364-2.648c.06-2.1.19-11.36.29-20.574.099-9.216.196-18.025.216-19.577l.036-2.822h-2.813l-.111 3.95c-.061 2.173-.152 9.732-.2 16.8s-.133 15.82-.187 19.454l-.097 6.606 1.378-.008 1.378-.009z"/>
  <path fill="#2d2d2d" d="M69.286 120.81c-6.24-.247-11.739-.939-15.626-1.966-3.933-1.04-6.273-2.358-7.133-4.022-.303-.586-.3-.496-.27-8.412l.024-5.921 1.307.227c6.515 1.133 17.272 1.867 27.168 1.855 7.868-.01 18.205-.7 24.202-1.617 1.232-.188 2.306-.342 2.388-.342s.148 3.062.148 6.804c0 6.55-.013 6.831-.363 7.554-1.949 4.025-15.398 6.492-31.845 5.84m-3.993-21.35c-15.687-.95-23.404-2.088-27.25-4.014-1.786-.894-2.354-1.564-2.352-2.769.003-1.623 1.757-2.798 5.77-3.865 3.182-.845 8.698-1.69 12.827-1.963l.976-.065.645 1.315c.908 1.85 2.053 3.65 2.73 4.294 1.795 1.706 5.023 2.735 10.016 3.191 2.996.274 9.858.128 12.32-.262 3.611-.573 6.387-1.634 7.76-2.968 1.127-1.095 1.36-1.659 1.467-3.548l.093-1.65 2.691.031a60.5 60.5 0 0 1 9.02.767c7.304 1.158 10.417 2.713 9.994 4.992-.198 1.07-.833 1.696-2.572 2.536-2.695 1.302-6.748 2.209-12.795 2.864-9.207.997-10.92 1.09-20.836 1.135-5.204.023-9.931.014-10.504-.02m5.175-6.5c-4.498-.21-7.276-.782-9.197-1.891-.755-.437-1.013-.73-1.638-1.869-2.33-4.243-12.283-20.073-31.11-49.478-5.595-8.739-6.034-9.518-6.025-10.714.005-.686.524-1.816 1.06-2.31 1.075-.987-2.59-.92 50-.92 37.631 0 48.454.047 49.007.213 1.541.462 2.604 2.305 2.191 3.8-.27.979-1.598 3.148-8.025 13.111-8.697 13.48-14.288 22.278-20.568 32.36-4.271 6.858-6.68 10.881-8.159 13.63-.742 1.379-.953 1.629-1.792 2.132-2.621 1.568-8.408 2.28-15.744 1.936m-7.817-11.72c.641-.34 1.166-.669 1.166-.73 0-.168-5.15-10.049-13.505-25.91l-9.716-18.448-2.17-4.123H35.2l.786 1.519c.432.836 2.173 4.137 3.868 7.336a3091 3091 0 0 1 6.08 11.546c1.649 3.151 4.303 8.19 5.899 11.199 3.19 6.014 7.883 15.007 8.85 16.959.34.685.66 1.252.71 1.259s.617-.266 1.259-.607m22.81-.466c.522-1.057 2.426-4.57 14.848-27.39 3.3-6.063 7.06-12.978 8.352-15.365a734 734 0 0 1 2.816-5.166l.464-.824-1.62.003-1.621.003-2.326 4.294-19.722 36.415a799 799 0 0 0-3.005 5.6l-1.217 2.3 1.068.587c.587.323 1.148.597 1.247.608s.421-.468.716-1.065m-16.81-1.529c.625-.134.893-.269.834-.42-.086-.225-1.232-4.339-3.315-11.897-1.115-4.046-6.168-21.565-8.339-28.91-.62-2.1-1.263-4.307-1.427-4.904l-.3-1.085h-1.537c-1.385 0-1.529.03-1.444.304 1.247 4.04 2.714 9.03 4.863 16.538.807 2.817 2.417 8.403 3.58 12.414s2.345 8.113 2.627 9.115c.863 3.066 2.606 8.933 2.7 9.086.048.08.256.102.462.05s.79-.182 1.295-.291m11.223-1.683c.35-1.122 1.602-5.087 2.783-8.811s2.825-8.998 3.653-11.72 2.118-6.863 2.865-9.202c.747-2.34 1.907-6.051 2.577-8.248s1.456-4.735 1.747-5.642.529-1.711.53-1.787-.644-.115-1.432-.087l-1.433.05-.657 2.084a2164 2164 0 0 1-1.764 5.556C85.189 50.903 76.6 78.902 76.704 79.005c.065.066 2.01.548 2.333.58.11.01.487-.9.836-2.022m-5.4-2.56c.06-2.102.19-11.282.29-20.402s.197-17.929.217-19.576l.036-2.996h-2.813l-.11 3.777c-.062 2.077-.152 9.636-.201 16.799a3348 3348 0 0 1-.187 19.624l-.097 6.603 1.379-.005 1.378-.005z"/>
  <path d="M69.286 120.823c-11.994-.597-19.236-2.23-21.958-4.953-1.048-1.048-1.047-1.044-1.047-8.535v-6.831l1.259.22c2.447.428 8.599 1.102 12.37 1.355 5.63.378 14.559.652 17.537.537 10.083-.389 17.288-.958 22.05-1.74.86-.142 1.66-.26 1.78-.26.17-.003.217 1.471.217 6.8 0 6.505-.016 6.835-.356 7.539-1.331 2.75-7.826 4.805-17.788 5.627-2.284.189-11.828.352-14.064.24M65.293 99.46c-14.831-.899-22.343-1.948-26.524-3.705-2.286-.96-3.08-1.755-3.078-3.078.002-1.16.865-2.04 2.877-2.93 2.6-1.15 9.372-2.428 14.944-2.82l1.76-.125.644 1.306c.884 1.795 1.788 3.26 2.489 4.037 2.345 2.596 7.838 3.76 16.784 3.558 7.079-.16 11.35-1.214 13.54-3.344 1.14-1.108 1.47-1.933 1.476-3.69.003-1.195.053-1.456.301-1.551.164-.063 1.98-.02 4.037.094 7.14.397 12.644 1.44 15.508 2.937 1.785.933 2.307 1.885 1.785 3.252-.169.442-.543.953-.897 1.223-2.179 1.662-7.096 2.941-14.306 3.722-9.207.997-10.92 1.09-20.836 1.135-5.204.023-9.931.014-10.504-.02m5.37-6.51c-4.593-.179-7.426-.746-9.392-1.881-.756-.437-1.013-.73-1.637-1.869-.407-.743-1.823-3.128-3.145-5.302-3.94-6.473-14.417-23.03-27.199-42.984-6.45-10.07-6.8-10.684-6.792-11.906.005-.686.524-1.816 1.06-2.31 1.075-.987-2.593-.92 50.038-.92 36.04 0 48.484.051 48.924.2 1.266.43 1.946 1.205 2.26 2.578.327 1.421.137 1.744-12.139 20.656-3.076 4.739-13.537 21.289-17.97 28.43-2.824 4.55-5.93 9.8-6.913 11.684-.478.917-.757 1.229-1.491 1.666-2.675 1.593-7.946 2.254-15.604 1.957m-8.012-11.709c.641-.34 1.166-.668 1.166-.728 0-.172-5.295-10.334-13.503-25.912l-9.717-18.448-2.17-4.123h-3.228l.786 1.519c.432.836 2.173 4.137 3.867 7.336s4.04 7.652 5.212 9.896 3.867 7.362 5.988 11.373c4.513 8.531 8.652 16.457 9.587 18.357.363.738.702 1.344.753 1.346.05.002.617-.275 1.259-.616m22.765-.379c.563-1.149 7.212-13.424 10.604-19.576 3.539-6.418 8.49-15.53 10.945-20.14 1.22-2.293 2.742-5.106 3.382-6.251s1.257-2.26 1.37-2.475l.207-.39-1.612.001-1.612.001-.63 1.17c-.347.645-1.841 3.398-3.322 6.12-4.78 8.786-19.656 36.3-21.007 38.849l-1.31 2.474 1.067.587c.587.323 1.149.597 1.248.608.1.011.401-.429.67-.978m-17.095-1.54c.823-.186 1.22-.353 1.166-.492-.119-.31-2.051-7.26-2.802-10.078-.772-2.896-6.497-22.844-7.799-27.173a741 741 0 0 1-1.855-6.292l-.94-3.254-1.531-.002c-1.379-.001-1.522.029-1.437.303 1.349 4.37 2.538 8.436 6.437 22.007a6150 6150 0 0 0 3.829 13.282c.514 1.767 1.504 5.185 2.2 7.595s1.316 4.383 1.375 4.384.67-.125 1.357-.28m11.61-1.932c.384-1.218 1.637-5.183 2.785-8.812s2.764-8.824 3.593-11.546 2.118-6.863 2.865-9.202c.747-2.34 1.906-6.051 2.576-8.248s1.456-4.723 1.748-5.615.53-1.693.53-1.78-.653-.157-1.45-.157h-1.452l-.826 2.734a424 424 0 0 1-1.745 5.6c-3.265 10.185-11.958 38.534-11.85 38.643.064.064 2.011.546 2.33.577.109.01.512-.977.896-2.194m-5.458-2.214c.06-2.005.19-11.225.29-20.488s.197-18.15.217-19.75l.036-2.909h-2.813l-.111 3.777c-.061 2.077-.151 9.402-.2 16.278a3955 3955 0 0 1-.186 19.635l-.097 7.134 1.378-.015 1.378-.016z"/>
</svg>
